<?xml version="1.0" encoding="UTF-8" standalone="no"?>
<!-- Created with Inkscape (http://www.inkscape.org/) -->

<svg
   version="1.1"
   id="svg2"
   xml:space="preserve"
   width="1320"
   height="600"
   viewBox="0 0 1320 600"
   sodipodi:docname="2005.i518.006_automated_smart_garden_illustration.eps"
   xmlns:inkscape="http://www.inkscape.org/namespaces/inkscape"
   xmlns:sodipodi="http://sodipodi.sourceforge.net/DTD/sodipodi-0.dtd"
   xmlns="http://www.w3.org/2000/svg"
   xmlns:svg="http://www.w3.org/2000/svg"><defs
     id="defs6" /><sodipodi:namedview
     id="namedview4"
     pagecolor="#ffffff"
     bordercolor="#666666"
     borderopacity="1.0"
     inkscape:pageshadow="2"
     inkscape:pageopacity="0.0"
     inkscape:pagecheckerboard="0" /><g
     id="g8"
     inkscape:groupmode="layer"
     inkscape:label="ink_ext_XXXXXX"
     transform="matrix(1.3333333,0,0,-1.3333333,0,600)"><g
       id="g10"
       transform="scale(0.1)"><path
         d="M 9900,0 H 0 V 4500 H 9900 V 0"
         style="fill:#ffe9f2;fill-opacity:1;fill-rule:nonzero;stroke:none"
         id="path12" /><path
         d="m 1052.4,4069.8 c 135.04,0 244.9,-109.86 244.9,-244.89 0,-6.37 -0.24,-12.72 -0.73,-19.03 63.06,-20.67 108.74,-80.09 108.74,-149.98 0,-87.01 -70.78,-157.78 -157.8,-157.78 H 420.566 c -73.586,0 -133.449,59.86 -133.449,133.44 0,67.5 50.383,123.46 115.512,132.24 17,85.33 92.473,149.83 182.719,149.83 30.398,0 59.91,-7.49 86.191,-21.24 30.688,32.72 74.231,52.82 121.469,52.82 14.883,0 29.437,-1.92 43.398,-5.67 41.66,77.82 124.137,130.26 215.994,130.26"
         style="fill:#ffffff;fill-opacity:1;fill-rule:nonzero;stroke:none"
         id="path14" /><path
         d="M 9900,0 H 0 v 2619.88 c 4631.83,900.04 7805.21,599.04 9900,161.15 V 0"
         style="fill:#ffffff;fill-opacity:1;fill-rule:nonzero;stroke:none"
         id="path16" /><path
         d="M 9900,0 H 0 v 1834 c 2540.77,-172.34 6084.08,1564.85 9900,115.49 V 0"
         style="fill:#c5ebed;fill-opacity:1;fill-rule:nonzero;stroke:none"
         id="path18" /><path
         d="m 5757.27,1658.52 h -26.21 l 0.69,42.45 1.79,114.7 0.6,38.86 2.78,175.79 1.02,64.69 1.85,118.16 h 8.76 l 1.84,-118.16 1.02,-64.69 2.78,-175.79 0.6,-38.86 1.15,-71.91 1.33,-85.24"
         style="fill:#0f1241;fill-opacity:1;fill-rule:nonzero;stroke:none"
         id="path20" /><path
         d="m 5757.27,1658.52 h -26.21 l 0.69,42.45 c 12.21,6.78 22.44,19.67 24.19,42.79 l 1.33,-85.24"
         style="fill:#38a9af;fill-opacity:1;fill-rule:nonzero;stroke:none"
         id="path22" /><path
         d="m 5550.68,2092.74 c 114.53,18.95 163.32,101.9 163.32,101.9 0,0 -95.95,-7.37 -163.32,-101.9"
         style="fill:#0f1241;fill-opacity:1;fill-rule:nonzero;stroke:none"
         id="path24" /><path
         d="m 5562.6,2098.86 c -0.36,0 -0.71,0.17 -0.91,0.5 -0.31,0.49 -0.16,1.16 0.34,1.47 l 148.86,92.86 c 0.5,0.31 1.16,0.17 1.47,-0.34 0.32,-0.49 0.16,-1.15 -0.34,-1.47 l -148.86,-92.87 c -0.17,-0.1 -0.37,-0.15 -0.56,-0.15"
         style="fill:#38a9af;fill-opacity:1;fill-rule:nonzero;stroke:none"
         id="path26" /><path
         d="m 5744.17,2441.5 c 44.54,-107.19 0,-192.5 0,-192.5 0,0 -44.55,85.31 0,192.5"
         style="fill:#0f1241;fill-opacity:1;fill-rule:nonzero;stroke:none"
         id="path28" /><path
         d="m 5744.17,2248.02 c -0.55,0 -0.99,0.44 -0.99,0.98 v 161.8 c 0,0.54 0.44,0.98 0.99,0.98 0.54,0 0.98,-0.44 0.98,-0.98 V 2249 c 0,-0.54 -0.44,-0.98 -0.98,-0.98"
         style="fill:#38a9af;fill-opacity:1;fill-rule:nonzero;stroke:none"
         id="path30" /><path
         d="m 5937.65,2092.74 c -114.52,18.95 -163.32,101.9 -163.32,101.9 0,0 95.95,-7.37 163.32,-101.9"
         style="fill:#0f1241;fill-opacity:1;fill-rule:nonzero;stroke:none"
         id="path32" /><path
         d="m 5911.6,2108.01 c -0.18,0 -0.36,0.05 -0.52,0.15 l -137.27,85.64 c -0.47,0.29 -0.61,0.9 -0.32,1.36 0.29,0.46 0.9,0.6 1.36,0.31 l 137.27,-85.64 c 0.47,-0.29 0.6,-0.89 0.32,-1.35 -0.19,-0.31 -0.51,-0.47 -0.84,-0.47"
         style="fill:#38a9af;fill-opacity:1;fill-rule:nonzero;stroke:none"
         id="path34" /><path
         d="m 5754,1668.05 h -19.68 c -10.38,0 -18.81,-8.42 -18.81,-18.81 v -8.75 h 57.31 v 8.75 c 0,10.39 -8.43,18.81 -18.82,18.81"
         style="fill:#0f1241;fill-opacity:1;fill-rule:nonzero;stroke:none"
         id="path36" /><path
         d="m 5751.41,2030.32 h -14.49 l 1.02,64.69 h 12.45 l 1.02,-64.69"
         style="fill:#38a9af;fill-opacity:1;fill-rule:nonzero;stroke:none"
         id="path38" /><path
         d="m 5754.79,1815.67 h -21.25 l 0.6,38.86 h 20.05 l 0.6,-38.86"
         style="fill:#38a9af;fill-opacity:1;fill-rule:nonzero;stroke:none"
         id="path40" /><path
         d="m 5751.41,2219.4 h -14.49 v 32.35 h 14.49 v -32.35"
         style="fill:#38a9af;fill-opacity:1;fill-rule:nonzero;stroke:none"
         id="path42" /><path
         d="m 5745.6,2203.76 7.67,12.29 27.44,-17.11 -7.67,-12.3 -27.44,17.12"
         style="fill:#38a9af;fill-opacity:1;fill-rule:nonzero;stroke:none"
         id="path44" /><path
         d="m 5742.73,2203.76 -7.67,12.29 -27.44,-17.11 7.67,-12.3 27.44,17.12"
         style="fill:#38a9af;fill-opacity:1;fill-rule:nonzero;stroke:none"
         id="path46" /><path
         d="m 5757.26,2213.19 c 0,-7.23 -5.86,-13.09 -13.09,-13.09 -7.24,0 -13.11,5.86 -13.11,13.09 0,7.24 5.87,13.11 13.11,13.11 7.23,0 13.09,-5.87 13.09,-13.11"
         style="fill:#0f1241;fill-opacity:1;fill-rule:nonzero;stroke:none"
         id="path48" /><path
         d="m 5442.41,1623.19 h -23.37 l 0.61,37.85 1.6,102.25 0.54,34.64 2.48,156.72 0.91,57.65 1.64,105.35 h 7.81 l 1.64,-105.35 0.92,-57.65 2.47,-156.72 0.54,-34.64 1.03,-64.1 1.18,-76"
         style="fill:#0f1241;fill-opacity:1;fill-rule:nonzero;stroke:none"
         id="path50" /><path
         d="m 5442.41,1623.19 h -23.37 l 0.61,37.85 c 10.89,6.04 20.01,17.53 21.58,38.15 l 1.18,-76"
         style="fill:#38a9af;fill-opacity:1;fill-rule:nonzero;stroke:none"
         id="path52" /><path
         d="m 5439.5,1631.69 h -17.55 c -9.26,0 -16.77,-7.51 -16.77,-16.77 v -7.8 h 51.09 v 7.8 c 0,9.26 -7.51,16.77 -16.77,16.77"
         style="fill:#0f1241;fill-opacity:1;fill-rule:nonzero;stroke:none"
         id="path54" /><path
         d="m 5437.19,1954.65 h -12.92 l 0.91,57.65 h 11.09 l 0.92,-57.65"
         style="fill:#38a9af;fill-opacity:1;fill-rule:nonzero;stroke:none"
         id="path56" /><path
         d="m 5440.2,1763.29 h -18.95 l 0.54,34.64 h 17.87 l 0.54,-34.64"
         style="fill:#38a9af;fill-opacity:1;fill-rule:nonzero;stroke:none"
         id="path58" /><path
         d="m 5227.55,2119.02 c 95.34,-40.25 171.61,-0.98 171.61,-0.98 0,0 -75.82,40.14 -171.61,0.98"
         style="fill:#0f1241;fill-opacity:1;fill-rule:nonzero;stroke:none"
         id="path60" /><path
         d="m 5239.44,2117.95 c -0.27,0.17 -0.44,0.48 -0.44,0.82 0,0.52 0.43,0.95 0.96,0.95 l 156.4,-0.9 c 0.52,-0.01 0.95,-0.44 0.95,-0.96 0,-0.53 -0.43,-0.95 -0.96,-0.95 l -156.4,0.9 c -0.18,0 -0.36,0.05 -0.51,0.14"
         style="fill:#38a9af;fill-opacity:1;fill-rule:nonzero;stroke:none"
         id="path62" /><path
         d="m 5539.44,2289.73 c -17.48,-102 -91.67,-145.07 -91.67,-145.07 0,0 7.06,85.49 91.67,145.07"
         style="fill:#0f1241;fill-opacity:1;fill-rule:nonzero;stroke:none"
         id="path64" /><path
         d="m 5447.3,2143.91 c -0.41,0.26 -0.53,0.8 -0.27,1.21 l 77.05,121.94 c 0.26,0.41 0.8,0.53 1.21,0.27 0.41,-0.26 0.53,-0.81 0.27,-1.22 l -77.04,-121.93 c -0.26,-0.41 -0.81,-0.53 -1.22,-0.27"
         style="fill:#38a9af;fill-opacity:1;fill-rule:nonzero;stroke:none"
         id="path66" /><path
         d="m 5519.18,1934.76 c -77.28,68.81 -74.56,154.56 -74.56,154.56 0,0 68.8,-51.24 74.56,-154.56"
         style="fill:#0f1241;fill-opacity:1;fill-rule:nonzero;stroke:none"
         id="path68" /><path
         d="m 5506.82,1958.66 c -0.13,0.09 -0.25,0.21 -0.32,0.36 l -62.67,129.92 c -0.21,0.43 -0.03,0.95 0.41,1.17 0.44,0.21 0.97,0.03 1.17,-0.41 l 62.67,-129.91 c 0.22,-0.43 0.03,-0.96 -0.41,-1.18 -0.28,-0.13 -0.6,-0.1 -0.85,0.05"
         style="fill:#38a9af;fill-opacity:1;fill-rule:nonzero;stroke:none"
         id="path70" /><path
         d="m 5439.14,2118.9 -10.92,6.9 15.4,24.38 10.93,-6.91 -15.41,-24.37"
         style="fill:#38a9af;fill-opacity:1;fill-rule:nonzero;stroke:none"
         id="path72" /><path
         d="m 5427.31,2109.87 11.64,5.62 12.52,-25.97 -11.63,-5.61 -12.53,25.96"
         style="fill:#38a9af;fill-opacity:1;fill-rule:nonzero;stroke:none"
         id="path74" /><path
         d="m 5425.16,2111.24 0.07,12.92 -28.83,0.17 -0.08,-12.92 28.84,-0.17"
         style="fill:#38a9af;fill-opacity:1;fill-rule:nonzero;stroke:none"
         id="path76" /><path
         d="m 5440.6,2111.43 c -3.45,-5.45 -10.66,-7.07 -16.11,-3.64 -5.45,3.45 -7.08,10.67 -3.64,16.12 3.45,5.45 10.66,7.08 16.11,3.63 5.45,-3.45 7.08,-10.66 3.64,-16.11"
         style="fill:#0f1241;fill-opacity:1;fill-rule:nonzero;stroke:none"
         id="path78" /><path
         d="m 9900,1640.98 c -4590.64,491.28 -5262.28,-570.34 -9900,0 V 0 h 9900 v 1640.98"
         style="fill:#79d1d4;fill-opacity:1;fill-rule:nonzero;stroke:none"
         id="path80" /><path
         d="m 0,820.492 c 2949.79,563.128 5137.36,-788.0232 9900,0 V 0 H 0 v 820.492"
         style="fill:#38a9af;fill-opacity:1;fill-rule:nonzero;stroke:none"
         id="path82" /><path
         d="m 870.621,1563.8 h -74.719 l 1.953,121.03 5.118,327.03 1.711,110.79 7.918,501.2 2.925,184.41 5.243,336.9 h 24.988 l 5.238,-336.9 2.93,-184.41 7.922,-501.2 1.703,-110.79 3.289,-205.02 3.781,-243.04"
         style="fill:#ff8fbc;fill-opacity:1;fill-rule:nonzero;stroke:none"
         id="path84" /><path
         d="m 870.621,1563.8 h -74.719 l 1.953,121.03 c 34.821,19.34 63.997,56.1 68.985,122.01 l 3.781,-243.04"
         style="fill:#c91f64;fill-opacity:1;fill-rule:nonzero;stroke:none"
         id="path86" /><path
         d="m 281.621,2801.79 c 326.516,54.04 465.649,290.5 465.649,290.5 0,0 -273.559,-20.99 -465.649,-290.5"
         style="fill:#0f1241;fill-opacity:1;fill-rule:nonzero;stroke:none"
         id="path88" /><path
         d="m 315.602,2819.22 c -1.012,0 -2.008,0.51 -2.582,1.44 -0.895,1.42 -0.461,3.3 0.968,4.19 l 424.41,264.77 c 1.426,0.87 3.305,0.45 4.192,-0.98 0.894,-1.41 0.457,-3.29 -0.969,-4.19 l -424.41,-264.77 c -0.496,-0.31 -1.055,-0.46 -1.609,-0.46"
         style="fill:#ff8fbc;fill-opacity:1;fill-rule:nonzero;stroke:none"
         id="path90" /><path
         d="m 833.262,3796.14 c 126.98,-305.63 0,-548.84 0,-548.84 0,0 -126.989,243.21 0,548.84"
         style="fill:#0f1241;fill-opacity:1;fill-rule:nonzero;stroke:none"
         id="path92" /><path
         d="m 833.262,3244.49 c -1.551,0 -2.813,1.26 -2.813,2.81 v 461.29 c 0,1.54 1.262,2.8 2.813,2.8 1.551,0 2.808,-1.26 2.808,-2.8 V 3247.3 c 0,-1.55 -1.257,-2.81 -2.808,-2.81"
         style="fill:#ff8fbc;fill-opacity:1;fill-rule:nonzero;stroke:none"
         id="path94" /><path
         d="m 1384.91,2801.79 c -326.52,54.04 -465.652,290.5 -465.652,290.5 0,0 273.562,-20.99 465.652,-290.5"
         style="fill:#0f1241;fill-opacity:1;fill-rule:nonzero;stroke:none"
         id="path96" /><path
         d="m 1310.63,2845.32 c -0.51,0 -1.03,0.13 -1.48,0.43 l -391.377,244.17 c -1.32,0.82 -1.718,2.54 -0.898,3.86 0.824,1.34 2.555,1.74 3.871,0.9 l 391.374,-244.17 c 1.32,-0.82 1.71,-2.55 0.89,-3.86 -0.52,-0.86 -1.44,-1.33 -2.38,-1.33"
         style="fill:#ff8fbc;fill-opacity:1;fill-rule:nonzero;stroke:none"
         id="path98" /><path
         d="m 861.316,1590.97 h -56.113 c -29.621,0 -53.633,-24.02 -53.633,-53.64 v -24.94 h 163.379 v 24.94 c 0,29.62 -24.011,53.64 -53.633,53.64"
         style="fill:#0f1241;fill-opacity:1;fill-rule:nonzero;stroke:none"
         id="path100" /><path
         d="m 853.926,2623.85 h -41.324 l 2.925,184.41 h 35.469 l 2.93,-184.41"
         style="fill:#0f1241;fill-opacity:1;fill-rule:nonzero;stroke:none"
         id="path102" /><path
         d="m 863.551,2011.86 h -60.578 l 1.711,110.79 h 57.164 l 1.703,-110.79"
         style="fill:#0f1241;fill-opacity:1;fill-rule:nonzero;stroke:none"
         id="path104" /><path
         d="m 853.926,3162.92 h -41.324 v 92.21 h 41.324 v -92.21"
         style="fill:#c91f64;fill-opacity:1;fill-rule:nonzero;stroke:none"
         id="path106" /><path
         d="m 837.344,3118.31 21.871,35.06 78.234,-48.81 -21.867,-35.06 -78.238,48.81"
         style="fill:#c91f64;fill-opacity:1;fill-rule:nonzero;stroke:none"
         id="path108" /><path
         d="m 829.184,3118.31 -21.871,35.06 -78.235,-48.81 21.867,-35.06 78.239,48.81"
         style="fill:#c91f64;fill-opacity:1;fill-rule:nonzero;stroke:none"
         id="path110" /><path
         d="m 870.605,3145.21 c 0,-20.62 -16.718,-37.34 -37.343,-37.34 -20.625,0 -37.344,16.72 -37.344,37.34 0,20.63 16.719,37.35 37.344,37.35 20.625,0 37.343,-16.72 37.343,-37.35"
         style="fill:#0f1241;fill-opacity:1;fill-rule:nonzero;stroke:none"
         id="path112" /><path
         d="m 1385.94,1500.58 h -51.22 l 1.34,82.96 3.51,224.15 1.17,75.93 5.43,343.54 2,126.4 3.6,230.91 h 17.12 l 3.6,-230.91 2,-126.4 5.43,-343.54 1.17,-75.93 2.25,-140.52 2.6,-166.59"
         style="fill:#ff8fbc;fill-opacity:1;fill-rule:nonzero;stroke:none"
         id="path114" /><path
         d="m 1385.94,1500.58 h -51.22 l 1.34,82.96 c 23.87,13.26 43.86,38.45 47.28,83.63 l 2.6,-166.59"
         style="fill:#c91f64;fill-opacity:1;fill-rule:nonzero;stroke:none"
         id="path116" /><path
         d="m 1379.56,1519.2 h -38.47 c -20.3,0 -36.75,-16.46 -36.75,-36.76 v -17.1 h 111.98 v 17.1 c 0,20.3 -16.46,36.76 -36.76,36.76"
         style="fill:#0f1241;fill-opacity:1;fill-rule:nonzero;stroke:none"
         id="path118" /><path
         d="m 1374.49,2227.16 h -28.32 l 2,126.4 h 24.32 l 2,-126.4"
         style="fill:#0f1241;fill-opacity:1;fill-rule:nonzero;stroke:none"
         id="path120" /><path
         d="m 1381.09,1807.69 h -41.52 l 1.17,75.93 h 39.18 l 1.17,-75.93"
         style="fill:#0f1241;fill-opacity:1;fill-rule:nonzero;stroke:none"
         id="path122" /><path
         d="m 914.949,2587.49 c 208.981,-88.24 376.181,-2.16 376.181,-2.16 0,0 -166.2,87.99 -376.181,2.16"
         style="fill:#0f1241;fill-opacity:1;fill-rule:nonzero;stroke:none"
         id="path124" /><path
         d="m 941.02,2585.14 c -0.586,0.37 -0.977,1.03 -0.969,1.78 0.004,1.15 0.941,2.08 2.097,2.07 L 1285,2587.03 c 1.15,-0.02 2.09,-0.95 2.08,-2.1 0,-1.15 -0.94,-2.08 -2.1,-2.07 l -342.855,1.96 c -0.402,0 -0.781,0.12 -1.105,0.32"
         style="fill:#ff8fbc;fill-opacity:1;fill-rule:nonzero;stroke:none"
         id="path126" /><path
         d="m 1598.64,2961.68 c -38.31,-223.58 -200.93,-318.01 -200.93,-318.01 0,0 15.46,187.41 200.93,318.01"
         style="fill:#0f1241;fill-opacity:1;fill-rule:nonzero;stroke:none"
         id="path128" /><path
         d="m 1396.67,2642.04 c -0.89,0.57 -1.16,1.75 -0.6,2.65 l 168.89,267.29 c 0.57,0.9 1.76,1.17 2.66,0.6 0.9,-0.57 1.16,-1.76 0.6,-2.65 l -168.89,-267.3 c -0.57,-0.89 -1.76,-1.16 -2.66,-0.59"
         style="fill:#ff8fbc;fill-opacity:1;fill-rule:nonzero;stroke:none"
         id="path130" /><path
         d="m 1554.24,2183.55 c -169.42,150.85 -163.46,338.81 -163.46,338.81 0,0 150.83,-112.32 163.46,-338.81"
         style="fill:#0f1241;fill-opacity:1;fill-rule:nonzero;stroke:none"
         id="path132" /><path
         d="m 1527.14,2235.97 c -0.29,0.18 -0.54,0.45 -0.7,0.79 l -137.39,284.77 c -0.46,0.96 -0.06,2.1 0.9,2.57 0.97,0.47 2.12,0.07 2.57,-0.9 l 137.38,-284.77 c 0.47,-0.96 0.07,-2.1 -0.9,-2.57 -0.61,-0.3 -1.31,-0.24 -1.86,0.11"
         style="fill:#ff8fbc;fill-opacity:1;fill-rule:nonzero;stroke:none"
         id="path134" /><path
         d="m 1378.78,2587.2 -23.94,15.13 33.76,53.43 23.94,-15.13 -33.76,-53.43"
         style="fill:#c91f64;fill-opacity:1;fill-rule:nonzero;stroke:none"
         id="path136" /><path
         d="m 1352.84,2567.43 25.51,12.31 27.47,-56.93 -25.51,-12.31 -27.47,56.93"
         style="fill:#c91f64;fill-opacity:1;fill-rule:nonzero;stroke:none"
         id="path138" /><path
         d="m 1348.12,2570.42 0.16,28.32 -63.21,0.36 -0.16,-28.32 63.21,-0.36"
         style="fill:#c91f64;fill-opacity:1;fill-rule:nonzero;stroke:none"
         id="path140" /><path
         d="m 1381.97,2570.84 c -7.56,-11.95 -23.37,-15.52 -35.31,-7.97 -11.96,7.55 -15.52,23.36 -7.97,35.31 7.55,11.96 23.36,15.52 35.31,7.97 11.95,-7.55 15.52,-23.36 7.97,-35.31"
         style="fill:#0f1241;fill-opacity:1;fill-rule:nonzero;stroke:none"
         id="path142" /><path
         d="m 4994.43,1916.72 c 90.67,-101.9 62.97,-291.57 0,-348.79 -62.96,57.22 -90.66,246.89 0,348.79"
         style="fill:#38a9af;fill-opacity:1;fill-rule:nonzero;stroke:none"
         id="path144" /><path
         d="m 4994.43,1565.43 c -1.37,0 -2.49,1.12 -2.49,2.5 v 295.5 c 0,1.36 1.12,2.49 2.49,2.49 1.38,0 2.5,-1.13 2.5,-2.49 v -295.5 c 0,-1.38 -1.12,-2.5 -2.5,-2.5"
         style="fill:#79d1d4;fill-opacity:1;fill-rule:nonzero;stroke:none"
         id="path146" /><path
         d="m 4994.21,1583.72 c 0,78.3 81.74,209.25 193.77,229.41 7.5,-121.67 -116.67,-239.73 -192.52,-245.2 -0.84,4.96 -1.25,10.24 -1.25,15.79 0,-5.55 -0.41,-10.83 -1.25,-15.79 -75.84,5.47 -200.01,123.53 -192.52,245.2 112.04,-20.16 193.77,-151.11 193.77,-229.41"
         style="fill:#79d1d4;fill-opacity:1;fill-rule:nonzero;stroke:none"
         id="path148" /><path
         d="m 4995.47,1565.43 c -0.54,0 -1.09,0.18 -1.54,0.54 -1.09,0.85 -1.28,2.42 -0.42,3.5 l 163.1,207.73 c 0.84,1.07 2.4,1.29 3.5,0.42 1.08,-0.84 1.28,-2.41 0.42,-3.5 l -163.1,-207.73 c -0.49,-0.63 -1.22,-0.96 -1.96,-0.96"
         style="fill:#38a9af;fill-opacity:1;fill-rule:nonzero;stroke:none"
         id="path150" /><path
         d="m 4992.96,1565.43 c -0.74,0 -1.47,0.33 -1.96,0.96 l -163.1,207.73 c -0.86,1.09 -0.66,2.66 0.42,3.5 1.08,0.87 2.65,0.65 3.5,-0.42 l 163.1,-207.73 c 0.86,-1.08 0.67,-2.65 -0.42,-3.5 -0.46,-0.36 -1,-0.54 -1.54,-0.54"
         style="fill:#38a9af;fill-opacity:1;fill-rule:nonzero;stroke:none"
         id="path152" /><path
         d="m 1176.65,1518.7 c 0,-4.4 -0.33,-8.6 -0.99,-12.55 -60.3,4.35 -159.02,98.22 -153.07,194.94 89.08,-16.02 154.06,-120.13 154.06,-182.38 v -0.01"
         style="fill:#38a9af;fill-opacity:1;fill-rule:nonzero;stroke:none"
         id="path154" /><path
         d="m 1175.66,1501.97 c -1.24,0 -2.47,0.55 -3.28,1.59 l -129.68,165.17 c -1.44,1.82 -1.11,4.44 0.7,5.86 1.81,1.45 4.46,1.11 5.86,-0.7 l 129.68,-165.16 c 1.44,-1.82 1.11,-4.44 -0.7,-5.86 -0.77,-0.6 -1.68,-0.9 -2.58,-0.9"
         style="fill:#79d1d4;fill-opacity:1;fill-rule:nonzero;stroke:none"
         id="path156" /><path
         d="m 1176.83,1783.46 c 72.08,-81.01 50.06,-231.82 0,-277.31 -50.06,45.49 -72.08,196.3 0,277.31"
         style="fill:#79d1d4;fill-opacity:1;fill-rule:nonzero;stroke:none"
         id="path158" /><path
         d="m 1176.83,1502.29 c -2.12,0 -3.85,1.73 -3.85,3.86 v 234.93 c 0,2.12 1.73,3.86 3.85,3.86 2.13,0 3.85,-1.74 3.85,-3.86 v -234.93 c 0,-2.13 -1.72,-3.86 -3.85,-3.86"
         style="fill:#38a9af;fill-opacity:1;fill-rule:nonzero;stroke:none"
         id="path160" /><path
         d="m 4156.92,755.77 c 0,-6.809 -0.51,-13.321 -1.54,-19.418 -93.28,6.73 -245.99,151.918 -236.78,301.558 137.8,-24.79 238.31,-185.828 238.32,-282.129 v -0.011"
         style="fill:#38a9af;fill-opacity:1;fill-rule:nonzero;stroke:none"
         id="path162" /><path
         d="m 4157.19,1165.32 c 111.5,-125.32 77.44,-358.601 0,-428.968 -77.44,70.367 -111.5,303.648 0,428.968"
         style="fill:#38a9af;fill-opacity:1;fill-rule:nonzero;stroke:none"
         id="path164" /><path
         d="m 350.074,879.859 c 0,-6.82 0.508,-13.32 1.535,-19.418 C 444.887,867.16 597.598,1012.36 588.391,1162 450.598,1137.21 350.078,976.16 350.074,879.859 v 0"
         style="fill:#38a9af;fill-opacity:1;fill-rule:nonzero;stroke:none"
         id="path166" /><path
         d="m 349.805,1289.4 c -111.504,-125.31 -77.442,-358.599 0,-428.959 77.437,70.36 111.5,303.649 0,428.959"
         style="fill:#38a9af;fill-opacity:1;fill-rule:nonzero;stroke:none"
         id="path168" /><path
         d="m 1696.94,1471.87 c 0,-2.96 0.22,-5.8 0.67,-8.45 40.61,2.93 107.08,66.13 103.07,131.27 -59.98,-10.79 -103.74,-80.89 -103.74,-122.82 v 0"
         style="fill:#38a9af;fill-opacity:1;fill-rule:nonzero;stroke:none"
         id="path170" /><path
         d="m 1697.61,1460.61 c 0.84,0 1.66,0.37 2.21,1.08 l 87.32,111.21 c 0.97,1.22 0.75,2.99 -0.47,3.95 -1.22,0.97 -3,0.75 -3.95,-0.47 l -87.31,-111.22 c -0.97,-1.22 -0.75,-2.99 0.47,-3.95 0.51,-0.41 1.13,-0.6 1.73,-0.6"
         style="fill:#79d1d4;fill-opacity:1;fill-rule:nonzero;stroke:none"
         id="path172" /><path
         d="m 1696.83,1650.16 c -48.54,-54.55 -33.71,-156.11 0,-186.74 33.71,30.63 48.53,132.19 0,186.74"
         style="fill:#79d1d4;fill-opacity:1;fill-rule:nonzero;stroke:none"
         id="path174" /><path
         d="m 1696.82,1460.83 c 1.43,0 2.6,1.16 2.6,2.59 v 158.2 c 0,1.43 -1.17,2.59 -2.6,2.59 -1.42,0 -2.59,-1.16 -2.59,-2.59 v -158.2 c 0,-1.43 1.17,-2.59 2.59,-2.59"
         style="fill:#38a9af;fill-opacity:1;fill-rule:nonzero;stroke:none"
         id="path176" /><path
         d="m 9078.25,2320.62 c 80.23,91.41 61.59,226.03 0,285.3 -61.6,-59.27 -80.23,-193.89 0,-285.3"
         style="fill:#79d1d4;fill-opacity:1;fill-rule:nonzero;stroke:none"
         id="path178" /><path
         d="m 9078.24,2317.72 c -1.59,0 -2.89,1.3 -2.89,2.9 v 215.5 c 0,1.6 1.3,2.89 2.89,2.89 1.6,0 2.9,-1.29 2.9,-2.89 v -215.5 c 0,-1.6 -1.3,-2.9 -2.9,-2.9"
         style="fill:#38a9af;fill-opacity:1;fill-rule:nonzero;stroke:none"
         id="path180" /><path
         d="m 9079.37,2243.51 c 99.72,8.05 165.81,98.22 163.36,168.5 -70.32,0.26 -158.4,-68.58 -163.36,-168.5"
         style="fill:#79d1d4;fill-opacity:1;fill-rule:nonzero;stroke:none"
         id="path182" /><path
         d="m 9079.37,2240.62 c -0.73,0 -1.45,0.27 -2.02,0.81 -1.15,1.12 -1.18,2.95 -0.06,4.09 l 123.4,127.28 c 1.11,1.13 2.95,1.17 4.1,0.07 1.15,-1.13 1.17,-2.96 0.06,-4.1 l -123.4,-127.27 c -0.57,-0.59 -1.33,-0.88 -2.08,-0.88"
         style="fill:#38a9af;fill-opacity:1;fill-rule:nonzero;stroke:none"
         id="path184" /><path
         d="m 9077.13,2243.51 c -99.73,8.05 -165.8,98.22 -163.37,168.5 70.32,0.26 158.41,-68.58 163.37,-168.5"
         style="fill:#38a9af;fill-opacity:1;fill-rule:nonzero;stroke:none"
         id="path186" /><path
         d="m 9077.13,2240.62 c -0.76,0 -1.51,0.29 -2.08,0.88 l -123.4,127.27 c -1.1,1.14 -1.08,2.97 0.07,4.1 1.16,1.1 3,1.06 4.09,-0.07 l 123.4,-127.28 c 1.1,-1.14 1.08,-2.97 -0.07,-4.09 -0.57,-0.54 -1.29,-0.81 -2.01,-0.81"
         style="fill:#79d1d4;fill-opacity:1;fill-rule:nonzero;stroke:none"
         id="path188" /><path
         d="m 9078.29,2130.67 c 104.81,7.03 192.85,97.9 205.74,169.36 -72.59,1.08 -178.71,-67.86 -205.74,-169.36"
         style="fill:#38a9af;fill-opacity:1;fill-rule:nonzero;stroke:none"
         id="path190" /><path
         d="m 9080.98,2129.99 c -0.83,0 -1.66,0.36 -2.24,1.05 -1.02,1.24 -0.83,3.06 0.4,4.09 l 153.38,126.24 c 1.25,1.01 3.06,0.83 4.08,-0.4 1.02,-1.23 0.83,-3.06 -0.4,-4.08 l -153.38,-126.25 c -0.54,-0.43 -1.2,-0.65 -1.84,-0.65"
         style="fill:#79d1d4;fill-opacity:1;fill-rule:nonzero;stroke:none"
         id="path192" /><path
         d="m 9079.87,2128.54 c -105.88,7.09 -194.84,98.92 -207.87,171.11 73.36,1.1 180.57,-68.56 207.87,-171.11"
         style="fill:#79d1d4;fill-opacity:1;fill-rule:nonzero;stroke:none"
         id="path194" /><path
         d="m 9075.53,2129.99 c -0.66,0 -1.31,0.22 -1.85,0.65 l -153.38,126.25 c -1.23,1.02 -1.41,2.85 -0.4,4.08 1.02,1.23 2.84,1.41 4.08,0.4 l 153.38,-126.24 c 1.23,-1.03 1.42,-2.85 0.4,-4.09 -0.58,-0.69 -1.4,-1.05 -2.23,-1.05"
         style="fill:#38a9af;fill-opacity:1;fill-rule:nonzero;stroke:none"
         id="path196" /><path
         d="m 9078.85,2012.41 c 105.51,-2.31 201.72,80.78 220.99,151.14 -72.55,7.56 -184.89,-51.97 -220.99,-151.14"
         style="fill:#79d1d4;fill-opacity:1;fill-rule:nonzero;stroke:none"
         id="path198" /><path
         d="m 9082.75,2012.19 c -0.91,0 -1.82,0.44 -2.38,1.26 -0.91,1.32 -0.57,3.11 0.74,4.01 l 163.99,112.16 c 1.34,0.91 3.12,0.57 4.02,-0.74 0.9,-1.33 0.57,-3.13 -0.75,-4.03 L 9084.39,2012.7 c -0.5,-0.36 -1.07,-0.51 -1.64,-0.51"
         style="fill:#38a9af;fill-opacity:1;fill-rule:nonzero;stroke:none"
         id="path200" /><path
         d="m 9079.92,2009.02 c -107.23,-2.35 -205.02,82.1 -224.61,153.62 73.74,7.67 187.91,-52.83 224.61,-153.62"
         style="fill:#38a9af;fill-opacity:1;fill-rule:nonzero;stroke:none"
         id="path202" /><path
         d="m 9073.75,2012.19 c -0.57,0 -1.13,0.15 -1.64,0.51 l -163.98,112.15 c -1.31,0.9 -1.66,2.7 -0.75,4.03 0.91,1.31 2.7,1.65 4.03,0.74 l 163.98,-112.16 c 1.31,-0.9 1.64,-2.69 0.74,-4.01 -0.55,-0.82 -1.47,-1.26 -2.38,-1.26"
         style="fill:#79d1d4;fill-opacity:1;fill-rule:nonzero;stroke:none"
         id="path204" /><path
         d="m 9080.49,1900.66 c 86.16,-1.89 164.73,65.97 180.48,123.43 -59.26,6.17 -151,-42.45 -180.48,-123.43"
         style="fill:#38a9af;fill-opacity:1;fill-rule:nonzero;stroke:none"
         id="path206" /><path
         d="m 9080.49,1897.7 c -0.95,0 -1.87,0.45 -2.45,1.28 -0.91,1.36 -0.58,3.19 0.77,4.12 l 136.33,93.24 c 1.36,0.91 3.18,0.58 4.11,-0.77 0.92,-1.36 0.57,-3.2 -0.77,-4.11 l -136.32,-93.25 c -0.53,-0.35 -1.11,-0.51 -1.67,-0.51"
         style="fill:#79d1d4;fill-opacity:1;fill-rule:nonzero;stroke:none"
         id="path208" /><path
         d="m 9078.81,1896.79 c -88.18,-1.95 -168.6,67.51 -184.71,126.32 60.64,6.31 154.53,-43.44 184.71,-126.32"
         style="fill:#79d1d4;fill-opacity:1;fill-rule:nonzero;stroke:none"
         id="path210" /><path
         d="m 9072.22,1900.36 c -0.56,0 -1.13,0.17 -1.63,0.51 l -133.46,91.27 c -1.31,0.9 -1.65,2.7 -0.74,4.02 0.89,1.3 2.69,1.65 4.02,0.75 l 133.45,-91.27 c 1.32,-0.89 1.65,-2.7 0.75,-4.02 -0.56,-0.82 -1.48,-1.26 -2.39,-1.26"
         style="fill:#38a9af;fill-opacity:1;fill-rule:nonzero;stroke:none"
         id="path212" /><path
         d="m 9073.71,2332.12 c 0.02,2.42 1.99,4.38 4.42,4.38 2.42,0 4.39,-1.96 4.41,-4.38 l 5.03,-653.25 h -18.63 l 4.77,653.25"
         style="fill:#79d1d4;fill-opacity:1;fill-rule:nonzero;stroke:none"
         id="path214" /><path
         d="m 512.734,1986.56 c 56.911,64.85 43.696,160.34 0,202.39 -43.695,-42.05 -56.91,-137.54 0,-202.39"
         style="fill:#79d1d4;fill-opacity:1;fill-rule:nonzero;stroke:none"
         id="path216" /><path
         d="m 512.73,1984.51 c -1.128,0 -2.05,0.92 -2.05,2.05 v 152.87 c 0,1.14 0.922,2.05 2.05,2.05 1.133,0 2.055,-0.91 2.055,-2.05 v -152.87 c 0,-1.13 -0.922,-2.05 -2.055,-2.05"
         style="fill:#38a9af;fill-opacity:1;fill-rule:nonzero;stroke:none"
         id="path218" /><path
         d="m 513.523,1931.86 c 70.747,5.71 117.622,69.67 115.895,119.53 -49.887,0.18 -112.371,-48.65 -115.895,-119.53"
         style="fill:#79d1d4;fill-opacity:1;fill-rule:nonzero;stroke:none"
         id="path220" /><path
         d="m 513.523,1929.8 c -0.511,0 -1.023,0.2 -1.421,0.59 -0.825,0.79 -0.836,2.09 -0.051,2.9 l 87.543,90.28 c 0.781,0.8 2.09,0.83 2.902,0.05 0.817,-0.79 0.828,-2.09 0.047,-2.9 L 515,1930.44 c -0.398,-0.42 -0.937,-0.64 -1.477,-0.64"
         style="fill:#38a9af;fill-opacity:1;fill-rule:nonzero;stroke:none"
         id="path222" /><path
         d="m 511.938,1931.86 c -70.743,5.71 -117.614,69.67 -115.887,119.53 49.887,0.18 112.371,-48.65 115.887,-119.53"
         style="fill:#38a9af;fill-opacity:1;fill-rule:nonzero;stroke:none"
         id="path224" /><path
         d="m 511.938,1929.8 c -0.536,0 -1.075,0.22 -1.473,0.64 l -87.535,90.28 c -0.785,0.81 -0.774,2.11 0.043,2.9 0.828,0.78 2.129,0.75 2.906,-0.05 l 87.535,-90.28 c 0.785,-0.81 0.77,-2.11 -0.051,-2.9 -0.398,-0.39 -0.914,-0.59 -1.425,-0.59"
         style="fill:#79d1d4;fill-opacity:1;fill-rule:nonzero;stroke:none"
         id="path226" /><path
         d="m 512.766,1851.82 c 74.343,4.98 136.804,69.44 145.949,120.13 -51.504,0.77 -126.777,-48.13 -145.949,-120.13"
         style="fill:#38a9af;fill-opacity:1;fill-rule:nonzero;stroke:none"
         id="path228" /><path
         d="m 514.672,1851.34 c -0.594,0 -1.18,0.25 -1.59,0.74 -0.719,0.88 -0.594,2.17 0.281,2.89 l 108.805,89.56 c 0.891,0.72 2.172,0.59 2.895,-0.28 0.718,-0.87 0.589,-2.17 -0.282,-2.89 L 515.977,1851.8 c -0.379,-0.32 -0.848,-0.46 -1.305,-0.46"
         style="fill:#79d1d4;fill-opacity:1;fill-rule:nonzero;stroke:none"
         id="path230" /><path
         d="m 513.887,1850.31 c -75.114,5.03 -138.219,70.17 -147.457,121.38 52.031,0.77 128.082,-48.63 147.457,-121.38"
         style="fill:#79d1d4;fill-opacity:1;fill-rule:nonzero;stroke:none"
         id="path232" /><path
         d="m 510.801,1851.34 c -0.457,0 -0.922,0.14 -1.309,0.46 l -108.804,89.56 c -0.875,0.72 -1,2.02 -0.278,2.89 0.719,0.87 2.012,1 2.891,0.28 l 108.804,-89.56 c 0.875,-0.72 1.004,-2.01 0.282,-2.89 -0.41,-0.49 -0.996,-0.74 -1.586,-0.74"
         style="fill:#38a9af;fill-opacity:1;fill-rule:nonzero;stroke:none"
         id="path234" /><path
         d="m 513.152,1767.93 c 74.852,-1.65 143.102,57.3 156.774,107.22 -51.469,5.36 -131.16,-36.88 -156.774,-107.22"
         style="fill:#79d1d4;fill-opacity:1;fill-rule:nonzero;stroke:none"
         id="path236" /><path
         d="m 515.934,1767.76 c -0.657,0 -1.305,0.32 -1.696,0.9 -0.64,0.94 -0.398,2.21 0.528,2.85 l 116.324,79.56 c 0.953,0.64 2.223,0.39 2.855,-0.53 0.641,-0.94 0.403,-2.21 -0.531,-2.85 L 517.09,1768.12 c -0.356,-0.24 -0.762,-0.36 -1.156,-0.36"
         style="fill:#38a9af;fill-opacity:1;fill-rule:nonzero;stroke:none"
         id="path238" /><path
         d="m 513.922,1765.53 c -76.07,-1.68 -145.442,58.23 -159.336,108.96 52.312,5.45 133.305,-37.47 159.336,-108.96"
         style="fill:#38a9af;fill-opacity:1;fill-rule:nonzero;stroke:none"
         id="path240" /><path
         d="m 509.543,1767.76 c -0.402,0 -0.809,0.12 -1.164,0.36 l -116.324,79.57 c -0.934,0.64 -1.172,1.91 -0.528,2.85 0.641,0.92 1.907,1.17 2.852,0.53 l 116.324,-79.56 c 0.93,-0.64 1.172,-1.91 0.527,-2.85 -0.39,-0.58 -1.039,-0.9 -1.687,-0.9"
         style="fill:#79d1d4;fill-opacity:1;fill-rule:nonzero;stroke:none"
         id="path242" /><path
         d="m 514.32,1688.65 c 61.125,-1.34 116.864,46.8 128.028,87.56 -42.035,4.38 -107.114,-30.11 -128.028,-87.56"
         style="fill:#38a9af;fill-opacity:1;fill-rule:nonzero;stroke:none"
         id="path244" /><path
         d="m 514.316,1686.55 c -0.664,0 -1.324,0.32 -1.726,0.91 -0.652,0.97 -0.41,2.27 0.539,2.92 l 96.711,66.14 c 0.973,0.65 2.262,0.41 2.914,-0.54 0.648,-0.97 0.41,-2.27 -0.543,-2.92 l -96.707,-66.15 c -0.367,-0.24 -0.777,-0.36 -1.188,-0.36"
         style="fill:#79d1d4;fill-opacity:1;fill-rule:nonzero;stroke:none"
         id="path246" /><path
         d="m 513.129,1685.91 c -62.555,-1.38 -119.598,47.89 -131.027,89.61 43.019,4.47 109.621,-30.82 131.027,-89.61"
         style="fill:#79d1d4;fill-opacity:1;fill-rule:nonzero;stroke:none"
         id="path248" /><path
         d="m 508.457,1688.44 c -0.398,0 -0.801,0.11 -1.16,0.36 l -94.668,64.74 c -0.934,0.64 -1.176,1.92 -0.527,2.86 0.628,0.92 1.914,1.17 2.847,0.52 l 94.668,-64.73 c 0.934,-0.64 1.176,-1.92 0.535,-2.85 -0.394,-0.59 -1.047,-0.9 -1.695,-0.9"
         style="fill:#38a9af;fill-opacity:1;fill-rule:nonzero;stroke:none"
         id="path250" /><path
         d="m 509.516,1994.72 c 0.015,1.72 1.414,3.1 3.129,3.1 1.718,0 3.117,-1.38 3.132,-3.1 l 3.563,-463.4 h -13.211 l 3.387,463.4"
         style="fill:#79d1d4;fill-opacity:1;fill-rule:nonzero;stroke:none"
         id="path252" /><path
         d="m 9738.67,2706 c 160.58,182.96 123.28,452.41 0,571.06 -123.29,-118.65 -160.57,-388.1 0,-571.06"
         style="fill:#79d1d4;fill-opacity:1;fill-rule:nonzero;stroke:none"
         id="path254" /><path
         d="m 9738.66,2700.21 c -3.19,0 -5.79,2.61 -5.79,5.8 v 431.33 c 0,3.21 2.6,5.79 5.79,5.79 3.2,0 5.79,-2.58 5.79,-5.79 v -431.33 c 0,-3.19 -2.59,-5.8 -5.79,-5.8"
         style="fill:#38a9af;fill-opacity:1;fill-rule:nonzero;stroke:none"
         id="path256" /><path
         d="m 9740.91,2551.66 c 199.6,16.11 331.89,196.6 326.99,337.27 -140.75,0.52 -317.06,-137.26 -326.99,-337.27"
         style="fill:#79d1d4;fill-opacity:1;fill-rule:nonzero;stroke:none"
         id="path258" /><path
         d="m 9740.9,2545.88 c -1.45,0 -2.89,0.55 -4.02,1.63 -2.31,2.24 -2.36,5.9 -0.14,8.19 l 247.01,254.74 c 2.22,2.26 5.9,2.36 8.18,0.14 2.32,-2.24 2.36,-5.9 0.14,-8.19 l -247,-254.74 c -1.13,-1.18 -2.66,-1.77 -4.17,-1.77"
         style="fill:#38a9af;fill-opacity:1;fill-rule:nonzero;stroke:none"
         id="path260" /><path
         d="m 9736.44,2551.66 c -199.61,16.11 -331.87,196.6 -327,337.27 140.76,0.52 317.06,-137.26 327,-337.27"
         style="fill:#38a9af;fill-opacity:1;fill-rule:nonzero;stroke:none"
         id="path262" /><path
         d="m 9736.43,2545.88 c -1.53,0 -3.04,0.59 -4.16,1.77 l -247,254.74 c -2.21,2.29 -2.16,5.95 0.14,8.19 2.33,2.22 6,2.12 8.18,-0.14 l 247,-254.74 c 2.21,-2.29 2.16,-5.95 -0.14,-8.19 -1.13,-1.08 -2.58,-1.63 -4.02,-1.63"
         style="fill:#79d1d4;fill-opacity:1;fill-rule:nonzero;stroke:none"
         id="path264" /><path
         d="m 9738.75,2325.82 c 209.78,14.05 386.05,195.95 411.85,338.97 -145.4,2.17 -357.74,-135.82 -411.85,-338.97"
         style="fill:#38a9af;fill-opacity:1;fill-rule:nonzero;stroke:none"
         id="path266" /><path
         d="m 9744.14,2324.45 c -1.68,0 -3.33,0.73 -4.48,2.11 -2.04,2.46 -1.67,6.13 0.79,8.17 l 307.05,252.68 c 2.5,2.04 6.1,1.67 8.1,-0.79 2,-2.46 1.7,-6.13 -0.8,-8.16 l -306.98,-252.69 c -1.08,-0.88 -2.39,-1.32 -3.68,-1.32"
         style="fill:#79d1d4;fill-opacity:1;fill-rule:nonzero;stroke:none"
         id="path268" /><path
         d="m 9741.92,2321.57 c -211.93,14.19 -389.99,197.97 -416.06,342.47 146.82,2.19 361.4,-137.21 416.06,-342.47"
         style="fill:#79d1d4;fill-opacity:1;fill-rule:nonzero;stroke:none"
         id="path270" /><path
         d="m 9733.21,2324.45 c -1.29,0 -2.59,0.44 -3.69,1.32 l -306.99,252.69 c -2.47,2.03 -2.83,5.7 -0.79,8.16 2.03,2.46 5.67,2.83 8.16,0.79 l 306.99,-252.68 c 2.48,-2.04 2.84,-5.71 0.81,-8.17 -1.17,-1.38 -2.82,-2.11 -4.49,-2.11"
         style="fill:#38a9af;fill-opacity:1;fill-rule:nonzero;stroke:none"
         id="path272" /><path
         d="m 9739.86,2089.12 c 211.18,-4.65 403.74,161.69 442.34,302.52 -145.2,15.12 -370.08,-104.03 -442.34,-302.52"
         style="fill:#79d1d4;fill-opacity:1;fill-rule:nonzero;stroke:none"
         id="path274" /><path
         d="m 9747.69,2088.67 c -1.83,0 -3.67,0.88 -4.78,2.51 -1.81,2.65 -1.12,6.24 1.49,8.05 l 328.2,224.48 c 2.7,1.81 6.3,1.13 8.1,-1.49 1.8,-2.65 1.1,-6.25 -1.5,-8.05 l -328.23,-224.48 c -1.02,-0.71 -2.15,-1.02 -3.28,-1.02"
         style="fill:#38a9af;fill-opacity:1;fill-rule:nonzero;stroke:none"
         id="path276" /><path
         d="m 9742.01,2082.33 c -214.63,-4.71 -410.36,164.33 -449.57,307.46 147.61,15.38 376.13,-105.72 449.57,-307.46"
         style="fill:#38a9af;fill-opacity:1;fill-rule:nonzero;stroke:none"
         id="path278" /><path
         d="m 9729.66,2088.67 c -1.13,0 -2.27,0.31 -3.28,1.02 l -328.22,224.48 c -2.62,1.8 -3.3,5.4 -1.48,8.05 1.81,2.62 5.38,3.3 8.05,1.49 l 328.21,-224.48 c 2.63,-1.81 3.3,-5.4 1.49,-8.05 -1.1,-1.63 -2.94,-2.51 -4.77,-2.51"
         style="fill:#79d1d4;fill-opacity:1;fill-rule:nonzero;stroke:none"
         id="path280" /><path
         d="m 9743.15,1865.44 c 172.46,-3.79 329.75,132.04 361.25,247.05 -118.62,12.35 -302.24,-84.95 -361.25,-247.05"
         style="fill:#38a9af;fill-opacity:1;fill-rule:nonzero;stroke:none"
         id="path282" /><path
         d="m 9743.14,1859.5 c -1.88,0 -3.74,0.91 -4.89,2.58 -1.82,2.72 -1.15,6.39 1.54,8.24 l 272.91,186.61 c 2.7,1.83 6.3,1.18 8.2,-1.54 1.8,-2.71 1.1,-6.38 -1.5,-8.23 l -272.92,-186.61 c -1.03,-0.71 -2.18,-1.05 -3.34,-1.05"
         style="fill:#79d1d4;fill-opacity:1;fill-rule:nonzero;stroke:none"
         id="path284" /><path
         d="m 9739.79,1857.69 c -176.51,-3.89 -337.47,135.13 -369.71,252.83 121.38,12.64 309.31,-86.95 369.71,-252.83"
         style="fill:#79d1d4;fill-opacity:1;fill-rule:nonzero;stroke:none"
         id="path286" /><path
         d="m 9726.6,1864.84 c -1.12,0 -2.25,0.33 -3.27,1.02 l -267.12,182.68 c -2.63,1.78 -3.3,5.41 -1.49,8.05 1.78,2.6 5.4,3.3 8.05,1.5 l 267.11,-182.68 c 2.63,-1.79 3.31,-5.41 1.5,-8.06 -1.11,-1.63 -2.94,-2.51 -4.78,-2.51"
         style="fill:#38a9af;fill-opacity:1;fill-rule:nonzero;stroke:none"
         id="path288" /><path
         d="m 9729.6,2729.02 c 0.03,4.86 3.97,8.77 8.83,8.77 4.85,0 8.79,-3.91 8.83,-8.76 l 10.05,-1307.53 h -37.28 l 9.57,1307.52"
         style="fill:#79d1d4;fill-opacity:1;fill-rule:nonzero;stroke:none"
         id="path290" /><path
         d="M 9446.28,1170.89 V 654.148 c 0,-100.199 -81.48,-181.687 -181.69,-181.687 h -133.11 c -20.74,0 -37.95,16.949 -37.95,37.961 0,21.008 17.21,37.957 37.95,37.957 h 133.11 c 58.46,0 105.78,47.57 105.78,105.769 v 516.742 c 0,181.18 -147.53,328.96 -328.72,328.96 H 5692.02 c -181.44,0 -328.97,-147.78 -328.97,-328.96 V 654.148 c 0,-58.199 47.58,-105.769 105.77,-105.769 h 133.11 c 21,0 37.96,-16.949 37.96,-37.957 0,-21.012 -16.96,-37.961 -37.96,-37.961 h -133.11 c -100.2,0 -181.69,81.488 -181.69,181.687 v 516.742 c 0,223.18 181.69,404.87 404.89,404.87 h 3349.63 c 223.19,0 404.63,-181.69 404.63,-404.87"
         style="fill:#c91f64;fill-opacity:1;fill-rule:nonzero;stroke:none"
         id="path292" /><path
         d="m 6040.24,1166.76 c -79.92,97.15 -157.46,106.84 -155.03,163.78 -70.26,-169.6 157.54,-174.66 198.3,-227.23 l -43.27,63.45"
         style="fill:#ffffff;fill-opacity:1;fill-rule:nonzero;stroke:none"
         id="path294" /><path
         d="m 6051.17,1179.8 c 7.27,108.33 129.62,165.28 135.68,184.65 23.01,-157.48 -103.13,-195.95 -135.68,-184.65"
         style="fill:#ffffff;fill-opacity:1;fill-rule:nonzero;stroke:none"
         id="path296" /><path
         d="m 8686.03,1166.76 c 79.92,97.15 157.45,106.84 155.02,163.78 70.27,-169.6 -157.54,-174.66 -198.3,-227.23 l 43.28,63.45"
         style="fill:#ffffff;fill-opacity:1;fill-rule:nonzero;stroke:none"
         id="path298" /><path
         d="m 8675.1,1179.8 c -7.28,108.33 -129.63,165.28 -135.69,184.65 -23.01,-157.48 103.13,-195.95 135.69,-184.65"
         style="fill:#ffffff;fill-opacity:1;fill-rule:nonzero;stroke:none"
         id="path300" /><path
         d="M 9077.33,767.77 V 253.07 H 5656.34 v 514.7 h 3420.99"
         style="fill:#ff8fbc;fill-opacity:1;fill-rule:nonzero;stroke:none"
         id="path302" /><path
         d="m 9077.29,767.762 c 78.56,-62.301 124.36,-157.082 124.36,-257.352 0,-100.262 -45.8,-195.039 -124.36,-257.34 v 514.692"
         style="fill:#0f1241;fill-opacity:1;fill-rule:nonzero;stroke:none"
         id="path304" /><path
         d="M 5656.25,767.762 C 5577.68,705.461 5531.88,610.68 5531.88,510.41 c 0,-100.262 45.8,-195.039 124.37,-257.34 v 514.692"
         style="fill:#0f1241;fill-opacity:1;fill-rule:nonzero;stroke:none"
         id="path306" /><path
         d="M 9077.33,767.77 V 253.07 H 5656.34 v 194.09 c 1098.24,480.039 1499.58,-448.91781 2933.87,92.36 187.01,70.609 328.97,147.531 433.98,228.25 h 53.14"
         style="fill:#c91f64;fill-opacity:1;fill-rule:nonzero;stroke:none"
         id="path308" /><path
         d="M 5363.05,1024.11 V 823.699 h -75.92 v 200.411 h 75.92"
         style="fill:#0f1241;fill-opacity:1;fill-rule:nonzero;stroke:none"
         id="path310" /><path
         d="M 9446.28,1024.11 V 823.699 h -75.91 v 200.411 h 75.91"
         style="fill:#0f1241;fill-opacity:1;fill-rule:nonzero;stroke:none"
         id="path312" /><path
         d="m 7665.58,880.422 v 45.187 c 0,8.61 -6.99,15.602 -15.62,15.602 h -573.67 c -8.62,0 -15.61,-6.992 -15.61,-15.602 v -45.187 c 0,-8.621 6.99,-15.621 15.61,-15.621 h 573.67 c 8.63,0 15.62,7 15.62,15.621"
         style="fill:#38a9af;fill-opacity:1;fill-rule:nonzero;stroke:none"
         id="path314" /><path
         d="m 7611.35,767.77 20.68,97.031 h -537.8 l 20.68,-97.031 h 496.44"
         style="fill:#c5ebed;fill-opacity:1;fill-rule:nonzero;stroke:none"
         id="path316" /><path
         d="m 8245.18,880.422 v 45.187 c 0,8.61 -7,15.602 -15.62,15.602 h -416.99 c -8.62,0 -15.62,-6.992 -15.62,-15.602 v -45.187 c 0,-8.621 7,-15.621 15.62,-15.621 h 416.99 c 8.62,0 15.62,7 15.62,15.621"
         style="fill:#38a9af;fill-opacity:1;fill-rule:nonzero;stroke:none"
         id="path318" /><path
         d="m 8204.99,767.77 15.33,97.031 h -398.51 l 15.33,-97.031 h 367.85"
         style="fill:#c5ebed;fill-opacity:1;fill-rule:nonzero;stroke:none"
         id="path320" /><path
         d="m 6481.09,880.422 v 45.187 c 0,8.61 6.99,15.602 15.61,15.602 h 417 c 8.62,0 15.61,-6.992 15.61,-15.602 v -45.187 c 0,-8.621 -6.99,-15.621 -15.61,-15.621 h -417 c -8.62,0 -15.61,7 -15.61,15.621"
         style="fill:#38a9af;fill-opacity:1;fill-rule:nonzero;stroke:none"
         id="path322" /><path
         d="m 6521.27,767.77 -15.33,97.031 h 398.51 l -15.32,-97.031 h -367.86"
         style="fill:#c5ebed;fill-opacity:1;fill-rule:nonzero;stroke:none"
         id="path324" /><path
         d="m 7378.88,1021.1 c -1.55,0 -3.13,0.27 -4.64,0.89 -6.51,2.57 -9.69,9.9 -7.12,16.41 13.38,33.88 -2.73,44.58 -37.46,63.68 -36.51,20.07 -86.49,47.55 -62.26,129.09 18.07,60.74 52.57,86.99 80.27,108.07 36.19,27.53 56.13,42.7 25.04,119.83 -2.61,6.48 0.52,13.84 7,16.46 6.48,2.59 13.84,-0.52 16.47,-7.02 38.31,-95.01 5.18,-120.22 -33.19,-149.41 -26.08,-19.84 -55.62,-42.3 -71.32,-95.14 -18.44,-61.98 13.36,-79.47 50.18,-99.71 31.62,-17.4 70.97,-39.03 48.79,-95.14 -1.96,-4.97 -6.72,-8.01 -11.76,-8.01"
         style="fill:#ffffff;fill-opacity:1;fill-rule:nonzero;stroke:none"
         id="path326" /><path
         d="m 7311.47,1267.58 c 118.29,87.19 183.71,-23.05 270.92,62.96 -36.34,-209.57 -162.66,-38.71 -270.92,-62.96"
         style="fill:#ffffff;fill-opacity:1;fill-rule:nonzero;stroke:none"
         id="path328" /><path
         d="m 7273.49,1248.77 c 29.07,199.28 -201.1,15.14 -221.69,166.57 -105.39,-244.71 219.26,-92.07 221.69,-166.57"
         style="fill:#ffffff;fill-opacity:1;fill-rule:nonzero;stroke:none"
         id="path330" /><path
         d="m 8889.65,880.422 v 45.187 c 0,8.61 -6.99,15.602 -15.62,15.602 h -416.99 c -8.62,0 -15.61,-6.992 -15.61,-15.602 v -45.187 c 0,-8.621 6.99,-15.621 15.61,-15.621 h 416.99 c 8.63,0 15.62,7 15.62,15.621"
         style="fill:#38a9af;fill-opacity:1;fill-rule:nonzero;stroke:none"
         id="path332" /><path
         d="m 8849.46,767.77 15.33,97.031 h -398.51 l 15.33,-97.031 h 367.85"
         style="fill:#c5ebed;fill-opacity:1;fill-rule:nonzero;stroke:none"
         id="path334" /><path
         d="m 5836.62,880.422 v 45.187 c 0,8.61 6.99,15.602 15.61,15.602 h 416.99 c 8.63,0 15.62,-6.992 15.62,-15.602 v -45.187 c 0,-8.621 -6.99,-15.621 -15.62,-15.621 h -416.99 c -8.62,0 -15.61,7 -15.61,15.621"
         style="fill:#38a9af;fill-opacity:1;fill-rule:nonzero;stroke:none"
         id="path336" /><path
         d="m 5876.8,767.77 -15.33,97.031 h 398.52 L 6244.65,767.77 H 5876.8"
         style="fill:#c5ebed;fill-opacity:1;fill-rule:nonzero;stroke:none"
         id="path338" /><path
         d="m 8019.72,1027.16 c -4.95,0 -9.63,2.91 -11.67,7.75 -45.84,109.1 -1.63,170.57 37.37,224.79 37.61,52.23 70.08,97.36 23.79,181.01 -3.38,6.13 -1.17,13.81 4.94,17.2 6.09,3.33 13.83,1.18 17.21,-4.94 54.04,-97.67 13.66,-153.79 -25.38,-208.06 -38.55,-53.57 -74.95,-104.16 -34.6,-200.21 2.7,-6.43 -0.33,-13.84 -6.76,-16.56 -1.61,-0.67 -3.26,-0.98 -4.9,-0.98"
         style="fill:#ffffff;fill-opacity:1;fill-rule:nonzero;stroke:none"
         id="path340" /><path
         d="m 6706.55,1027.16 c 4.94,0 9.63,2.91 11.66,7.75 45.84,109.1 1.63,170.57 -37.38,224.79 -37.59,52.23 -70.06,97.36 -23.78,181.01 3.39,6.13 1.18,13.81 -4.94,17.2 -6.09,3.33 -13.83,1.18 -17.2,-4.94 -54.05,-97.67 -13.67,-153.79 25.38,-208.06 38.54,-53.57 74.95,-104.16 34.6,-200.21 -2.71,-6.43 0.32,-13.84 6.76,-16.56 1.6,-0.67 3.26,-0.98 4.9,-0.98"
         style="fill:#ffffff;fill-opacity:1;fill-rule:nonzero;stroke:none"
         id="path342" /><path
         d="m 8065.98,1244.91 c 111.22,100.17 199.65,31.13 222.67,3.86 -94.49,-80.56 -202.13,-18.63 -222.67,-3.86"
         style="fill:#ffffff;fill-opacity:1;fill-rule:nonzero;stroke:none"
         id="path344" /><path
         d="m 6660.29,1244.91 c -111.23,100.17 -199.66,31.13 -222.68,3.86 94.49,-80.56 202.13,-18.63 222.68,-3.86"
         style="fill:#ffffff;fill-opacity:1;fill-rule:nonzero;stroke:none"
         id="path346" /><path
         d="m 7999.47,1181.64 c -19.73,151.32 -177.66,138 -177.66,138 0,0 42.34,-158.5 177.66,-138"
         style="fill:#ffffff;fill-opacity:1;fill-rule:nonzero;stroke:none"
         id="path348" /><path
         d="m 6726.79,1181.64 c 19.73,151.32 177.66,138 177.66,138 0,0 -42.34,-158.5 -177.66,-138"
         style="fill:#ffffff;fill-opacity:1;fill-rule:nonzero;stroke:none"
         id="path350" /><path
         d="m 8045.42,1259.7 c 32.44,93.85 -76.58,125.35 -76.58,125.35 0,0 3.54,-84.75 76.58,-125.35"
         style="fill:#ffffff;fill-opacity:1;fill-rule:nonzero;stroke:none"
         id="path352" /><path
         d="m 6680.83,1259.7 c -32.43,93.85 76.6,125.35 76.6,125.35 0,0 -3.54,-84.75 -76.6,-125.35"
         style="fill:#ffffff;fill-opacity:1;fill-rule:nonzero;stroke:none"
         id="path354" /><path
         d="m 8665.54,1011.46 c -5.28,0 -10.2,3.32 -11.99,8.58 -26.27,77.32 -2.69,130.35 18.1,177.14 19.74,44.37 35.33,79.44 2.75,126.12 -78.18,112.07 33.5,214.31 34.65,215.31 5.2,4.68 13.18,4.26 17.84,-0.95 4.68,-5.19 4.24,-13.2 -0.93,-17.87 -3.96,-3.56 -96.1,-88.42 -30.79,-182.01 40.74,-58.39 19.83,-105.42 -0.39,-150.89 -19.84,-44.62 -40.37,-90.77 -17.26,-158.7 2.26,-6.62 -1.3,-13.82 -7.91,-16.06 -1.36,-0.44 -2.73,-0.67 -4.07,-0.67"
         style="fill:#ffffff;fill-opacity:1;fill-rule:nonzero;stroke:none"
         id="path356" /><path
         d="m 6060.72,1011.46 c 5.28,0 10.2,3.32 11.99,8.58 26.28,77.32 2.7,130.35 -18.1,177.14 -19.73,44.37 -35.33,79.44 -2.75,126.12 78.18,112.07 -33.51,214.31 -34.65,215.31 -5.19,4.68 -13.18,4.26 -17.84,-0.95 -4.68,-5.19 -4.24,-13.2 0.93,-17.87 3.96,-3.56 96.1,-88.42 30.79,-182.01 -40.73,-58.39 -19.83,-105.42 0.4,-150.89 19.83,-44.62 40.36,-90.77 17.25,-158.7 -2.25,-6.62 1.3,-13.82 7.91,-16.06 1.36,-0.44 2.73,-0.67 4.07,-0.67"
         style="fill:#ffffff;fill-opacity:1;fill-rule:nonzero;stroke:none"
         id="path358" /><path
         d="m 7446.04,1415.34 h -158.55 c -32.04,0 -58.02,25.97 -58.02,58.02 v 442.02 c 0,32.04 25.98,58.02 58.02,58.02 h 158.55 c 32.05,0 58.02,-25.98 58.02,-58.02 v -442.02 c 0,-32.05 -25.97,-58.02 -58.02,-58.02"
         style="fill:#0f1241;fill-opacity:1;fill-rule:nonzero;stroke:none"
         id="path360" /><path
         d="m 7446.04,1454.1 h -158.55 c -5.33,0 -10.09,2.12 -13.61,5.64 -3.53,3.53 -5.65,8.29 -5.65,13.62 v 442.02 c 0,5.32 2.12,10.09 5.65,13.61 3.52,3.53 8.28,5.64 13.61,5.64 h 158.55 c 5.33,0 10.09,-2.11 13.62,-5.64 3.52,-3.52 5.63,-8.29 5.63,-13.61 v -442.02 c 0,-5.33 -2.11,-10.09 -5.63,-13.62 -3.53,-3.52 -8.29,-5.64 -13.62,-5.64"
         style="fill:#79d1d4;fill-opacity:1;fill-rule:nonzero;stroke:none"
         id="path362" /><path
         d="m 7424.91,1807.43 c 0,-32.12 -26.03,-58.14 -58.14,-58.14 -32.12,0 -58.15,26.02 -58.15,58.14 0,32.12 26.03,58.15 58.15,58.15 32.11,0 58.14,-26.03 58.14,-58.15"
         style="fill:#ffffff;fill-opacity:1;fill-rule:nonzero;stroke:none"
         id="path364" /><path
         d="m 7410.37,1679.83 h -87.22 c -7.99,0 -14.53,6.55 -14.53,14.54 v 0 c 0,7.99 6.54,14.54 14.53,14.54 h 87.22 c 8,0 14.54,-6.55 14.54,-14.54 v 0 c 0,-7.99 -6.54,-14.54 -14.54,-14.54"
         style="fill:#0f1241;fill-opacity:1;fill-rule:nonzero;stroke:none"
         id="path366" /><path
         d="m 7410.37,1625.85 h -87.22 c -7.99,0 -14.53,6.55 -14.53,14.54 v 0 c 0,8 6.54,14.54 14.53,14.54 h 87.22 c 8,0 14.54,-6.54 14.54,-14.54 v 0 c 0,-7.99 -6.54,-14.54 -14.54,-14.54"
         style="fill:#0f1241;fill-opacity:1;fill-rule:nonzero;stroke:none"
         id="path368" /><path
         d="m 7410.37,1571.87 h -87.22 c -7.99,0 -14.53,6.55 -14.53,14.55 v 0 c 0,7.99 6.54,14.54 14.53,14.54 h 87.22 c 8,0 14.54,-6.55 14.54,-14.54 v 0 c 0,-8 -6.54,-14.55 -14.54,-14.55"
         style="fill:#0f1241;fill-opacity:1;fill-rule:nonzero;stroke:none"
         id="path370" /><path
         d="m 7410.37,1517.91 h -87.22 c -7.99,0 -14.53,6.53 -14.53,14.53 v 0 c 0,8 6.54,14.54 14.53,14.54 h 87.22 c 8,0 14.54,-6.54 14.54,-14.54 v 0 c 0,-8 -6.54,-14.53 -14.54,-14.53"
         style="fill:#0f1241;fill-opacity:1;fill-rule:nonzero;stroke:none"
         id="path372" /><path
         d="m 8105.67,1415.34 h -158.55 c -32.04,0 -58.02,25.97 -58.02,58.02 v 442.02 c 0,32.04 25.98,58.02 58.02,58.02 h 158.55 c 32.04,0 58.02,-25.98 58.02,-58.02 v -442.02 c 0,-32.05 -25.98,-58.02 -58.02,-58.02"
         style="fill:#0f1241;fill-opacity:1;fill-rule:nonzero;stroke:none"
         id="path374" /><path
         d="m 8105.67,1454.1 h -158.55 c -5.33,0 -10.09,2.12 -13.61,5.64 -3.53,3.53 -5.64,8.29 -5.64,13.62 v 442.02 c 0,5.32 2.11,10.09 5.64,13.61 3.52,3.53 8.28,5.64 13.61,5.64 h 158.55 c 5.33,0 10.09,-2.11 13.62,-5.64 3.52,-3.52 5.63,-8.29 5.63,-13.61 v -442.02 c 0,-5.33 -2.11,-10.09 -5.63,-13.62 -3.53,-3.52 -8.29,-5.64 -13.62,-5.64"
         style="fill:#79d1d4;fill-opacity:1;fill-rule:nonzero;stroke:none"
         id="path376" /><path
         d="m 8084.54,1807.43 c 0,-32.12 -26.03,-58.14 -58.14,-58.14 -32.12,0 -58.15,26.02 -58.15,58.14 0,32.12 26.03,58.15 58.15,58.15 32.11,0 58.14,-26.03 58.14,-58.15"
         style="fill:#ffffff;fill-opacity:1;fill-rule:nonzero;stroke:none"
         id="path378" /><path
         d="m 8070.01,1679.83 h -87.23 c -7.99,0 -14.53,6.55 -14.53,14.54 v 0 c 0,7.99 6.54,14.54 14.53,14.54 h 87.23 c 7.99,0 14.53,-6.55 14.53,-14.54 v 0 c 0,-7.99 -6.54,-14.54 -14.53,-14.54"
         style="fill:#0f1241;fill-opacity:1;fill-rule:nonzero;stroke:none"
         id="path380" /><path
         d="m 8070.01,1625.85 h -87.23 c -7.99,0 -14.53,6.55 -14.53,14.54 v 0 c 0,8 6.54,14.54 14.53,14.54 h 87.23 c 7.99,0 14.53,-6.54 14.53,-14.54 v 0 c 0,-7.99 -6.54,-14.54 -14.53,-14.54"
         style="fill:#0f1241;fill-opacity:1;fill-rule:nonzero;stroke:none"
         id="path382" /><path
         d="m 8070.01,1571.87 h -87.23 c -7.99,0 -14.53,6.55 -14.53,14.55 v 0 c 0,7.99 6.54,14.54 14.53,14.54 h 87.23 c 7.99,0 14.53,-6.55 14.53,-14.54 v 0 c 0,-8 -6.54,-14.55 -14.53,-14.55"
         style="fill:#0f1241;fill-opacity:1;fill-rule:nonzero;stroke:none"
         id="path384" /><path
         d="m 8070.01,1517.91 h -87.23 c -7.99,0 -14.53,6.53 -14.53,14.53 v 0 c 0,8 6.54,14.54 14.53,14.54 h 87.23 c 7.99,0 14.53,-6.54 14.53,-14.54 v 0 c 0,-8 -6.54,-14.53 -14.53,-14.53"
         style="fill:#0f1241;fill-opacity:1;fill-rule:nonzero;stroke:none"
         id="path386" /><path
         d="m 6620.59,1415.34 h 158.56 c 32.04,0 58.01,25.97 58.01,58.02 v 442.02 c 0,32.04 -25.97,58.02 -58.01,58.02 h -158.56 c -32.05,0 -58.02,-25.98 -58.02,-58.02 v -442.02 c 0,-32.05 25.97,-58.02 58.02,-58.02"
         style="fill:#0f1241;fill-opacity:1;fill-rule:nonzero;stroke:none"
         id="path388" /><path
         d="m 6620.59,1454.1 h 158.56 c 5.32,0 10.08,2.12 13.6,5.64 3.53,3.53 5.64,8.29 5.64,13.62 v 442.02 c 0,5.32 -2.11,10.09 -5.64,13.61 -3.52,3.53 -8.28,5.64 -13.6,5.64 h -158.56 c -5.33,0 -10.09,-2.11 -13.61,-5.64 -3.53,-3.52 -5.64,-8.29 -5.64,-13.61 v -442.02 c 0,-5.33 2.11,-10.09 5.64,-13.62 3.52,-3.52 8.28,-5.64 13.61,-5.64"
         style="fill:#79d1d4;fill-opacity:1;fill-rule:nonzero;stroke:none"
         id="path390" /><path
         d="m 6641.72,1807.43 c 0,-32.12 26.03,-58.14 58.15,-58.14 32.11,0 58.14,26.02 58.14,58.14 0,32.12 -26.03,58.15 -58.14,58.15 -32.12,0 -58.15,-26.03 -58.15,-58.15"
         style="fill:#ffffff;fill-opacity:1;fill-rule:nonzero;stroke:none"
         id="path392" /><path
         d="m 6656.25,1679.83 h 87.23 c 7.99,0 14.53,6.55 14.53,14.54 v 0 c 0,7.99 -6.54,14.54 -14.53,14.54 h -87.23 c -7.99,0 -14.53,-6.55 -14.53,-14.54 v 0 c 0,-7.99 6.54,-14.54 14.53,-14.54"
         style="fill:#0f1241;fill-opacity:1;fill-rule:nonzero;stroke:none"
         id="path394" /><path
         d="m 6656.25,1625.85 h 87.23 c 7.99,0 14.53,6.55 14.53,14.54 v 0 c 0,8 -6.54,14.54 -14.53,14.54 h -87.23 c -7.99,0 -14.53,-6.54 -14.53,-14.54 v 0 c 0,-7.99 6.54,-14.54 14.53,-14.54"
         style="fill:#0f1241;fill-opacity:1;fill-rule:nonzero;stroke:none"
         id="path396" /><path
         d="m 6656.25,1571.87 h 87.23 c 7.99,0 14.53,6.55 14.53,14.55 v 0 c 0,7.99 -6.54,14.54 -14.53,14.54 h -87.23 c -7.99,0 -14.53,-6.55 -14.53,-14.54 v 0 c 0,-8 6.54,-14.55 14.53,-14.55"
         style="fill:#0f1241;fill-opacity:1;fill-rule:nonzero;stroke:none"
         id="path398" /><path
         d="m 6656.25,1517.91 h 87.23 c 7.99,0 14.53,6.53 14.53,14.53 v 0 c 0,8 -6.54,14.54 -14.53,14.54 h -87.23 c -7.99,0 -14.53,-6.54 -14.53,-14.54 v 0 c 0,-8 6.54,-14.53 14.53,-14.53"
         style="fill:#0f1241;fill-opacity:1;fill-rule:nonzero;stroke:none"
         id="path400" /><path
         d="m 8765.3,1415.34 h -158.55 c -32.04,0 -58.02,25.97 -58.02,58.02 v 442.02 c 0,32.04 25.98,58.02 58.02,58.02 h 158.55 c 32.04,0 58.02,-25.98 58.02,-58.02 v -442.02 c 0,-32.05 -25.98,-58.02 -58.02,-58.02"
         style="fill:#0f1241;fill-opacity:1;fill-rule:nonzero;stroke:none"
         id="path402" /><path
         d="m 8765.3,1454.1 h -158.55 c -5.33,0 -10.09,2.12 -13.62,5.64 -3.52,3.53 -5.63,8.29 -5.63,13.62 v 442.02 c 0,5.32 2.11,10.09 5.63,13.61 3.53,3.53 8.29,5.64 13.62,5.64 h 158.55 c 5.33,0 10.09,-2.11 13.62,-5.64 3.52,-3.52 5.63,-8.29 5.63,-13.61 v -442.02 c 0,-5.33 -2.11,-10.09 -5.63,-13.62 -3.53,-3.52 -8.29,-5.64 -13.62,-5.64"
         style="fill:#79d1d4;fill-opacity:1;fill-rule:nonzero;stroke:none"
         id="path404" /><path
         d="m 8744.18,1807.43 c 0,-32.12 -26.04,-58.14 -58.15,-58.14 -32.11,0 -58.15,26.02 -58.15,58.14 0,32.12 26.04,58.15 58.15,58.15 32.11,0 58.15,-26.03 58.15,-58.15"
         style="fill:#ffffff;fill-opacity:1;fill-rule:nonzero;stroke:none"
         id="path406" /><path
         d="m 8729.64,1679.83 h -87.23 c -7.99,0 -14.53,6.55 -14.53,14.54 v 0 c 0,7.99 6.54,14.54 14.53,14.54 h 87.23 c 8,0 14.54,-6.55 14.54,-14.54 v 0 c 0,-7.99 -6.54,-14.54 -14.54,-14.54"
         style="fill:#0f1241;fill-opacity:1;fill-rule:nonzero;stroke:none"
         id="path408" /><path
         d="m 8729.64,1625.85 h -87.23 c -7.99,0 -14.53,6.55 -14.53,14.54 v 0 c 0,8 6.54,14.54 14.53,14.54 h 87.23 c 8,0 14.54,-6.54 14.54,-14.54 v 0 c 0,-7.99 -6.54,-14.54 -14.54,-14.54"
         style="fill:#0f1241;fill-opacity:1;fill-rule:nonzero;stroke:none"
         id="path410" /><path
         d="m 8729.64,1571.87 h -87.23 c -7.99,0 -14.53,6.55 -14.53,14.55 v 0 c 0,7.99 6.54,14.54 14.53,14.54 h 87.23 c 8,0 14.54,-6.55 14.54,-14.54 v 0 c 0,-8 -6.54,-14.55 -14.54,-14.55"
         style="fill:#0f1241;fill-opacity:1;fill-rule:nonzero;stroke:none"
         id="path412" /><path
         d="m 8729.64,1517.91 h -87.23 c -7.99,0 -14.53,6.53 -14.53,14.53 v 0 c 0,8 6.54,14.54 14.53,14.54 h 87.23 c 8,0 14.54,-6.54 14.54,-14.54 v 0 c 0,-8 -6.54,-14.53 -14.54,-14.53"
         style="fill:#0f1241;fill-opacity:1;fill-rule:nonzero;stroke:none"
         id="path414" /><path
         d="m 5960.96,1415.34 h 158.55 c 32.04,0 58.02,25.97 58.02,58.02 v 442.02 c 0,32.04 -25.98,58.02 -58.02,58.02 h -158.55 c -32.04,0 -58.02,-25.98 -58.02,-58.02 v -442.02 c 0,-32.05 25.98,-58.02 58.02,-58.02"
         style="fill:#0f1241;fill-opacity:1;fill-rule:nonzero;stroke:none"
         id="path416" /><path
         d="m 5960.96,1454.1 h 158.55 c 5.33,0 10.09,2.12 13.62,5.64 3.52,3.53 5.63,8.29 5.63,13.62 v 442.02 c 0,5.32 -2.11,10.09 -5.63,13.61 -3.53,3.53 -8.29,5.64 -13.62,5.64 h -158.55 c -5.33,0 -10.09,-2.11 -13.61,-5.64 -3.53,-3.52 -5.64,-8.29 -5.64,-13.61 v -442.02 c 0,-5.33 2.11,-10.09 5.64,-13.62 3.52,-3.52 8.28,-5.64 13.61,-5.64"
         style="fill:#79d1d4;fill-opacity:1;fill-rule:nonzero;stroke:none"
         id="path418" /><path
         d="m 5982.09,1807.43 c 0,-32.12 26.04,-58.14 58.15,-58.14 32.11,0 58.14,26.02 58.14,58.14 0,32.12 -26.03,58.15 -58.14,58.15 -32.11,0 -58.15,-26.03 -58.15,-58.15"
         style="fill:#ffffff;fill-opacity:1;fill-rule:nonzero;stroke:none"
         id="path420" /><path
         d="m 5996.63,1679.83 h 87.22 c 7.99,0 14.53,6.55 14.53,14.54 v 0 c 0,7.99 -6.54,14.54 -14.53,14.54 h -87.22 c -8,0 -14.54,-6.55 -14.54,-14.54 v 0 c 0,-7.99 6.54,-14.54 14.54,-14.54"
         style="fill:#0f1241;fill-opacity:1;fill-rule:nonzero;stroke:none"
         id="path422" /><path
         d="m 5996.63,1625.85 h 87.22 c 7.99,0 14.53,6.55 14.53,14.54 v 0 c 0,8 -6.54,14.54 -14.53,14.54 h -87.22 c -8,0 -14.54,-6.54 -14.54,-14.54 v 0 c 0,-7.99 6.54,-14.54 14.54,-14.54"
         style="fill:#0f1241;fill-opacity:1;fill-rule:nonzero;stroke:none"
         id="path424" /><path
         d="m 5996.63,1571.87 h 87.22 c 7.99,0 14.53,6.55 14.53,14.55 v 0 c 0,7.99 -6.54,14.54 -14.53,14.54 h -87.22 c -8,0 -14.54,-6.55 -14.54,-14.54 v 0 c 0,-8 6.54,-14.55 14.54,-14.55"
         style="fill:#0f1241;fill-opacity:1;fill-rule:nonzero;stroke:none"
         id="path426" /><path
         d="m 5996.63,1517.91 h 87.22 c 7.99,0 14.53,6.53 14.53,14.53 v 0 c 0,8 -6.54,14.54 -14.53,14.54 h -87.22 c -8,0 -14.54,-6.54 -14.54,-14.54 v 0 c 0,-8 6.54,-14.53 14.54,-14.53"
         style="fill:#0f1241;fill-opacity:1;fill-rule:nonzero;stroke:none"
         id="path428" /><path
         d="m 7465.29,2081.45 c -1.1,0 -2.21,0.31 -3.2,0.96 -57.93,38.17 -132.77,38.17 -190.64,0 -2.67,-1.79 -6.32,-1.04 -8.08,1.65 -1.79,2.7 -1.05,6.32 1.65,8.09 61.82,40.72 141.7,40.72 203.5,0 2.68,-1.77 3.42,-5.39 1.65,-8.09 -1.12,-1.69 -2.98,-2.61 -4.88,-2.61"
         style="fill:#ffffff;fill-opacity:1;fill-rule:nonzero;stroke:none"
         id="path430" /><path
         d="m 7510.67,2150.32 c -1.11,0 -2.22,0.3 -3.21,0.96 -41.89,27.59 -90.54,42.18 -140.69,42.18 -50.16,0 -98.81,-14.59 -140.7,-42.18 -2.66,-1.76 -6.31,-1.03 -8.08,1.66 -1.78,2.69 -1.02,6.31 1.66,8.08 43.8,28.85 94.67,44.1 147.12,44.1 52.44,0 103.31,-15.25 147.12,-44.1 2.67,-1.77 3.42,-5.39 1.65,-8.08 -1.12,-1.7 -2.98,-2.62 -4.87,-2.62"
         style="fill:#ffffff;fill-opacity:1;fill-rule:nonzero;stroke:none"
         id="path432" /><path
         d="m 7556.04,2219.18 c -1.11,0 -2.22,0.3 -3.22,0.97 -55.37,36.49 -119.7,55.78 -186.05,55.78 -66.35,0 -130.69,-19.29 -186.07,-55.78 -2.66,-1.79 -6.29,-1.07 -8.08,1.65 -1.78,2.69 -1.04,6.31 1.66,8.07 57.29,37.77 123.85,57.72 192.49,57.72 68.64,0 135.19,-19.95 192.49,-57.72 2.68,-1.76 3.43,-5.38 1.65,-8.07 -1.12,-1.7 -2.98,-2.62 -4.87,-2.62"
         style="fill:#ffffff;fill-opacity:1;fill-rule:nonzero;stroke:none"
         id="path434" /><path
         d="m 7601.41,2288.05 c -1.11,0 -2.22,0.31 -3.21,0.96 -68.88,45.38 -148.91,69.38 -231.43,69.38 -82.52,0 -162.55,-24 -231.44,-69.38 -2.67,-1.79 -6.31,-1.06 -8.08,1.66 -1.78,2.69 -1.04,6.31 1.66,8.08 70.8,46.66 153.05,71.31 237.86,71.31 84.8,0 167.06,-24.65 237.86,-71.31 2.68,-1.77 3.43,-5.39 1.65,-8.08 -1.11,-1.69 -2.98,-2.62 -4.87,-2.62"
         style="fill:#ffffff;fill-opacity:1;fill-rule:nonzero;stroke:none"
         id="path436" /><path
         d="m 6518.78,941.211 c 99.33,155.529 289.53,159.449 375.54,0 h -375.54"
         style="fill:#0f1241;fill-opacity:1;fill-rule:nonzero;stroke:none"
         id="path438" /><path
         d="m 5874.3,941.211 c 99.34,155.529 289.53,159.449 375.54,0 H 5874.3"
         style="fill:#0f1241;fill-opacity:1;fill-rule:nonzero;stroke:none"
         id="path440" /><path
         d="m 7597.74,941.211 c 0,108.679 -106.61,121.609 -143.76,71.529 -46.83,69.46 -135.67,58.62 -179.28,-6.45 -71.08,90.45 -158.29,-7.392 -130.83,-65.079 h 453.87"
         style="fill:#0f1241;fill-opacity:1;fill-rule:nonzero;stroke:none"
         id="path442" /><path
         d="m 8207.49,941.211 c -99.34,155.529 -289.53,159.449 -375.55,0 h 375.55"
         style="fill:#0f1241;fill-opacity:1;fill-rule:nonzero;stroke:none"
         id="path444" /><path
         d="m 8851.95,941.211 c -99.32,155.529 -289.52,159.449 -375.53,0 h 375.53"
         style="fill:#0f1241;fill-opacity:1;fill-rule:nonzero;stroke:none"
         id="path446" /><path
         d="m 6083.75,707.871 c 0,-12.711 -10.31,-23.019 -23.02,-23.019 -12.71,0 -23.02,10.308 -23.02,23.019 0,12.719 10.31,23.02 23.02,23.02 12.71,0 23.02,-10.301 23.02,-23.02"
         style="fill:#c91f64;fill-opacity:1;fill-rule:nonzero;stroke:none"
         id="path448" /><path
         d="m 6728.21,707.871 c 0,-12.711 -10.3,-23.019 -23.01,-23.019 -12.71,0 -23.02,10.308 -23.02,23.019 0,12.719 10.31,23.02 23.02,23.02 12.71,0 23.01,-10.301 23.01,-23.02"
         style="fill:#c91f64;fill-opacity:1;fill-rule:nonzero;stroke:none"
         id="path450" /><path
         d="m 7386.15,707.871 c 0,-12.711 -10.31,-23.019 -23.02,-23.019 -12.71,0 -23.01,10.308 -23.01,23.019 0,12.719 10.3,23.02 23.01,23.02 12.71,0 23.02,-10.301 23.02,-23.02"
         style="fill:#c91f64;fill-opacity:1;fill-rule:nonzero;stroke:none"
         id="path452" /><path
         d="m 8044.08,707.871 c 0,-12.711 -10.3,-23.019 -23.02,-23.019 -12.71,0 -23.01,10.308 -23.01,23.019 0,12.719 10.3,23.02 23.01,23.02 12.72,0 23.02,-10.301 23.02,-23.02"
         style="fill:#c91f64;fill-opacity:1;fill-rule:nonzero;stroke:none"
         id="path454" /><path
         d="m 8688.55,707.871 c 0,-12.711 -10.31,-23.019 -23.01,-23.019 -12.72,0 -23.02,10.308 -23.02,23.019 0,12.719 10.3,23.02 23.02,23.02 12.7,0 23.01,-10.301 23.01,-23.02"
         style="fill:#c91f64;fill-opacity:1;fill-rule:nonzero;stroke:none"
         id="path456" /><path
         d="M 7122.01,253.07 H 5906.6 c 353.52,192.321 839.63,205.469 1215.41,0"
         style="fill:#0f1241;fill-opacity:1;fill-rule:nonzero;stroke:none"
         id="path458" /><path
         d="M 9077.33,505.109 V 253.07 h -311.5 c 181.18,54.149 268.99,160.692 311.5,252.039"
         style="fill:#0f1241;fill-opacity:1;fill-rule:nonzero;stroke:none"
         id="path460" /><path
         d="m 5880.2,638.719 c 7.41,-20.559 -22.08,-50.039 -65.9,-65.86 -43.81,-15.82 -85.34,-11.98 -92.77,8.582 -7.42,20.547 22.08,50.039 65.9,65.86 43.81,15.82 85.34,11.98 92.77,-8.582"
         style="fill:#ffffff;fill-opacity:1;fill-rule:nonzero;stroke:none"
         id="path462" /><path
         d="m 5938.91,657.398 c 0,-10.707 -8.68,-19.378 -19.38,-19.378 -10.7,0 -19.38,8.671 -19.38,19.378 0,10.711 8.68,19.383 19.38,19.383 10.7,0 19.38,-8.672 19.38,-19.383"
         style="fill:#ffffff;fill-opacity:1;fill-rule:nonzero;stroke:none"
         id="path464" /><path
         d="m 8500.64,283.879 h -239.45 c -8,0 -14.53,6.543 -14.53,14.543 v 0 c 0,7.988 6.53,14.527 14.53,14.527 h 239.45 c 8,0 14.55,-6.539 14.55,-14.527 v 0 c 0,-8 -6.55,-14.543 -14.55,-14.543"
         style="fill:#ff8fbc;fill-opacity:1;fill-rule:nonzero;stroke:none"
         id="path466" /><path
         d="m 1788.19,3402.11 c -147.61,106 -241.63,31.57 -241.63,31.57 0,0 111.11,-125.81 241.63,-31.57"
         style="fill:#79d1d4;fill-opacity:1;fill-rule:nonzero;stroke:none"
         id="path468" /><path
         d="m 1944.19,3303.75 c -80.31,127.96 -25.47,208.28 29.38,231.78 80.31,-82.27 27.42,-189.35 -29.38,-231.78"
         style="fill:#79d1d4;fill-opacity:1;fill-rule:nonzero;stroke:none"
         id="path470" /><path
         d="m 2230.36,3187.6 c -9.98,122.67 -109.52,174.43 -170.6,179.49 3.91,-92.07 102.24,-157.2 170.6,-179.49"
         style="fill:#79d1d4;fill-opacity:1;fill-rule:nonzero;stroke:none"
         id="path472" /><path
         d="m 2014.56,3264.35 c -182.03,30.25 -202.54,-148 -202.54,-148 0,0 167.14,-3.71 202.54,148"
         style="fill:#79d1d4;fill-opacity:1;fill-rule:nonzero;stroke:none"
         id="path474" /><path
         d="m 2457.51,3227.98 c -6.99,110.84 -140.77,197.8 -227.15,185.1 37.03,-147.86 168.5,-183.16 227.15,-185.1"
         style="fill:#79d1d4;fill-opacity:1;fill-rule:nonzero;stroke:none"
         id="path476" /><path
         d="m 2273.74,3552.73 c -67.07,70.95 -165.2,86.62 -230.73,63.11 48.08,-97.94 186.15,-94.88 230.73,-63.11"
         style="fill:#79d1d4;fill-opacity:1;fill-rule:nonzero;stroke:none"
         id="path478" /><path
         d="m 2367.67,3451.53 c -47.4,121.22 29.32,232.87 102.61,260.29 47.83,-141.03 -43.46,-228.74 -102.61,-260.29"
         style="fill:#79d1d4;fill-opacity:1;fill-rule:nonzero;stroke:none"
         id="path480" /><path
         d="m 2675.95,3535.53 c 18.45,186.09 -114.35,249.57 -114.35,249.57 0,0 -99.98,-126.16 114.35,-249.57"
         style="fill:#79d1d4;fill-opacity:1;fill-rule:nonzero;stroke:none"
         id="path482" /><path
         d="m 2610.67,3227.98 c 23.01,139.1 150.25,170.44 150.25,170.44 0,0 -12.64,-156.75 -150.25,-170.44"
         style="fill:#79d1d4;fill-opacity:1;fill-rule:nonzero;stroke:none"
         id="path484" /><path
         d="m 2677.71,3899.26 c -153.73,131.85 -241.87,57.41 -241.87,57.41 0,0 105.69,-138.34 241.87,-57.41"
         style="fill:#79d1d4;fill-opacity:1;fill-rule:nonzero;stroke:none"
         id="path486" /><path
         d="m 2629.44,3965.77 c -9.47,155.44 41.45,243.58 170.74,251.42 39.17,-135.16 -92.71,-228.59 -170.74,-251.42"
         style="fill:#79d1d4;fill-opacity:1;fill-rule:nonzero;stroke:none"
         id="path488" /><path
         d="m 2345.1,2999.84 c 2.88,0 5.68,1.29 7.56,3.77 208.54,278.11 99.25,381.43 2.84,472.61 -58.9,55.67 -114.57,108.28 -92.67,196.78 1.24,5.06 -1.84,10.18 -6.87,11.41 -5.04,1.28 -10.19,-1.84 -11.43,-6.89 -24.53,-99.18 37.76,-158.08 98.01,-215.03 95.11,-89.93 193.48,-182.93 -4.99,-447.58 -3.12,-4.15 -2.27,-10.06 1.88,-13.2 1.72,-1.26 3.71,-1.87 5.67,-1.87"
         style="fill:#38a9af;fill-opacity:1;fill-rule:nonzero;stroke:none"
         id="path490" /><path
         d="m 2321.57,2999.84 c 4.44,0 8.35,3.11 9.27,7.6 31.68,161.02 -117.68,206.29 -262.16,250.06 -170.86,51.79 -347.56,105.35 -286.46,338.32 1.32,5.04 -1.68,10.22 -6.72,11.54 -5.07,1.16 -10.23,-1.71 -11.51,-6.73 -65.76,-250.57 128.15,-309.34 299.25,-361.17 148.88,-45.13 277.47,-84.09 249.06,-228.38 -1,-5.11 2.31,-10.07 7.43,-11.07 0.64,-0.11 1.24,-0.17 1.84,-0.17"
         style="fill:#38a9af;fill-opacity:1;fill-rule:nonzero;stroke:none"
         id="path492" /><path
         d="m 2642.71,2999.84 c 4.56,0 8.55,3.25 9.31,7.87 14.3,85.57 -2.8,134.86 -19.33,182.52 -25.9,74.56 -50.36,144.98 60.28,357.93 112.05,215.59 8.32,343.89 -75,447.01 -53.14,65.79 -99.09,122.6 -75.96,186.16 1.76,4.9 -0.75,10.3 -5.63,12.08 -4.99,1.66 -10.35,-0.75 -12.1,-5.64 -26.74,-73.57 22.25,-134.23 79.04,-204.47 84.02,-103.98 179.24,-221.81 72.95,-426.43 -114.43,-220.17 -88.71,-294.33 -61.41,-372.83 15.75,-45.43 32.04,-92.4 18.54,-173.22 -0.84,-5.13 2.6,-10.01 7.75,-10.86 0.52,-0.08 1.04,-0.12 1.56,-0.12"
         style="fill:#38a9af;fill-opacity:1;fill-rule:nonzero;stroke:none"
         id="path494" /><path
         d="m 3603.93,2264.94 c 263.78,-117.53 438.77,-94.02 438.77,-94.02 l 23.5,-73.14 -577.19,-172.36 114.92,339.52"
         style="fill:#79d1d4;fill-opacity:1;fill-rule:nonzero;stroke:none"
         id="path496" /><path
         d="m 3188.65,781.648 c 57.69,-177.168 165.71,-528.238 220.54,-901.398 -76.51,-304.012 15.14,-581.43 91.24,-945.59 8.6,-40.09 16.78,-81.42 24.56,-123.57 4.5,-24.14 8.99,-48.69 13.09,-73.65 10.23,-60.97 19.23,-124.79 26.59,-191.48 h 130.53 c 2.04,54.82 4.09,108.42 6.13,160.8 1.23,35.18 2.87,69.96 4.1,104.33 9,210.32 18.41,404.672 27.82,584.289 51.96,989.793 97.38,1529.473 -11.86,1792.171 -27.83,67.1 -65.88,116.2 -116.21,150.16 l -538.06,69.15 -14.31,1.64 c 0,0 -20.87,-146.49 135.84,-626.852"
         style="fill:#c91f64;fill-opacity:1;fill-rule:nonzero;stroke:none"
         id="path498" /><path
         d="m 2201.32,-1130.4 104.75,-94.1 35.18,38.87 126.04,141.16 329.79,367.849 277.41,308.91 c 61.78,69.16 103.52,153.031 121.53,243.871 55.64,282.742 175.53,932.488 198.03,1369.07 2.86,52.39 4.09,101.89 3.68,147.31 l -427.17,-54.83 c -90.43,-103.11 -149.75,-202.54 -186.58,-299.52 -0.41,-0.4 -0.82,-0.4 -0.41,-0.82 -146.07,-385.839 64.65,-735.268 102.29,-1144.03 -340.84,-207.039 -382.57,-397.711 -526.19,-715.219 -13.09,-29.062 -27,-58.922 -42.14,-90.012 -26.6,-55.25 -56.47,-113.749 -92.47,-176.769 -7.37,-13.5 -15.55,-27.41 -23.74,-41.74"
         style="fill:#0f1241;fill-opacity:1;fill-rule:nonzero;stroke:none"
         id="path500" /><path
         d="m 3067.12,1406.86 326.93,-161.63 c 114.16,81.02 236.09,21.69 327.34,-57.68 -27.83,67.1 -65.88,116.2 -116.21,150.16 l -538.06,69.15"
         style="fill:#0f1241;fill-opacity:1;fill-rule:nonzero;stroke:none"
         id="path502" /><path
         d="m 2783.98,1038.19 c 174.72,212.37 467.27,278.65 610.07,207.04 2.86,52.39 4.09,101.89 3.68,147.31 l -427.17,-54.83 c -90.43,-103.11 -149.75,-202.54 -186.58,-299.52"
         style="fill:#38a9af;fill-opacity:1;fill-rule:nonzero;stroke:none"
         id="path504" /><path
         d="m 4080.57,2041.63 c 154.95,2.64 291.2,58.77 374.77,118.84 41.32,29.7 45.55,97.16 31.34,143.64 -43.09,141.04 -315.85,-89.29 -315.85,-89.29 0,0 92.07,163.23 66.44,202.9 -32.45,50.23 -191.96,-258.56 -191.96,-258.56 l 35.26,-117.53"
         style="fill:#ffbdc2;fill-opacity:1;fill-rule:nonzero;stroke:none"
         id="path506" /><path
         d="m 3632.06,4027.07 c 154.82,-9.87 430.33,-380.02 72.3,-590.51 -209.76,-74.87 -298.78,376.4 -72.3,590.51"
         style="fill:#38a9af;fill-opacity:1;fill-rule:nonzero;stroke:none"
         id="path508" /><path
         d="m 3727.7,3797.06 c 23.93,-352.42 -25.06,-714.86 -230.09,-644.42 0,0 -71.66,-107.53 -85.18,-238.59 0,0 -52.35,-14.58 -159.88,57.08 -107.52,71.67 -205.25,566.91 -32.56,724.34 172.68,157.42 431.98,231.23 431.98,231.23 l 75.73,-129.64"
         style="fill:#ffbdc2;fill-opacity:1;fill-rule:nonzero;stroke:none"
         id="path510" /><path
         d="m 3219.46,2940.23 c 98.18,-20.72 147.91,60.16 163.95,163.48 21.09,134.54 -15.26,306.53 -77.13,336.44 -108.89,52.77 16.71,287.73 68.51,191.9 51.68,-96.22 274.53,-23.28 353.07,165.04 112.82,176.07 -179.43,266.52 -179.43,266.52 -122.81,36.9 -209.76,31.88 -275.57,-1.54 -197.14,-99.49 -200.14,-454.68 -386.31,-702.33 -248.23,-330.2 106.16,-370.7 332.91,-419.51"
         style="fill:#79d1d4;fill-opacity:1;fill-rule:nonzero;stroke:none"
         id="path512" /><path
         d="m 3643.57,3534.1 c -3.27,-34.48 -14.68,-61.6 -25.49,-60.57 -10.79,1.03 -16.9,29.81 -13.63,64.29 3.28,34.48 14.7,61.59 25.49,60.57 10.81,-1.03 16.92,-29.81 13.63,-64.29"
         style="fill:#000000;fill-opacity:1;fill-rule:nonzero;stroke:none"
         id="path514" /><path
         d="m 3161.58,2884.13 c 98.18,-20.72 205.79,116.26 221.83,219.58 -200.79,-33.02 -464.43,155.82 -280.13,437.15 175.5,268.85 3.41,332.03 169.58,521.21 -197.14,-99.49 -200.14,-454.68 -386.31,-702.33 -248.23,-330.2 48.28,-426.81 275.03,-475.61"
         style="fill:#38a9af;fill-opacity:1;fill-rule:nonzero;stroke:none"
         id="path516" /><path
         d="m 2956.24,1431.82 c 8.59,-59.33 14.32,-94.11 14.32,-94.11 h 634.62 c 0,0 -4.09,35.6 -7.78,94.11 -13.09,197.62 -24.13,655.89 133.39,861.71 203.36,266.36 -121.52,583.88 -333.06,736.49 -663.67,279.06 -496.72,-1204.17 -441.49,-1598.2"
         style="fill:#0f1241;fill-opacity:1;fill-rule:nonzero;stroke:none"
         id="path518" /><path
         d="m 2956.24,1431.82 c 8.59,-59.33 14.32,-94.11 14.32,-94.11 h 634.62 c 0,0 -4.09,35.6 -7.78,94.11 h -641.16"
         style="fill:#c91f64;fill-opacity:1;fill-rule:nonzero;stroke:none"
         id="path520" /><path
         d="m 4179.12,2163.2 c -21.09,13.08 -28.8,40.02 -17.81,62.27 l 199.45,403.94 c 19.64,39 66.45,55.69 106.33,37.92 l 105.66,-47.1 c 46,-20.5 62.72,-77.31 35.16,-119.45 l -272.53,-434.38 -156.26,96.8"
         style="fill:#0f1241;fill-opacity:1;fill-rule:nonzero;stroke:none"
         id="path522" /><path
         d="m 4404.33,2607.47 c 3.97,7.88 10.61,13.46 18.39,16.24 7.78,2.77 16.46,2.65 24.52,-0.94 l 105.66,-47.1 c 4.66,-2.07 8.44,-4.96 11.39,-8.34 3.14,-3.58 5.47,-7.85 6.83,-12.48 1.37,-4.63 1.72,-9.48 1.02,-14.19 -0.66,-4.43 -2.26,-8.9 -5.55,-13.96 l -246.75,-393.29 -114.55,70.97 c 0,0 199.21,403.43 199.04,403.09"
         style="fill:#c91f64;fill-opacity:1;fill-rule:nonzero;stroke:none"
         id="path524" /><path
         d="m 4657.71,2678.71 c 0.99,0 1.99,0.17 2.99,0.48 4.92,1.66 7.6,7 5.95,11.95 -21.78,65.17 -92.29,103.99 -160.7,88.03 -5.08,-1.18 -8.24,-6.25 -7.08,-11.33 1.16,-5.03 6.12,-8.19 11.31,-7.05 58.85,13.68 119.83,-19.51 138.57,-75.64 1.32,-3.93 5,-6.44 8.96,-6.44"
         style="fill:#ff8fbc;fill-opacity:1;fill-rule:nonzero;stroke:none"
         id="path526" /><path
         d="m 4756.36,2711.66 c 1,0 2,0.16 3,0.48 4.91,1.66 7.59,6.99 5.95,11.94 -18.66,55.89 -57.54,102.66 -109.45,131.71 -52.86,29.61 -114.6,38.38 -173.41,24.69 -5.08,-1.17 -8.23,-6.25 -7.07,-11.33 1.15,-5.05 6.07,-8.13 11.3,-7.05 54.39,12.65 111.21,4.54 159.99,-22.78 47.8,-26.75 83.55,-69.78 100.74,-121.23 1.32,-3.93 4.99,-6.43 8.95,-6.43"
         style="fill:#ff8fbc;fill-opacity:1;fill-rule:nonzero;stroke:none"
         id="path528" /><path
         d="m 4854.98,2744.62 c 0.99,0 1.99,0.16 2.99,0.48 4.92,1.66 7.6,6.99 5.96,11.95 -26.9,80.47 -82.75,147.78 -157.24,189.48 -75.56,42.28 -163.63,54.74 -247.73,35.27 -5.08,-1.18 -8.24,-6.26 -7.08,-11.34 1.16,-5.03 6.07,-8.23 11.31,-7.04 79.6,18.41 162.83,6.58 234.31,-33.35 70.37,-39.4 123.11,-102.98 148.53,-179.02 1.31,-3.93 4.99,-6.43 8.95,-6.43"
         style="fill:#ff8fbc;fill-opacity:1;fill-rule:nonzero;stroke:none"
         id="path530" /><path
         d="m 4953.63,2777.57 c 1,0 2,0.16 3,0.48 4.91,1.66 7.59,6.99 5.95,11.95 -35.12,105.08 -107.97,192.92 -205.1,247.28 -98.13,54.96 -212.46,71.22 -322.03,45.81 -5.07,-1.19 -8.22,-6.25 -7.06,-11.33 1.16,-5.06 6.07,-8.17 11.3,-7.06 105.02,24.38 214.5,8.8 308.6,-43.89 93.02,-52.06 162.75,-136.17 196.39,-236.81 1.32,-3.93 4.99,-6.43 8.95,-6.43"
         style="fill:#ff8fbc;fill-opacity:1;fill-rule:nonzero;stroke:none"
         id="path532" /><path
         d="m 3230.42,2046.42 c 13.9,0 27.45,7.08 35.12,19.86 194.7,324.56 251.25,588.98 -36.09,980.27 -13.31,18.22 -38.92,22.17 -57.17,8.76 -18.23,-13.38 -22.14,-38.98 -8.75,-57.19 261.68,-356.41 213.09,-587.66 31.84,-889.72 -11.63,-19.39 -5.35,-44.51 14.02,-56.14 6.6,-3.96 13.87,-5.84 21.03,-5.84"
         style="fill:#c91f64;fill-opacity:1;fill-rule:nonzero;stroke:none"
         id="path534" /><path
         d="m 2602.34,1523.21 v 0 c -212.76,0 -385.23,172.47 -385.23,385.23 v 946.75 h 770.45 v -946.75 c 0,-212.76 -172.47,-385.23 -385.22,-385.23"
         style="fill:#c91f64;fill-opacity:1;fill-rule:nonzero;stroke:none"
         id="path536" /><path
         d="M 3028.48,3009.27 H 2176.2 l 40.91,-154.08 h 770.45 l 40.92,154.08"
         style="fill:#ff8fbc;fill-opacity:1;fill-rule:nonzero;stroke:none"
         id="path538" /><path
         d="m 2379.06,2258.36 c 0,-121.9 98.82,-220.7 220.71,-220.7 121.9,0 220.71,98.8 220.71,220.7 0,121.9 -98.81,220.71 -220.71,220.71 -121.89,0 -220.71,-98.81 -220.71,-220.71"
         style="fill:#ff8fbc;fill-opacity:1;fill-rule:nonzero;stroke:none"
         id="path540" /><path
         d="m 2533.13,2311.95 c 0,-25.96 21.04,-47.01 47.01,-47.01 25.96,0 47.01,21.05 47.01,47.01 0,25.96 -21.05,47.01 -47.01,47.01 -25.97,0 -47.01,-21.05 -47.01,-47.01"
         style="fill:#ffffff;fill-opacity:1;fill-rule:nonzero;stroke:none"
         id="path542" /><path
         d="m 2561.6,2475.55 c -28.47,144.58 -106.78,173.31 -182.54,170.7 0,0 -10.19,-110.95 182.54,-170.7"
         style="fill:#ff8fbc;fill-opacity:1;fill-rule:nonzero;stroke:none"
         id="path544" /><path
         d="m 2561.6,2475.55 c 0.58,104.59 30.94,172.17 68.65,197.63 35.26,-70.52 -9.49,-156.77 -68.65,-197.63"
         style="fill:#ff8fbc;fill-opacity:1;fill-rule:nonzero;stroke:none"
         id="path546" /><path
         d="m 3264.15,1949.15 c 39.43,575.65 -85.93,1073.18 -289.64,1030.09 -203.72,-43.09 -168.46,-771.76 227.22,-1284.96 622.88,121.44 975.47,321.24 975.47,321.24 l -35.26,117.53 c 0,0 -686.1,-85.74 -877.79,-183.9"
         style="fill:#38a9af;fill-opacity:1;fill-rule:nonzero;stroke:none"
         id="path548" /><path
         d="m 4177.2,2015.52 c 154.95,2.62 291.2,58.77 374.78,118.84 41.31,29.69 45.54,97.15 31.34,143.63 -43.1,141.04 -323.85,-86.18 -323.85,-86.18 0,0 117.29,158.08 74.43,199.8 -32.65,31.77 -180.86,-208.96 -191.96,-258.56 l 35.26,-117.53"
         style="fill:#ffbdc2;fill-opacity:1;fill-rule:nonzero;stroke:none"
         id="path550" /><path
         d="m 2246.1,3643.01 c -42.07,211.68 97.67,245.04 97.67,245.04 0,0 57.43,-118.76 -97.67,-245.04"
         style="fill:#79d1d4;fill-opacity:1;fill-rule:nonzero;stroke:none"
         id="path552" /><path
         d="m 1765.29,3572.1 c -55.09,162.58 109.45,211.55 109.45,211.55 0,0 41.62,-137.12 -109.45,-211.55"
         style="fill:#79d1d4;fill-opacity:1;fill-rule:nonzero;stroke:none"
         id="path554" /><path
         d="m 2529.21,4162.34 c -93.37,141.04 77.54,199.8 77.54,199.8 0,0 74.59,-90.11 -77.54,-199.8"
         style="fill:#79d1d4;fill-opacity:1;fill-rule:nonzero;stroke:none"
         id="path556" /><path
         d="m 3133.83,1828.89 c 0.72,0 1.44,0.14 2.12,0.47 2.59,1.17 3.72,4.2 2.52,6.78 -238.79,521.65 -234.11,975.28 -138.98,1102.16 1.72,2.28 1.25,5.47 -0.99,7.17 -2.28,1.64 -5.48,1.26 -7.16,-1.02 -96.7,-128.94 -102.6,-587.32 137.85,-1112.58 0.85,-1.88 2.72,-2.98 4.64,-2.98"
         style="fill:#0f1241;fill-opacity:1;fill-rule:nonzero;stroke:none"
         id="path558" /><path
         d="m 9384.32,3817.29 c -1.09,0 -2.18,-0.02 -3.28,-0.04 -13.06,86.99 -88.31,153.92 -178.88,153.92 -16.47,0 -32.66,-2.21 -48.24,-6.52 -40.72,63.41 -111.35,103.27 -189.33,103.27 -53.86,0 -103.23,-19.15 -142.02,-50.79 -38.01,122.44 -152.27,211.64 -287.03,211.64 -159,0 -289.54,-124.09 -299.9,-280.51 -9.99,1.35 -20.1,2.04 -30.27,2.04 -125.43,0 -227.48,-102.05 -227.48,-227.47 0,-125.43 102.05,-227.47 227.48,-227.47 h 1178.95 c 88.76,0 160.96,72.2 160.96,160.96 0,88.75 -72.2,160.97 -160.96,160.97"
         style="fill:#ffffff;fill-opacity:1;fill-rule:nonzero;stroke:none"
         id="path560" /><path
         d="m 7917.78,3017.82 c 0,-136.02 -110.27,-246.29 -246.3,-246.29 -136.01,0 -246.28,110.27 -246.28,246.29 0,136.02 110.27,246.29 246.28,246.29 136.03,0 246.3,-110.27 246.3,-246.29"
         style="fill:#38a9af;fill-opacity:1;fill-rule:nonzero;stroke:none"
         id="path562" /><path
         d="m 7671.44,2910.07 c -66.53,0 -78.54,51.5 -63.3,106.95 10.63,39.95 35.12,81.76 63.3,108.56 28.18,-26.8 52.9,-68.84 63.52,-108.8 15.01,-55.44 3.01,-106.71 -63.52,-106.71"
         style="fill:#ffffff;fill-opacity:1;fill-rule:nonzero;stroke:none"
         id="path564" /><path
         d="m 5497.98,3793.36 c 0,-227.49 -184.41,-411.9 -411.9,-411.9 -227.49,0 -411.9,184.41 -411.9,411.9 0,227.48 184.41,411.9 411.9,411.9 227.49,0 411.9,-184.42 411.9,-411.9"
         style="fill:#79d1d4;fill-opacity:1;fill-rule:nonzero;stroke:none"
         id="path566" /><path
         d="m 5168.81,3793.36 c 0,-45.69 -37.04,-82.73 -82.73,-82.73 -45.69,0 -82.73,37.04 -82.73,82.73 0,45.68 37.04,82.73 82.73,82.73 45.69,0 82.73,-37.05 82.73,-82.73"
         style="fill:#ffffff;fill-opacity:1;fill-rule:nonzero;stroke:none"
         id="path568" /><path
         d="m 5086.08,3906.05 v 0 c -8.66,0 -15.73,7.09 -15.73,15.74 v 70.14 c 0,8.66 7.07,15.74 15.73,15.74 v 0 c 8.66,0 15.74,-7.08 15.74,-15.74 v -70.14 c 0,-8.65 -7.08,-15.74 -15.74,-15.74"
         style="fill:#ffffff;fill-opacity:1;fill-rule:nonzero;stroke:none"
         id="path570" /><path
         d="m 5086.08,3579.04 v 0 c -8.66,0 -15.73,7.09 -15.73,15.73 v 70.15 c 0,8.65 7.07,15.73 15.73,15.73 v 0 c 8.66,0 15.74,-7.08 15.74,-15.73 v -70.15 c 0,-8.64 -7.08,-15.73 -15.74,-15.73"
         style="fill:#ffffff;fill-opacity:1;fill-rule:nonzero;stroke:none"
         id="path572" /><path
         d="m 5198.78,3793.36 v 0 c 0,8.65 7.08,15.73 15.74,15.73 h 70.14 c 8.66,0 15.74,-7.08 15.74,-15.73 v 0 c 0,-8.66 -7.08,-15.74 -15.74,-15.74 h -70.14 c -8.66,0 -15.74,7.08 -15.74,15.74"
         style="fill:#ffffff;fill-opacity:1;fill-rule:nonzero;stroke:none"
         id="path574" /><path
         d="m 4871.77,3793.36 v 0 c 0,8.65 7.08,15.73 15.73,15.73 h 70.15 c 8.65,0 15.73,-7.08 15.73,-15.73 v 0 c 0,-8.66 -7.08,-15.74 -15.73,-15.74 h -70.15 c -8.65,0 -15.73,7.08 -15.73,15.74"
         style="fill:#ffffff;fill-opacity:1;fill-rule:nonzero;stroke:none"
         id="path576" /><path
         d="m 5165.77,3873.05 v 0 c -6.12,6.12 -6.12,16.13 0,22.25 l 49.6,49.6 c 6.12,6.12 16.13,6.12 22.26,0 v 0 c 6.12,-6.12 6.12,-16.13 0,-22.26 l -49.6,-49.59 c -6.13,-6.12 -16.14,-6.12 -22.26,0"
         style="fill:#ffffff;fill-opacity:1;fill-rule:nonzero;stroke:none"
         id="path578" /><path
         d="m 4934.54,3641.81 v 0 c -6.12,6.12 -6.12,16.14 0,22.26 l 49.6,49.6 c 6.11,6.11 16.13,6.11 22.25,0 v 0 c 6.12,-6.13 6.12,-16.14 0,-22.26 l -49.6,-49.6 c -6.12,-6.12 -16.13,-6.12 -22.25,0"
         style="fill:#ffffff;fill-opacity:1;fill-rule:nonzero;stroke:none"
         id="path580" /><path
         d="m 5165.77,3713.67 v 0 c 6.12,6.11 16.13,6.11 22.26,0 l 49.6,-49.6 c 6.12,-6.12 6.12,-16.14 0,-22.26 v 0 c -6.13,-6.12 -16.14,-6.12 -22.26,0 l -49.6,49.6 c -6.12,6.12 -6.12,16.13 0,22.26"
         style="fill:#ffffff;fill-opacity:1;fill-rule:nonzero;stroke:none"
         id="path582" /><path
         d="m 4934.54,3944.9 v 0 c 6.12,6.12 16.13,6.12 22.25,0 l 49.6,-49.6 c 6.12,-6.12 6.12,-16.14 0,-22.25 v 0 c -6.12,-6.12 -16.14,-6.12 -22.25,0 l -49.6,49.59 c -6.12,6.13 -6.12,16.14 0,22.26"
         style="fill:#ffffff;fill-opacity:1;fill-rule:nonzero;stroke:none"
         id="path584" /><path
         d="m 6446.62,3153.45 c 0,-208.19 -168.77,-376.97 -376.96,-376.97 -208.19,0 -376.96,168.78 -376.96,376.97 0,208.19 168.77,376.96 376.96,376.96 208.19,0 376.96,-168.77 376.96,-376.96"
         style="fill:#c91f64;fill-opacity:1;fill-rule:nonzero;stroke:none"
         id="path586" /><path
         d="m 6141.18,3153.45 c -27.82,0 -51.78,18.47 -73.23,34.98 -21.37,16.5 -41.49,32.07 -61.75,29.25 -16.14,-2.28 -34.01,-16.53 -53.08,-42.36 -6.38,-8.71 -18.7,-10.54 -27.33,-4.12 -8.71,6.4 -10.53,18.64 -4.12,27.32 25.91,35.09 51.79,54.02 79.11,57.85 36.07,5.1 65.38,-17.25 91.02,-36.98 19.46,-15 37.56,-29.11 53.39,-26.52 12.22,2.1 25.8,14.56 40.34,37.05 5.92,9.09 18.05,11.59 27.02,5.79 9.08,-5.88 11.64,-17.98 5.8,-27.04 -21.03,-32.46 -42.82,-50.22 -66.56,-54.3 -3.62,-0.63 -7.13,-0.92 -10.61,-0.92"
         style="fill:#ffffff;fill-opacity:1;fill-rule:nonzero;stroke:none"
         id="path588" /><path
         d="m 6141.18,3049.78 c -27.82,0 -51.78,18.48 -73.23,34.98 -21.37,16.5 -41.49,32.08 -61.75,29.25 -16.14,-2.26 -34.01,-16.52 -53.08,-42.35 -6.38,-8.71 -18.7,-10.54 -27.33,-4.13 -8.71,6.41 -10.53,18.64 -4.12,27.32 25.91,35.1 51.79,54.03 79.11,57.86 36.07,5.1 65.38,-17.25 91.02,-36.97 19.46,-15.01 37.56,-29.12 53.39,-26.53 12.22,2.09 25.8,14.56 40.34,37.05 5.92,9.09 18.05,11.59 27.02,5.78 9.08,-5.87 11.64,-17.97 5.8,-27.03 -21.03,-32.46 -42.82,-50.22 -66.56,-54.31 -3.62,-0.63 -7.13,-0.92 -10.61,-0.92"
         style="fill:#ffffff;fill-opacity:1;fill-rule:nonzero;stroke:none"
         id="path590" /><path
         d="m 7294.22,3745.1 c 0,-187.42 -151.93,-339.36 -339.36,-339.36 -187.42,0 -339.35,151.94 -339.35,339.36 0,187.42 151.93,339.35 339.35,339.35 187.43,0 339.36,-151.93 339.36,-339.35"
         style="fill:#38a9af;fill-opacity:1;fill-rule:nonzero;stroke:none"
         id="path592" /><path
         d="m 6954.86,3818.06 c 0,0 23.61,36.52 70.28,36.52 41.6,0 70.27,-37.49 70.27,-81.16 0,-50.54 -39.08,-110.34 -140.55,-162.31 -101.46,51.97 -140.54,111.77 -140.54,162.31 0,43.67 28.67,81.16 70.27,81.16 46.66,0 70.27,-36.52 70.27,-36.52"
         style="fill:#ffffff;fill-opacity:1;fill-rule:nonzero;stroke:none"
         id="path594" /><path
         d="m 8000.51,2709.49 c 0,-49.49 -40.13,-89.62 -89.62,-89.62 -49.49,0 -89.62,40.13 -89.62,89.62 0,49.49 40.13,89.62 89.62,89.62 49.49,0 89.62,-40.13 89.62,-89.62"
         style="fill:#38a9af;fill-opacity:1;fill-rule:nonzero;stroke:none"
         id="path596" /><path
         d="m 8013.14,2518.76 c 0,-17.13 -13.89,-31.02 -31.02,-31.02 -17.13,0 -31.03,13.89 -31.03,31.02 0,17.14 13.9,31.03 31.03,31.03 17.13,0 31.02,-13.89 31.02,-31.03"
         style="fill:#38a9af;fill-opacity:1;fill-rule:nonzero;stroke:none"
         id="path598" /><path
         d="m 6521.83,3617.72 c 0,-56.16 -45.53,-101.68 -101.68,-101.68 -56.17,0 -101.69,45.52 -101.69,101.68 0,56.16 45.52,101.68 101.69,101.68 56.15,0 101.68,-45.52 101.68,-101.68"
         style="fill:#c91f64;fill-opacity:1;fill-rule:nonzero;stroke:none"
         id="path600" /><path
         d="m 7590.33,3505.7 c 0,-68.53 -55.55,-124.09 -124.08,-124.09 -68.54,0 -124.08,55.56 -124.08,124.09 0,68.53 55.54,124.09 124.08,124.09 68.53,0 124.08,-55.56 124.08,-124.09"
         style="fill:#38a9af;fill-opacity:1;fill-rule:nonzero;stroke:none"
         id="path602" /><path
         d="m 7445.57,3259.25 c 0,-18.08 -14.66,-32.74 -32.75,-32.74 -18.08,0 -32.74,14.66 -32.74,32.74 0,18.09 14.66,32.75 32.74,32.75 18.09,0 32.75,-14.66 32.75,-32.75"
         style="fill:#38a9af;fill-opacity:1;fill-rule:nonzero;stroke:none"
         id="path604" /><path
         d="m 5826.72,3626.34 c 0,-73.61 -59.67,-133.28 -133.28,-133.28 -73.6,0 -133.27,59.67 -133.27,133.28 0,73.6 59.67,133.27 133.27,133.27 73.61,0 133.28,-59.67 133.28,-133.27"
         style="fill:#79d1d4;fill-opacity:1;fill-rule:nonzero;stroke:none"
         id="path606" /><path
         d="m 5711.83,3382.76 c 0,25.38 -20.58,45.96 -45.96,45.96 -25.38,0 -45.96,-20.58 -45.96,-45.96 0,-25.38 20.58,-45.95 45.96,-45.95 25.38,0 45.96,20.57 45.96,45.95"
         style="fill:#79d1d4;fill-opacity:1;fill-rule:nonzero;stroke:none"
         id="path608" /><path
         d="m 5555.57,3897.48 c 0,-20.3 16.46,-36.76 36.77,-36.76 20.3,0 36.76,16.46 36.76,36.76 0,20.31 -16.46,36.77 -36.76,36.77 -20.31,0 -36.77,-16.46 -36.77,-36.77"
         style="fill:#79d1d4;fill-opacity:1;fill-rule:nonzero;stroke:none"
         id="path610" /></g></g></svg>
