<?xml version="1.0" encoding="utf-8"?>
<svg viewBox="-0.44 -0.527 1320 600" xmlns="http://www.w3.org/2000/svg">
  <defs>
    <linearGradient gradientUnits="userSpaceOnUse" x1="437.426" y1="409.091" x2="437.426" y2="421.639" id="gradient-1" gradientTransform="matrix(-0.015163, 0.999885, -10.962778, -0.166253, 4999.808163, 51.435167)">
      <stop offset="0" style="stop-color: rgb(0, 213, 128);"/>
      <stop offset="1" style="stop-color: rgb(0, 148, 248);"/>
    </linearGradient>
    <linearGradient gradientUnits="userSpaceOnUse" x1="468.639" y1="202.422" x2="468.639" y2="374.097" id="gradient-0" gradientTransform="matrix(0.913923, 0.40589, -0.3154, 0.710173, 122.476213, -75.206574)">
      <stop offset="0" style="stop-color: rgb(0, 213, 128);"/>
      <stop offset="1" style="stop-color: rgb(0, 148, 248);"/>
    </linearGradient>
  </defs>
  <path d="M 1319.996 600 L 0 600 L 0 0.002 L 1319.996 0.002 L 1319.996 600" style="fill-opacity: 1; fill-rule: nonzero; stroke: none; fill: rgb(234, 248, 254);" id="path12"/>
  <path d="M 140.32 57.361 C 158.325 57.361 172.973 72.009 172.973 90.013 C 172.973 90.863 172.941 91.709 172.876 92.551 C 181.284 95.307 187.374 103.229 187.374 112.548 C 187.374 124.149 177.937 133.585 166.334 133.585 L 56.075 133.585 C 46.264 133.585 38.282 125.604 38.282 115.793 C 38.282 106.793 45 99.332 53.684 98.161 C 55.95 86.784 66.013 78.184 78.046 78.184 C 82.099 78.184 86.034 79.183 89.538 81.016 C 93.63 76.653 99.436 73.973 105.734 73.973 C 107.719 73.973 109.659 74.229 111.52 74.729 C 117.075 64.353 128.072 57.361 140.32 57.361" style="fill:#ffffff;fill-opacity:1;fill-rule:nonzero;stroke:none" id="path14"/>
  <path d="M 1319.996 600 L 0 600 L 0 250.684 C 617.576 130.679 1040.692 170.812 1319.996 229.197 L 1319.996 600" style="fill-opacity: 1; fill-rule: nonzero; stroke: none; fill: rgb(213, 243, 244);" id="path16"/>
  <path d="M 1319.996 600 L 0 600 L 0 355.467 C 338.768 378.446 811.208 146.821 1319.996 340.069 L 1319.996 600" style="fill:#c5ebed;fill-opacity:1;fill-rule:nonzero;stroke:none" id="path18"/>
  <path d="M 767.634 378.865 L 764.139 378.865 L 764.231 373.205 L 764.47 357.911 L 764.55 352.73 L 764.921 329.291 L 765.057 320.666 L 765.303 304.911 L 766.471 304.911 L 766.717 320.666 L 766.853 329.291 L 767.223 352.73 L 767.303 357.911 L 767.457 367.499 L 767.634 378.865" style="fill-opacity: 1; fill-rule: nonzero; stroke: none; fill: rgb(0, 148, 248);" id="path20"/>
  <path d="M 767.634 378.865 L 764.139 378.865 L 764.231 373.205 C 765.859 372.301 767.223 370.582 767.457 367.499 L 767.634 378.865" style="fill-opacity: 1; fill-rule: nonzero; stroke: none; fill: rgb(0, 76, 144);" id="path22"/>
  <path d="M 740.089 320.969 C 755.359 318.442 761.865 307.382 761.865 307.382 C 761.865 307.382 749.071 308.365 740.089 320.969" style="fill-opacity: 1; fill-rule: nonzero; stroke: none; fill: rgb(0, 76, 144);" id="path24"/>
  <path d="M 741.678 320.153 C 741.63 320.153 741.583 320.13 741.557 320.086 C 741.515 320.021 741.535 319.931 741.602 319.89 L 761.45 307.509 C 761.517 307.467 761.605 307.486 761.646 307.554 C 761.689 307.619 761.667 307.707 761.601 307.75 L 741.753 320.133 C 741.73 320.146 741.703 320.153 741.678 320.153" style="fill-opacity: 1; fill-rule: nonzero; stroke: none; fill: rgb(255, 255, 255);" id="path26"/>
  <path d="M 765.887 274.468 C 771.826 288.76 765.887 300.134 765.887 300.134 C 765.887 300.134 759.947 288.76 765.887 274.468" style="fill-opacity: 1; fill-rule: nonzero; stroke: none; fill: rgb(0, 76, 144);" id="path28"/>
  <path d="M 765.887 300.265 C 765.814 300.265 765.755 300.206 765.755 300.134 L 765.755 278.561 C 765.755 278.489 765.814 278.43 765.887 278.43 C 765.959 278.43 766.018 278.489 766.018 278.561 L 766.018 300.134 C 766.018 300.206 765.959 300.265 765.887 300.265" style="fill-opacity: 1; fill-rule: nonzero; stroke: none; fill: rgb(255, 255, 255);" id="path30"/>
  <path d="M 791.684 320.969 C 776.415 318.442 769.909 307.382 769.909 307.382 C 769.909 307.382 782.702 308.365 791.684 320.969" style="fill-opacity: 1; fill-rule: nonzero; stroke: none; fill: rgb(0, 76, 144);" id="path32"/>
  <path d="M 788.211 318.933 C 788.187 318.933 788.163 318.926 788.142 318.913 L 769.839 307.494 C 769.777 307.455 769.758 307.374 769.797 307.313 C 769.835 307.251 769.917 307.233 769.978 307.271 L 788.281 318.69 C 788.343 318.729 788.361 318.809 788.323 318.87 C 788.298 318.911 788.255 318.933 788.211 318.933" style="fill-opacity: 1; fill-rule: nonzero; stroke: none; fill: rgb(255, 255, 255);" id="path34"/>
  <path d="M 767.198 377.594 L 764.574 377.594 C 763.19 377.594 762.066 378.717 762.066 380.102 L 762.066 381.269 L 769.707 381.269 L 769.707 380.102 C 769.707 378.717 768.583 377.594 767.198 377.594" style="fill:#0f1241;fill-opacity:1;fill-rule:nonzero;stroke:none" id="path36"/>
  <path d="M 766.853 329.291 L 764.921 329.291 L 765.057 320.666 L 766.717 320.666 L 766.853 329.291" style="fill-opacity: 1; fill-rule: nonzero; stroke: none; fill: rgb(0, 76, 144);" id="path38"/>
  <path d="M 767.303 357.911 L 764.47 357.911 L 764.55 352.73 L 767.223 352.73 L 767.303 357.911" style="fill-opacity: 1; fill-rule: nonzero; stroke: none; fill: rgb(0, 76, 144);" id="path40"/>
  <path d="M 766.853 304.081 L 764.921 304.081 L 764.921 299.767 L 766.853 299.767 L 766.853 304.081" style="fill-opacity: 1; fill-rule: nonzero; stroke: none; fill: rgb(0, 54, 101);" id="path42"/>
  <path d="M 766.078 306.166 L 767.101 304.527 L 770.759 306.809 L 769.737 308.449 L 766.078 306.166" style="fill-opacity: 1; fill-rule: nonzero; stroke: none; fill: rgb(0, 54, 101);" id="path44"/>
  <path d="M 765.695 306.166 L 764.673 304.527 L 761.014 306.809 L 762.037 308.449 L 765.695 306.166" style="fill-opacity: 1; fill-rule: nonzero; stroke: none; fill: rgb(0, 54, 101);" id="path46"/>
  <path d="M 767.633 304.909 C 767.633 305.873 766.851 306.654 765.887 306.654 C 764.922 306.654 764.139 305.873 764.139 304.909 C 764.139 303.943 764.922 303.161 765.887 303.161 C 766.851 303.161 767.633 303.943 767.633 304.909" style="fill:#0f1241;fill-opacity:1;fill-rule:nonzero;stroke:none" id="path48"/>
  <path d="M 725.653 383.575 L 722.537 383.575 L 722.618 378.529 L 722.831 364.895 L 722.903 360.277 L 723.234 339.381 L 723.355 331.694 L 723.574 317.647 L 724.615 317.647 L 724.834 331.694 L 724.957 339.381 L 725.286 360.277 L 725.358 364.895 L 725.495 373.442 L 725.653 383.575" style="fill-opacity: 1; fill-rule: nonzero; stroke: none; fill: rgb(0, 148, 248);" id="path50"/>
  <path d="M 725.653 383.575 L 722.537 383.575 L 722.618 378.529 C 724.07 377.723 725.286 376.191 725.495 373.442 L 725.653 383.575" style="fill-opacity: 1; fill-rule: nonzero; stroke: none; fill: rgb(0, 76, 144);" id="path52"/>
  <path d="M 725.265 382.442 L 722.925 382.442 C 721.69 382.442 720.689 383.443 720.689 384.678 L 720.689 385.718 L 727.501 385.718 L 727.501 384.678 C 727.501 383.443 726.499 382.442 725.265 382.442" style="fill:#0f1241;fill-opacity:1;fill-rule:nonzero;stroke:none" id="path54"/>
  <path d="M 724.957 339.381 L 723.234 339.381 L 723.355 331.694 L 724.834 331.694 L 724.957 339.381" style="fill-opacity: 1; fill-rule: nonzero; stroke: none; fill: rgb(0, 76, 144);" id="path56"/>
  <path d="M 725.358 364.895 L 722.831 364.895 L 722.903 360.277 L 725.286 360.277 L 725.358 364.895" style="fill-opacity: 1; fill-rule: nonzero; stroke: none; fill: rgb(0, 76, 144);" id="path58"/>
  <path d="M 697.005 317.465 C 709.717 322.831 719.886 317.595 719.886 317.595 C 719.886 317.595 709.777 312.243 697.005 317.465" style="fill-opacity: 1; fill-rule: nonzero; stroke: none; fill: rgb(0, 76, 144);" id="path60"/>
  <path d="M 698.59 317.607 C 698.554 317.585 698.531 317.543 698.531 317.498 C 698.531 317.429 698.589 317.371 698.659 317.371 L 719.513 317.491 C 719.582 317.493 719.639 317.55 719.639 317.619 C 719.639 317.69 719.582 317.746 719.511 317.746 L 698.658 317.626 C 698.634 317.626 698.61 317.619 698.59 317.607" style="fill-opacity: 1; fill-rule: nonzero; stroke: none; fill: rgb(255, 255, 255);" id="path62"/>
  <path d="M 738.59 294.704 C 736.259 308.303 726.367 314.046 726.367 314.046 C 726.367 314.046 727.309 302.647 738.59 294.704" style="fill-opacity: 1; fill-rule: nonzero; stroke: none; fill: rgb(0, 76, 144);" id="path64"/>
  <path d="M 726.305 314.146 C 726.25 314.111 726.234 314.039 726.269 313.985 L 736.542 297.726 C 736.577 297.671 736.649 297.655 736.703 297.69 C 736.758 297.725 736.774 297.798 736.739 297.853 L 726.467 314.11 C 726.433 314.165 726.359 314.181 726.305 314.146" style="fill-opacity: 1; fill-rule: nonzero; stroke: none; fill: rgb(255, 255, 255);" id="path66"/>
  <path d="M 735.889 342.033 C 725.585 332.858 725.947 321.425 725.947 321.425 C 725.947 321.425 735.121 328.257 735.889 342.033" style="fill-opacity: 1; fill-rule: nonzero; stroke: none; fill: rgb(0, 76, 144);" id="path68"/>
  <path d="M 734.241 338.846 C 734.223 338.834 734.207 338.818 734.198 338.798 L 725.842 321.475 C 725.814 321.418 725.838 321.349 725.897 321.319 C 725.955 321.291 726.026 321.315 726.053 321.374 L 734.409 338.695 C 734.438 338.753 734.413 338.823 734.354 338.853 C 734.317 338.87 734.274 338.866 734.241 338.846" style="fill-opacity: 1; fill-rule: nonzero; stroke: none; fill: rgb(255, 255, 255);" id="path70"/>
  <path d="M 725.217 317.481 L 723.761 316.561 L 725.814 313.31 L 727.271 314.231 L 725.217 317.481" style="fill-opacity: 1; fill-rule: nonzero; stroke: none; fill: rgb(0, 54, 101);" id="path72"/>
  <path d="M 723.639 318.685 L 725.191 317.935 L 726.861 321.398 L 725.31 322.146 L 723.639 318.685" style="fill-opacity: 1; fill-rule: nonzero; stroke: none; fill: rgb(0, 54, 101);" id="path74"/>
  <path d="M 723.353 318.502 L 723.362 316.779 L 719.518 316.757 L 719.507 318.479 L 723.353 318.502" style="fill-opacity: 1; fill-rule: nonzero; stroke: none; fill: rgb(0, 54, 101);" id="path76"/>
  <path d="M 725.411 318.477 C 724.951 319.203 723.99 319.419 723.263 318.962 C 722.537 318.502 722.319 317.539 722.778 316.813 C 723.238 316.086 724.199 315.869 724.926 316.329 C 725.653 316.789 725.87 317.75 725.411 318.477" style="fill:#0f1241;fill-opacity:1;fill-rule:nonzero;stroke:none" id="path78"/>
  <path d="M 1319.996 381.203 C 707.913 315.699 618.361 457.248 0 381.203 L 0 600 L 1319.996 600 L 1319.996 381.203" style="fill-opacity: 1; fill-rule: nonzero; stroke: none; fill: rgb(0, 213, 129);" id="path80"/>
  <path d="M 0 490.601 C 393.304 415.518 684.979 595.671 1319.996 490.601 L 1319.996 600 L 0 600 L 0 490.601" style="fill-opacity: 1; fill-rule: nonzero; stroke: none; fill: rgb(32, 175, 118);" id="path82"/>
  <path d="M 116.082 391.494 L 106.12 391.494 L 106.38 375.357 L 107.063 331.753 L 107.291 316.981 L 108.347 250.154 L 108.737 225.566 L 109.436 180.646 L 112.767 180.646 L 113.466 225.566 L 113.856 250.154 L 114.913 316.981 L 115.14 331.753 L 115.578 359.089 L 116.082 391.494" style="fill-opacity: 1; fill-rule: nonzero; stroke: none; fill: rgb(0, 148, 248);" id="path84"/>
  <path d="M 116.082 391.494 L 106.12 391.494 L 106.38 375.357 C 111.023 372.778 114.913 367.877 115.578 359.089 L 116.082 391.494" style="fill-opacity: 1; fill-rule: nonzero; stroke: none; fill: rgb(0, 76, 144);" id="path86"/>
  <path d="M 37.549 226.429 C 81.085 219.224 99.636 187.696 99.636 187.696 C 99.636 187.696 63.161 190.494 37.549 226.429" style="fill-opacity: 1; fill-rule: nonzero; stroke: none; fill: rgb(0, 76, 144);" id="path88"/>
  <path d="M 42.08 224.105 C 41.945 224.105 41.812 224.037 41.736 223.913 C 41.617 223.724 41.674 223.473 41.865 223.354 L 98.453 188.052 C 98.643 187.936 98.893 187.992 99.012 188.182 C 99.131 188.37 99.073 188.621 98.883 188.741 L 42.295 224.044 C 42.229 224.085 42.154 224.105 42.08 224.105" style="fill-opacity: 1; fill-rule: nonzero; stroke: none; fill: rgb(255, 255, 255);" id="path90"/>
  <path d="M 111.101 93.849 C 128.032 134.6 111.101 167.028 111.101 167.028 C 111.101 167.028 94.169 134.6 111.101 93.849" style="fill-opacity: 1; fill-rule: nonzero; stroke: none; fill: rgb(0, 76, 144);" id="path92"/>
  <path d="M 111.101 167.403 C 110.894 167.403 110.726 167.235 110.726 167.028 L 110.726 105.523 C 110.726 105.317 110.894 105.149 111.101 105.149 C 111.308 105.149 111.476 105.317 111.476 105.523 L 111.476 167.028 C 111.476 167.235 111.308 167.403 111.101 167.403" style="fill-opacity: 1; fill-rule: nonzero; stroke: none; fill: rgb(255, 255, 255);" id="path94"/>
  <path d="M 184.654 226.429 C 141.118 219.224 122.567 187.696 122.567 187.696 C 122.567 187.696 159.042 190.494 184.654 226.429" style="fill-opacity: 1; fill-rule: nonzero; stroke: none; fill: rgb(0, 76, 144);" id="path96"/>
  <path d="M 174.75 220.625 C 174.682 220.625 174.613 220.608 174.553 220.568 L 122.369 188.012 C 122.193 187.902 122.14 187.673 122.25 187.497 C 122.36 187.318 122.59 187.265 122.766 187.377 L 174.949 219.933 C 175.125 220.042 175.177 220.273 175.068 220.448 C 174.998 220.562 174.876 220.625 174.75 220.625" style="fill-opacity: 1; fill-rule: nonzero; stroke: none; fill: rgb(255, 255, 255);" id="path98"/>
  <path d="M 114.842 387.871 L 107.36 387.871 C 103.411 387.871 100.209 391.074 100.209 395.023 L 100.209 398.349 L 121.993 398.349 L 121.993 395.023 C 121.993 391.074 118.791 387.871 114.842 387.871" style="fill:#0f1241;fill-opacity:1;fill-rule:nonzero;stroke:none" id="path100"/>
  <path d="M 113.856 250.154 L 108.347 250.154 L 108.737 225.566 L 113.466 225.566 L 113.856 250.154" style="fill:#0f1241;fill-opacity:1;fill-rule:nonzero;stroke:none" id="path102"/>
  <path d="M 115.14 331.753 L 107.063 331.753 L 107.291 316.981 L 114.913 316.981 L 115.14 331.753" style="fill:#0f1241;fill-opacity:1;fill-rule:nonzero;stroke:none" id="path104"/>
  <path d="M 113.856 178.278 L 108.347 178.278 L 108.347 165.984 L 113.856 165.984 L 113.856 178.278" style="fill-opacity: 1; fill-rule: nonzero; stroke: none; fill: rgb(0, 148, 248);" id="path106"/>
  <path d="M 111.646 184.226 L 114.562 179.552 L 124.993 186.06 L 122.077 190.734 L 111.646 184.226" style="fill-opacity: 1; fill-rule: nonzero; stroke: none; fill: rgb(0, 148, 248);" id="path108"/>
  <path d="M 110.558 184.226 L 107.641 179.552 L 97.21 186.06 L 100.126 190.734 L 110.558 184.226" style="fill-opacity: 1; fill-rule: nonzero; stroke: none; fill: rgb(0, 148, 248);" id="path110"/>
  <path d="M 116.08 180.64 C 116.08 183.389 113.851 185.618 111.101 185.618 C 108.351 185.618 106.122 183.389 106.122 180.64 C 106.122 177.889 108.351 175.66 111.101 175.66 C 113.851 175.66 116.08 177.889 116.08 180.64" style="fill:#0f1241;fill-opacity:1;fill-rule:nonzero;stroke:none" id="path112"/>
  <path d="M 184.791 399.923 L 177.962 399.923 L 178.141 388.862 L 178.609 358.975 L 178.765 348.851 L 179.489 303.046 L 179.756 286.193 L 180.236 255.405 L 182.518 255.405 L 182.998 286.193 L 183.265 303.046 L 183.989 348.851 L 184.145 358.975 L 184.445 377.711 L 184.791 399.923" style="fill-opacity: 1; fill-rule: nonzero; stroke: none; fill: rgb(0, 148, 248);" id="path114"/>
  <path d="M 184.791 399.923 L 177.962 399.923 L 178.141 388.862 C 181.324 387.094 183.989 383.735 184.445 377.711 L 184.791 399.923" style="fill-opacity: 1; fill-rule: nonzero; stroke: none; fill: rgb(0, 76, 144);" id="path116"/>
  <path d="M 183.941 397.441 L 178.812 397.441 C 176.105 397.441 173.912 399.635 173.912 402.342 L 173.912 404.622 L 188.842 404.622 L 188.842 402.342 C 188.842 399.635 186.647 397.441 183.941 397.441" style="fill:#0f1241;fill-opacity:1;fill-rule:nonzero;stroke:none" id="path118"/>
  <path d="M 183.265 303.046 L 179.489 303.046 L 179.756 286.193 L 182.998 286.193 L 183.265 303.046" style="fill:#0f1241;fill-opacity:1;fill-rule:nonzero;stroke:none" id="path120"/>
  <path d="M 184.145 358.975 L 178.609 358.975 L 178.765 348.851 L 183.989 348.851 L 184.145 358.975" style="fill:#0f1241;fill-opacity:1;fill-rule:nonzero;stroke:none" id="path122"/>
  <path d="M 121.993 255.002 C 149.857 266.768 172.15 255.29 172.15 255.29 C 172.15 255.29 149.99 243.558 121.993 255.002" style="fill-opacity: 1; fill-rule: nonzero; stroke: none; fill: rgb(0, 76, 144);" id="path124"/>
  <path d="M 125.469 255.316 C 125.391 255.266 125.339 255.178 125.34 255.078 C 125.34 254.925 125.465 254.801 125.619 254.802 L 171.333 255.064 C 171.486 255.066 171.612 255.19 171.61 255.344 C 171.61 255.497 171.485 255.621 171.33 255.62 L 125.616 255.358 C 125.563 255.358 125.512 255.342 125.469 255.316" style="fill-opacity: 1; fill-rule: nonzero; stroke: none; fill: rgb(255, 255, 255);" id="path126"/>
  <path d="M 213.151 205.11 C 208.043 234.921 186.361 247.512 186.361 247.512 C 186.361 247.512 188.422 222.524 213.151 205.11" style="fill-opacity: 1; fill-rule: nonzero; stroke: none; fill: rgb(0, 76, 144);" id="path128"/>
  <path d="M 186.222 247.729 C 186.103 247.653 186.067 247.496 186.142 247.376 L 208.661 211.737 C 208.737 211.617 208.895 211.581 209.015 211.657 C 209.135 211.733 209.17 211.892 209.095 212.01 L 186.577 247.65 C 186.501 247.769 186.342 247.805 186.222 247.729" style="fill-opacity: 1; fill-rule: nonzero; stroke: none; fill: rgb(255, 255, 255);" id="path130"/>
  <path d="M 207.231 308.861 C 184.642 288.748 185.437 263.686 185.437 263.686 C 185.437 263.686 205.547 278.662 207.231 308.861" style="fill-opacity: 1; fill-rule: nonzero; stroke: none; fill: rgb(0, 76, 144);" id="path132"/>
  <path d="M 203.618 301.871 C 203.579 301.847 203.546 301.811 203.525 301.766 L 185.206 263.797 C 185.145 263.669 185.198 263.517 185.326 263.454 C 185.455 263.392 185.609 263.445 185.669 263.574 L 203.986 301.543 C 204.049 301.671 203.995 301.823 203.866 301.886 C 203.785 301.926 203.691 301.918 203.618 301.871" style="fill-opacity: 1; fill-rule: nonzero; stroke: none; fill: rgb(255, 255, 255);" id="path134"/>
  <path d="M 183.837 255.041 L 180.645 253.024 L 185.146 245.9 L 188.338 247.917 L 183.837 255.041" style="fill-opacity: 1; fill-rule: nonzero; stroke: none; fill: rgb(0, 148, 248);" id="path136"/>
  <path d="M 180.378 257.677 L 183.779 256.036 L 187.442 263.626 L 184.041 265.268 L 180.378 257.677" style="fill-opacity: 1; fill-rule: nonzero; stroke: none; fill: rgb(0, 148, 248);" id="path138"/>
  <path d="M 179.749 257.278 L 179.77 253.502 L 171.342 253.454 L 171.321 257.23 L 179.749 257.278" style="fill-opacity: 1; fill-rule: nonzero; stroke: none; fill: rgb(0, 148, 248);" id="path140"/>
  <path d="M 184.262 257.222 C 183.254 258.816 181.146 259.292 179.554 258.285 C 177.96 257.278 177.485 255.17 178.492 253.577 C 179.498 251.982 181.606 251.508 183.199 252.514 C 184.793 253.521 185.269 255.629 184.262 257.222" style="fill-opacity: 1; fill-rule: nonzero; stroke: none; fill: rgb(0, 148, 248);" id="path142"/>
  <path d="M 665.922 344.438 C 678.011 358.025 674.318 383.314 665.922 390.943 C 657.528 383.314 653.834 358.025 665.922 344.438" style="fill-opacity: 1; fill-rule: nonzero; stroke: none; fill: rgb(0, 203, 122);" id="path144"/>
  <path d="M 665.922 391.277 C 665.74 391.277 665.59 391.127 665.59 390.943 L 665.59 351.543 C 665.59 351.362 665.74 351.211 665.922 351.211 C 666.106 351.211 666.256 351.362 666.256 351.543 L 666.256 390.943 C 666.256 391.127 666.106 391.277 665.922 391.277" style="fill-opacity: 1; fill-rule: nonzero; stroke: none; fill: rgb(56, 169, 175);" id="path146"/>
  <path d="M 665.893 388.838 C 665.893 378.398 676.791 360.938 691.729 358.25 C 692.729 374.473 676.173 390.214 666.06 390.943 C 665.948 390.282 665.893 389.578 665.893 388.838 C 665.893 389.578 665.838 390.282 665.726 390.943 C 655.614 390.214 639.058 374.473 640.057 358.25 C 654.996 360.938 665.893 378.398 665.893 388.838" style="fill-opacity: 1; fill-rule: nonzero; stroke: none; fill: rgb(0, 203, 122);" id="path148"/>
  <path d="M 666.061 391.277 C 665.989 391.277 665.916 391.253 665.856 391.205 C 665.71 391.091 665.685 390.882 665.8 390.738 L 687.546 363.041 C 687.658 362.898 687.866 362.869 688.013 362.985 C 688.157 363.097 688.183 363.306 688.069 363.451 L 666.322 391.149 C 666.257 391.233 666.16 391.277 666.061 391.277" style="fill:#38a9af;fill-opacity:1;fill-rule:nonzero;stroke:none" id="path150"/>
  <path d="M 665.726 391.277 C 665.628 391.277 665.53 391.233 665.465 391.149 L 643.718 363.451 C 643.604 363.306 643.63 363.097 643.774 362.985 C 643.918 362.869 644.128 362.898 644.241 363.041 L 665.988 390.738 C 666.102 390.882 666.077 391.091 665.932 391.205 C 665.87 391.253 665.798 391.277 665.726 391.277" style="fill:#38a9af;fill-opacity:1;fill-rule:nonzero;stroke:none" id="path152"/>
  <path d="M 156.886 397.507 C 156.886 398.094 156.842 398.654 156.754 399.181 C 148.714 398.601 135.552 386.085 136.345 373.189 C 148.222 375.325 156.886 389.206 156.886 397.506 L 156.886 397.507" style="fill-opacity: 1; fill-rule: nonzero; stroke: none; fill: rgb(0, 156, 94);" id="path154"/>
  <path d="M 156.754 399.738 C 156.589 399.738 156.425 399.665 156.317 399.526 L 139.026 377.503 C 138.834 377.261 138.878 376.911 139.12 376.722 C 139.361 376.529 139.714 376.574 139.901 376.815 L 157.192 398.837 C 157.384 399.079 157.34 399.429 157.098 399.618 C 156.996 399.698 156.874 399.738 156.754 399.738" style="fill-opacity: 1; fill-rule: nonzero; stroke: none; fill: rgb(255, 255, 255);" id="path156"/>
  <path d="M 156.91 362.206 C 166.521 373.007 163.585 393.115 156.91 399.181 C 150.236 393.115 147.3 373.007 156.91 362.206" style="fill-opacity: 1; fill-rule: nonzero; stroke: none; fill: rgb(0, 187, 112);" id="path158"/>
  <path d="M 156.91 399.695 C 156.628 399.695 156.397 399.465 156.397 399.181 L 156.397 367.857 C 156.397 367.574 156.628 367.342 156.91 367.342 C 157.194 367.342 157.424 367.574 157.424 367.857 L 157.424 399.181 C 157.424 399.465 157.194 399.695 156.91 399.695" style="fill-opacity: 1; fill-rule: nonzero; stroke: none; fill: rgb(255, 255, 255);" id="path160"/>
  <path d="M 554.254 499.231 C 554.254 500.139 554.186 501.007 554.049 501.82 C 541.612 500.923 521.251 481.564 522.479 461.612 C 540.852 464.918 554.253 486.389 554.254 499.229 L 554.254 499.231" style="fill-opacity: 1; fill-rule: nonzero; stroke: none; fill: rgb(0, 178, 107);" id="path162"/>
  <path d="M 554.29 444.624 C 569.157 461.334 564.616 492.438 554.29 501.82 C 543.965 492.438 539.424 461.334 554.29 444.624" style="fill-opacity: 1; fill-rule: nonzero; stroke: none; fill: rgb(0, 178, 107);" id="path164"/>
  <path d="M 46.676 482.686 C 46.676 483.595 46.744 484.462 46.881 485.275 C 59.318 484.379 79.68 465.019 78.452 445.067 C 60.08 448.372 46.677 469.846 46.676 482.686" style="fill-opacity: 1; fill-rule: nonzero; stroke: none; fill: rgb(0, 178, 107);" id="path166"/>
  <path d="M 46.641 428.08 C 31.773 444.788 36.315 475.894 46.641 485.275 C 56.965 475.894 61.507 444.788 46.641 428.08" style="fill-opacity: 1; fill-rule: nonzero; stroke: none; fill: rgb(0, 178, 107);" id="path168"/>
  <path d="M 226.258 403.751 C 226.258 404.146 226.287 404.525 226.347 404.878 C 231.762 404.487 240.625 396.061 240.09 387.375 C 232.093 388.814 226.258 398.161 226.258 403.751" style="fill-opacity: 1; fill-rule: nonzero; stroke: none; fill: rgb(0, 213, 129);" id="path170"/>
  <path d="M 226.347 405.253 C 226.459 405.253 226.569 405.203 226.642 405.109 L 238.285 390.281 C 238.414 390.118 238.385 389.882 238.222 389.754 C 238.059 389.625 237.822 389.654 237.695 389.817 L 226.054 404.646 C 225.925 404.809 225.954 405.045 226.117 405.173 C 226.185 405.227 226.267 405.253 226.347 405.253" style="fill-opacity: 1; fill-rule: nonzero; stroke: none; fill: rgb(255, 255, 255);" id="path172"/>
  <path d="M 226.243 379.979 C 219.771 387.253 221.749 400.794 226.243 404.878 C 230.738 400.794 232.714 387.253 226.243 379.979" style="fill-opacity: 1; fill-rule: nonzero; stroke: none; fill: rgb(0, 198, 119);" id="path174"/>
  <path d="M 226.242 405.223 C 226.433 405.223 226.589 405.069 226.589 404.878 L 226.589 383.785 C 226.589 383.594 226.433 383.439 226.242 383.439 C 226.053 383.439 225.897 383.594 225.897 383.785 L 225.897 404.878 C 225.897 405.069 226.053 405.223 226.242 405.223" style="fill-opacity: 1; fill-rule: nonzero; stroke: none; fill: rgb(255, 255, 255);" id="path176"/>
  <path d="M 1210.43 290.585 C 1221.127 278.397 1218.642 260.448 1210.43 252.545 C 1202.217 260.448 1199.733 278.397 1210.43 290.585" style="fill-opacity: 1; fill-rule: nonzero; stroke: none; fill: rgb(0, 187, 112);" id="path178"/>
  <path d="M 1210.429 290.972 C 1210.217 290.972 1210.043 290.798 1210.043 290.585 L 1210.043 261.852 C 1210.043 261.638 1210.217 261.466 1210.429 261.466 C 1210.642 261.466 1210.815 261.638 1210.815 261.852 L 1210.815 290.585 C 1210.815 290.798 1210.642 290.972 1210.429 290.972" style="fill-opacity: 1; fill-rule: nonzero; stroke: none; fill: rgb(255, 255, 255);" id="path180"/>
  <path d="M 1210.579 300.866 C 1223.875 299.793 1232.687 287.77 1232.361 278.4 C 1222.985 278.365 1211.241 287.544 1210.579 300.866" style="fill-opacity: 1; fill-rule: nonzero; stroke: none; fill: rgb(0, 187, 112);" id="path182"/>
  <path d="M 1210.579 301.251 C 1210.482 301.251 1210.386 301.215 1210.31 301.143 C 1210.157 300.994 1210.153 300.75 1210.302 300.598 L 1226.755 283.628 C 1226.903 283.477 1227.149 283.472 1227.302 283.618 C 1227.455 283.769 1227.458 284.013 1227.31 284.165 L 1210.857 301.134 C 1210.781 301.213 1210.679 301.251 1210.579 301.251" style="fill-opacity: 1; fill-rule: nonzero; stroke: none; fill: rgb(255, 255, 255);" id="path184"/>
  <path d="M 1210.281 300.866 C 1196.983 299.793 1188.174 287.77 1188.498 278.4 C 1197.874 278.365 1209.619 287.544 1210.281 300.866" style="fill-opacity: 1; fill-rule: nonzero; stroke: none; fill: rgb(0, 187, 112);" id="path186"/>
  <path d="M 1210.281 301.251 C 1210.179 301.251 1210.079 301.213 1210.003 301.134 L 1193.55 284.165 C 1193.403 284.013 1193.406 283.769 1193.559 283.618 C 1193.714 283.472 1193.959 283.477 1194.105 283.628 L 1210.558 300.598 C 1210.705 300.75 1210.702 300.994 1210.549 301.143 C 1210.473 301.215 1210.377 301.251 1210.281 301.251" style="fill-opacity: 1; fill-rule: nonzero; stroke: none; fill: rgb(255, 255, 255);" id="path188"/>
  <path d="M 1210.435 315.911 C 1224.41 314.974 1236.149 302.858 1237.867 293.33 C 1228.189 293.186 1214.039 302.378 1210.435 315.911" style="fill-opacity: 1; fill-rule: nonzero; stroke: none; fill: rgb(0, 187, 112);" id="path190"/>
  <path d="M 1210.794 316.002 C 1210.683 316.002 1210.573 315.954 1210.495 315.862 C 1210.359 315.697 1210.385 315.454 1210.549 315.317 L 1230.999 298.485 C 1231.166 298.35 1231.407 298.374 1231.543 298.538 C 1231.679 298.702 1231.654 298.946 1231.49 299.082 L 1211.039 315.915 C 1210.967 315.973 1210.879 316.002 1210.794 316.002" style="fill-opacity: 1; fill-rule: nonzero; stroke: none; fill: rgb(255, 255, 255);" id="path192"/>
  <path d="M 1210.646 316.195 C 1196.529 315.25 1184.667 303.006 1182.93 293.381 C 1192.711 293.234 1207.006 302.522 1210.646 316.195" style="fill-opacity: 1; fill-rule: nonzero; stroke: none; fill: rgb(0, 187, 112);" id="path194"/>
  <path d="M 1210.067 316.002 C 1209.979 316.002 1209.893 315.973 1209.821 315.915 L 1189.37 299.082 C 1189.206 298.946 1189.182 298.702 1189.317 298.538 C 1189.453 298.374 1189.695 298.35 1189.861 298.485 L 1210.311 315.317 C 1210.475 315.454 1210.501 315.697 1210.365 315.862 C 1210.287 315.954 1210.178 316.002 1210.067 316.002" style="fill-opacity: 1; fill-rule: nonzero; stroke: none; fill: rgb(255, 255, 255);" id="path196"/>
  <path d="M 1210.51 331.679 C 1224.578 331.987 1237.406 320.909 1239.975 311.527 C 1230.302 310.519 1215.323 318.457 1210.51 331.679" style="fill-opacity: 1; fill-rule: nonzero; stroke: none; fill: rgb(0, 187, 112);" id="path198"/>
  <path d="M 1211.03 331.709 C 1210.909 331.709 1210.787 331.65 1210.713 331.541 C 1210.591 331.365 1210.637 331.126 1210.811 331.006 L 1232.677 316.051 C 1232.855 315.93 1233.093 315.975 1233.213 316.15 C 1233.333 316.327 1233.289 316.567 1233.113 316.687 L 1211.249 331.641 C 1211.182 331.689 1211.106 331.709 1211.03 331.709" style="fill-opacity: 1; fill-rule: nonzero; stroke: none; fill: rgb(255, 255, 255);" id="path200"/>
  <path d="M 1210.653 332.131 C 1196.355 332.445 1183.317 321.185 1180.705 311.649 C 1190.537 310.626 1205.759 318.693 1210.653 332.131" style="fill-opacity: 1; fill-rule: nonzero; stroke: none; fill: rgb(0, 187, 112);" id="path202"/>
  <path d="M 1209.83 331.709 C 1209.754 331.709 1209.679 331.689 1209.611 331.641 L 1187.747 316.687 C 1187.573 316.567 1187.526 316.327 1187.647 316.15 C 1187.769 315.975 1188.007 315.93 1188.185 316.051 L 1210.049 331.006 C 1210.223 331.126 1210.267 331.365 1210.147 331.541 C 1210.074 331.65 1209.951 331.709 1209.83 331.709" style="fill-opacity: 1; fill-rule: nonzero; stroke: none; fill: rgb(255, 255, 255);" id="path204"/>
  <path d="M 1210.729 346.579 C 1222.217 346.831 1232.693 337.783 1234.793 330.122 C 1226.891 329.299 1214.659 335.782 1210.729 346.579" style="fill-opacity: 1; fill-rule: nonzero; stroke: none; fill: rgb(0, 187, 112);" id="path206"/>
  <path d="M 1210.729 346.974 C 1210.602 346.974 1210.479 346.914 1210.402 346.803 C 1210.281 346.622 1210.325 346.378 1210.505 346.254 L 1228.682 333.822 C 1228.863 333.701 1229.106 333.745 1229.23 333.925 C 1229.353 334.106 1229.306 334.351 1229.127 334.473 L 1210.951 346.906 C 1210.881 346.953 1210.803 346.974 1210.729 346.974" style="fill-opacity: 1; fill-rule: nonzero; stroke: none; fill: rgb(255, 255, 255);" id="path208"/>
  <path d="M 1210.505 347.095 C 1198.747 347.355 1188.025 338.094 1185.877 330.253 C 1193.962 329.411 1206.481 336.045 1210.505 347.095" style="fill-opacity: 1; fill-rule: nonzero; stroke: none; fill: rgb(0, 187, 112);" id="path210"/>
  <path d="M 1209.626 346.619 C 1209.551 346.619 1209.475 346.597 1209.409 346.551 L 1191.614 334.382 C 1191.439 334.262 1191.394 334.022 1191.515 333.846 C 1191.634 333.673 1191.874 333.626 1192.051 333.746 L 1209.845 345.915 C 1210.021 346.034 1210.065 346.275 1209.945 346.451 C 1209.87 346.561 1209.747 346.619 1209.626 346.619" style="fill-opacity: 1; fill-rule: nonzero; stroke: none; fill: rgb(255, 255, 255);" id="path212"/>
  <path d="M 1209.825 289.052 C 1209.827 288.729 1210.09 288.468 1210.414 288.468 C 1210.737 288.468 1210.999 288.729 1211.002 289.052 L 1211.673 376.151 L 1209.189 376.151 L 1209.825 289.052" style="fill-opacity: 1; fill-rule: nonzero; stroke: none; fill: rgb(0, 173, 104);" id="path214"/>
  <path d="M 68.364 335.126 C 75.952 326.479 74.19 313.747 68.364 308.141 C 62.538 313.747 60.776 326.479 68.364 335.126" style="fill-opacity: 1; fill-rule: nonzero; stroke: none; fill: rgb(0, 187, 112);" id="path216"/>
  <path d="M 68.364 335.399 C 68.213 335.399 68.09 335.277 68.09 335.126 L 68.09 314.743 C 68.09 314.591 68.213 314.47 68.364 314.47 C 68.515 314.47 68.638 314.591 68.638 314.743 L 68.638 335.126 C 68.638 335.277 68.515 335.399 68.364 335.399" style="fill-opacity: 1; fill-rule: nonzero; stroke: none; fill: rgb(255, 255, 255);" id="path218"/>
  <path d="M 68.47 342.419 C 77.902 341.658 84.152 333.13 83.922 326.482 C 77.271 326.458 68.939 332.969 68.47 342.419" style="fill-opacity: 1; fill-rule: nonzero; stroke: none; fill: rgb(0, 187, 112);" id="path220"/>
  <path d="M 68.47 342.694 C 68.401 342.694 68.333 342.667 68.28 342.615 C 68.17 342.51 68.169 342.337 68.273 342.229 L 79.946 330.191 C 80.05 330.085 80.224 330.081 80.333 330.185 C 80.442 330.29 80.443 330.463 80.339 330.571 L 68.666 342.609 C 68.613 342.665 68.542 342.694 68.47 342.694" style="fill-opacity: 1; fill-rule: nonzero; stroke: none; fill: rgb(255, 255, 255);" id="path222"/>
  <path d="M 68.258 342.419 C 58.826 341.658 52.576 333.13 52.807 326.482 C 59.458 326.458 67.789 332.969 68.258 342.419" style="fill-opacity: 1; fill-rule: nonzero; stroke: none; fill: rgb(0, 187, 112);" id="path224"/>
  <path d="M 68.258 342.694 C 68.187 342.694 68.115 342.665 68.062 342.609 L 56.391 330.571 C 56.286 330.463 56.287 330.29 56.396 330.185 C 56.507 330.081 56.68 330.085 56.784 330.191 L 68.455 342.229 C 68.56 342.337 68.558 342.51 68.448 342.615 C 68.395 342.667 68.326 342.694 68.258 342.694" style="fill-opacity: 1; fill-rule: nonzero; stroke: none; fill: rgb(255, 255, 255);" id="path226"/>
  <path d="M 68.369 353.091 C 78.281 352.427 86.609 343.833 87.828 337.074 C 80.961 336.971 70.925 343.491 68.369 353.091" style="fill-opacity: 1; fill-rule: nonzero; stroke: none; fill: rgb(0, 187, 112);" id="path228"/>
  <path d="M 68.623 353.155 C 68.544 353.155 68.465 353.122 68.411 353.057 C 68.315 352.939 68.332 352.767 68.448 352.671 L 82.956 340.73 C 83.074 340.634 83.245 340.651 83.342 340.767 C 83.437 340.883 83.42 341.057 83.304 341.153 L 68.797 353.094 C 68.746 353.137 68.684 353.155 68.623 353.155" style="fill-opacity: 1; fill-rule: nonzero; stroke: none; fill: rgb(255, 255, 255);" id="path230"/>
  <path d="M 68.518 353.293 C 58.503 352.622 50.089 343.937 48.857 337.109 C 55.795 337.006 65.935 343.593 68.518 353.293" style="fill-opacity: 1; fill-rule: nonzero; stroke: none; fill: rgb(0, 187, 112);" id="path232"/>
  <path d="M 68.107 353.155 C 68.046 353.155 67.984 353.137 67.932 353.094 L 53.425 341.153 C 53.308 341.057 53.292 340.883 53.388 340.767 C 53.484 340.651 53.656 340.634 53.773 340.73 L 68.28 352.671 C 68.397 352.767 68.414 352.939 68.318 353.057 C 68.263 353.122 68.185 353.155 68.107 353.155" style="fill-opacity: 1; fill-rule: nonzero; stroke: none; fill: rgb(255, 255, 255);" id="path234"/>
  <path d="M 68.42 364.277 C 78.4 364.497 87.5 356.637 89.323 349.981 C 82.461 349.266 71.835 354.898 68.42 364.277" style="fill-opacity: 1; fill-rule: nonzero; stroke: none; fill: rgb(0, 187, 112);" id="path236"/>
  <path d="M 68.791 364.299 C 68.703 364.299 68.617 364.257 68.565 364.179 C 68.48 364.054 68.512 363.885 68.635 363.799 L 84.145 353.191 C 84.272 353.106 84.442 353.139 84.526 353.262 C 84.611 353.387 84.58 353.557 84.455 353.642 L 68.945 364.251 C 68.898 364.283 68.844 364.299 68.791 364.299" style="fill-opacity: 1; fill-rule: nonzero; stroke: none; fill: rgb(255, 255, 255);" id="path238"/>
  <path d="M 68.523 364.597 C 58.38 364.821 49.131 356.833 47.278 350.069 C 54.253 349.342 65.052 355.065 68.523 364.597" style="fill-opacity: 1; fill-rule: nonzero; stroke: none; fill: rgb(0, 187, 112);" id="path240"/>
  <path d="M 67.939 364.299 C 67.885 364.299 67.831 364.283 67.784 364.251 L 52.274 353.642 C 52.149 353.557 52.118 353.387 52.203 353.262 C 52.289 353.139 52.458 353.106 52.584 353.191 L 68.094 363.799 C 68.218 363.885 68.25 364.054 68.164 364.179 C 68.112 364.257 68.025 364.299 67.939 364.299" style="fill-opacity: 1; fill-rule: nonzero; stroke: none; fill: rgb(255, 255, 255);" id="path242"/>
  <path d="M 68.576 374.847 C 76.726 375.026 84.158 368.607 85.646 363.173 C 80.042 362.589 71.364 367.187 68.576 374.847" style="fill-opacity: 1; fill-rule: nonzero; stroke: none; fill: rgb(0, 187, 112);" id="path244"/>
  <path d="M 68.575 375.127 C 68.487 375.127 68.399 375.085 68.345 375.006 C 68.258 374.877 68.29 374.703 68.417 374.617 L 81.312 365.798 C 81.442 365.711 81.613 365.743 81.7 365.87 C 81.787 365.999 81.755 366.173 81.628 366.259 L 68.734 375.079 C 68.685 375.111 68.63 375.127 68.575 375.127" style="fill-opacity: 1; fill-rule: nonzero; stroke: none; fill: rgb(255, 255, 255);" id="path246"/>
  <path d="M 68.417 375.213 C 60.076 375.397 52.471 368.827 50.947 363.265 C 56.683 362.669 65.563 367.374 68.417 375.213" style="fill-opacity: 1; fill-rule: nonzero; stroke: none; fill: rgb(0, 187, 112);" id="path248"/>
  <path d="M 67.794 374.875 C 67.741 374.875 67.687 374.861 67.639 374.827 L 55.017 366.195 C 54.893 366.11 54.86 365.939 54.947 365.814 C 55.031 365.691 55.202 365.658 55.326 365.745 L 67.949 374.375 C 68.073 374.461 68.106 374.631 68.02 374.755 C 67.968 374.834 67.88 374.875 67.794 374.875" style="fill-opacity: 1; fill-rule: nonzero; stroke: none; fill: rgb(255, 255, 255);" id="path250"/>
  <path d="M 67.935 334.038 C 67.937 333.809 68.124 333.625 68.352 333.625 C 68.582 333.625 68.768 333.809 68.77 334.038 L 69.245 395.825 L 67.484 395.825 L 67.935 334.038" style="fill-opacity: 1; fill-rule: nonzero; stroke: none; fill: rgb(0, 163, 98);" id="path252"/>
  <path d="M 1298.486 239.201 C 1319.896 214.806 1314.923 178.88 1298.486 163.06 C 1282.047 178.88 1277.076 214.806 1298.486 239.201" style="fill-opacity: 1; fill-rule: nonzero; stroke: none; fill: rgb(0, 187, 112);" id="path254"/>
  <path d="M 1298.484 239.973 C 1298.059 239.973 1297.712 239.625 1297.712 239.2 L 1297.712 181.689 C 1297.712 181.261 1298.059 180.917 1298.484 180.917 C 1298.911 180.917 1299.256 181.261 1299.256 181.689 L 1299.256 239.2 C 1299.256 239.625 1298.911 239.973 1298.484 239.973" style="fill-opacity: 1; fill-rule: nonzero; stroke: none; fill: rgb(255, 255, 255);" id="path256"/>
  <path d="M 1298.784 259.78 C 1325.398 257.632 1343.036 233.566 1342.383 214.81 C 1323.616 214.741 1300.108 233.112 1298.784 259.78" style="fill-opacity: 1; fill-rule: nonzero; stroke: none; fill: rgb(0, 187, 112);" id="path258"/>
  <path d="M 1298.783 260.55 C 1298.59 260.55 1298.398 260.477 1298.247 260.333 C 1297.939 260.034 1297.932 259.546 1298.228 259.241 L 1331.163 225.276 C 1331.459 224.974 1331.95 224.961 1332.254 225.257 C 1332.563 225.556 1332.568 226.044 1332.272 226.349 L 1299.339 260.314 C 1299.188 260.472 1298.984 260.55 1298.783 260.55" style="fill-opacity: 1; fill-rule: nonzero; stroke: none; fill: rgb(255, 255, 255);" id="path260"/>
  <path d="M 1298.188 259.78 C 1271.574 257.632 1253.939 233.566 1254.589 214.81 C 1273.357 214.741 1296.863 233.112 1298.188 259.78" style="fill-opacity: 1; fill-rule: nonzero; stroke: none; fill: rgb(0, 187, 112);" id="path262"/>
  <path d="M 1298.187 260.55 C 1297.983 260.55 1297.782 260.472 1297.632 260.314 L 1264.699 226.349 C 1264.405 226.044 1264.411 225.556 1264.718 225.257 C 1265.029 224.961 1265.518 224.974 1265.809 225.276 L 1298.742 259.241 C 1299.036 259.546 1299.03 260.034 1298.723 260.333 C 1298.572 260.477 1298.379 260.55 1298.187 260.55" style="fill-opacity: 1; fill-rule: nonzero; stroke: none; fill: rgb(255, 255, 255);" id="path264"/>
  <path d="M 1298.496 289.892 C 1326.467 288.018 1349.97 263.765 1353.41 244.696 C 1334.023 244.406 1305.711 262.805 1298.496 289.892" style="fill-opacity: 1; fill-rule: nonzero; stroke: none; fill: rgb(0, 187, 112);" id="path266"/>
  <path d="M 1299.215 290.074 C 1298.991 290.074 1298.771 289.977 1298.618 289.793 C 1298.346 289.465 1298.395 288.976 1298.723 288.704 L 1339.663 255.013 C 1339.996 254.741 1340.476 254.79 1340.743 255.118 C 1341.01 255.446 1340.97 255.936 1340.636 256.206 L 1299.706 289.898 C 1299.562 290.016 1299.387 290.074 1299.215 290.074" style="fill-opacity: 1; fill-rule: nonzero; stroke: none; fill: rgb(255, 255, 255);" id="path268"/>
  <path d="M 1298.919 290.458 C 1270.662 288.566 1246.921 264.062 1243.445 244.796 C 1263.021 244.504 1291.631 263.09 1298.919 290.458" style="fill-opacity: 1; fill-rule: nonzero; stroke: none; fill: rgb(0, 187, 112);" id="path270"/>
  <path d="M 1297.758 290.074 C 1297.586 290.074 1297.412 290.016 1297.266 289.898 L 1256.334 256.206 C 1256.005 255.936 1255.957 255.446 1256.229 255.118 C 1256.499 254.79 1256.985 254.741 1257.317 255.013 L 1298.248 288.704 C 1298.579 288.976 1298.627 289.465 1298.356 289.793 C 1298.2 289.977 1297.98 290.074 1297.758 290.074" style="fill-opacity: 1; fill-rule: nonzero; stroke: none; fill: rgb(255, 255, 255);" id="path272"/>
  <path d="M 1298.644 321.451 C 1326.802 322.071 1352.476 299.893 1357.623 281.116 C 1338.263 279.1 1308.279 294.986 1298.644 321.451" style="fill-opacity: 1; fill-rule: nonzero; stroke: none; fill: rgb(0, 187, 112);" id="path274"/>
  <path d="M 1299.688 321.511 C 1299.444 321.511 1299.199 321.394 1299.051 321.177 C 1298.81 320.823 1298.902 320.345 1299.25 320.103 L 1343.01 290.173 C 1343.37 289.932 1343.85 290.022 1344.09 290.372 C 1344.33 290.725 1344.236 291.205 1343.89 291.445 L 1300.126 321.375 C 1299.99 321.47 1299.839 321.511 1299.688 321.511" style="fill-opacity: 1; fill-rule: nonzero; stroke: none; fill: rgb(255, 255, 255);" id="path276"/>
  <path d="M 1298.931 322.357 C 1270.314 322.985 1244.217 300.446 1238.989 281.362 C 1258.67 279.312 1289.139 295.458 1298.931 322.357" style="fill-opacity: 1; fill-rule: nonzero; stroke: none; fill: rgb(0, 187, 112);" id="path278"/>
  <path d="M 1297.284 321.511 C 1297.134 321.511 1296.982 321.47 1296.847 321.375 L 1253.085 291.445 C 1252.735 291.205 1252.645 290.725 1252.887 290.372 C 1253.129 290.022 1253.605 289.932 1253.961 290.173 L 1297.722 320.103 C 1298.072 320.345 1298.162 320.823 1297.92 321.177 C 1297.774 321.394 1297.528 321.511 1297.284 321.511" style="fill-opacity: 1; fill-rule: nonzero; stroke: none; fill: rgb(255, 255, 255);" id="path280"/>
  <path d="M 1299.083 351.275 C 1322.078 351.781 1343.05 333.67 1347.25 318.335 C 1331.434 316.689 1306.951 329.662 1299.083 351.275" style="fill-opacity: 1; fill-rule: nonzero; stroke: none; fill: rgb(0, 187, 112);" id="path282"/>
  <path d="M 1299.082 352.067 C 1298.831 352.067 1298.583 351.946 1298.43 351.723 C 1298.187 351.361 1298.276 350.871 1298.635 350.625 L 1335.023 325.743 C 1335.383 325.499 1335.863 325.586 1336.116 325.949 C 1336.356 326.31 1336.263 326.799 1335.916 327.046 L 1299.527 351.927 C 1299.39 352.022 1299.236 352.067 1299.082 352.067" style="fill-opacity: 1; fill-rule: nonzero; stroke: none; fill: rgb(255, 255, 255);" id="path284"/>
  <path d="M 1298.635 352.309 C 1275.101 352.827 1253.639 334.291 1249.341 318.598 C 1265.525 316.913 1290.582 330.191 1298.635 352.309" style="fill-opacity: 1; fill-rule: nonzero; stroke: none; fill: rgb(0, 187, 112);" id="path286"/>
  <path d="M 1296.876 351.355 C 1296.727 351.355 1296.576 351.311 1296.44 351.219 L 1260.825 326.862 C 1260.474 326.625 1260.385 326.141 1260.626 325.789 C 1260.863 325.442 1261.346 325.349 1261.699 325.589 L 1297.314 349.946 C 1297.664 350.185 1297.755 350.667 1297.514 351.021 C 1297.366 351.238 1297.122 351.355 1296.876 351.355" style="fill-opacity: 1; fill-rule: nonzero; stroke: none; fill: rgb(255, 255, 255);" id="path288"/>
  <path d="M 1297.276 236.132 C 1297.28 235.484 1297.806 234.962 1298.454 234.962 C 1299.1 234.962 1299.626 235.484 1299.631 236.13 L 1300.971 410.467 L 1296 410.467 L 1297.276 236.132" style="fill-opacity: 1; fill-rule: nonzero; stroke: none; fill: rgb(0, 173, 104);" id="path290"/>
  <path d="M 1259.501 443.882 L 1259.501 512.781 C 1259.501 526.14 1248.637 537.005 1235.275 537.005 L 1217.527 537.005 C 1214.762 537.005 1212.467 534.746 1212.467 531.944 C 1212.467 529.143 1214.762 526.883 1217.527 526.883 L 1235.275 526.883 C 1243.07 526.883 1249.379 520.54 1249.379 512.781 L 1249.379 443.882 C 1249.379 419.724 1229.709 400.021 1205.55 400.021 L 758.934 400.021 C 734.742 400.021 715.071 419.724 715.071 443.882 L 715.071 512.781 C 715.071 520.54 721.415 526.883 729.174 526.883 L 746.922 526.883 C 749.722 526.883 751.983 529.143 751.983 531.944 C 751.983 534.746 749.722 537.005 746.922 537.005 L 729.174 537.005 C 715.814 537.005 704.949 526.14 704.949 512.781 L 704.949 443.882 C 704.949 414.125 729.174 389.899 758.934 389.899 L 1205.55 389.899 C 1235.309 389.899 1259.501 414.125 1259.501 443.882" style="fill-opacity: 1; fill-rule: nonzero; stroke: none; fill: rgb(0, 148, 248);" id="path292"/>
  <path d="M 805.363 444.432 C 794.707 431.479 784.369 430.187 784.693 422.595 C 775.325 445.208 805.698 445.883 811.132 452.892 L 805.363 444.432" style="fill:#ffffff;fill-opacity:1;fill-rule:nonzero;stroke:none" id="path294"/>
  <path d="M 806.82 442.694 C 807.79 428.25 824.103 420.656 824.911 418.074 C 827.979 439.071 811.16 444.2 806.82 442.694" style="fill:#ffffff;fill-opacity:1;fill-rule:nonzero;stroke:none" id="path296"/>
  <path d="M 1158.134 444.432 C 1168.79 431.479 1179.127 430.187 1178.803 422.595 C 1188.173 445.208 1157.798 445.883 1152.364 452.892 L 1158.134 444.432" style="fill:#ffffff;fill-opacity:1;fill-rule:nonzero;stroke:none" id="path298"/>
  <path d="M 1156.677 442.694 C 1155.706 428.25 1139.393 420.656 1138.585 418.074 C 1135.517 439.071 1152.336 444.2 1156.677 442.694" style="fill:#ffffff;fill-opacity:1;fill-rule:nonzero;stroke:none" id="path300"/>
  <path d="M 1210.307 497.631 L 1210.307 566.257 L 754.177 566.257 L 754.177 497.631 L 1210.307 497.631" style="fill-opacity: 1; fill-rule: nonzero; stroke: none; fill: rgb(96, 65, 65);" id="path302"/>
  <path d="M 1210.302 497.632 C 1220.777 505.939 1226.883 518.576 1226.883 531.946 C 1226.883 545.314 1220.777 557.951 1210.302 566.257 L 1210.302 497.632" style="fill:#0f1241;fill-opacity:1;fill-rule:nonzero;stroke:none" id="path304"/>
  <path d="M 754.165 497.632 C 743.689 505.939 737.582 518.576 737.582 531.946 C 737.582 545.314 743.689 557.951 754.165 566.257 L 754.165 497.632" style="fill:#0f1241;fill-opacity:1;fill-rule:nonzero;stroke:none" id="path306"/>
  <path d="M 1210.307 497.631 L 1210.307 566.257 L 754.177 566.257 L 754.177 540.379 C 900.608 476.374 954.12 600.234 1145.358 528.064 C 1170.293 518.65 1189.221 508.393 1203.222 497.631 L 1210.307 497.631" style="fill-opacity: 1; fill-rule: nonzero; stroke: none; fill: rgb(75, 52, 52);" id="path308"/>
  <path d="M 715.071 463.452 L 715.071 490.174 L 704.949 490.174 L 704.949 463.452 L 715.071 463.452" style="fill:#0f1241;fill-opacity:1;fill-rule:nonzero;stroke:none" id="path310"/>
  <path d="M 1259.501 463.452 L 1259.501 490.174 L 1249.379 490.174 L 1249.379 463.452 L 1259.501 463.452" style="fill:#0f1241;fill-opacity:1;fill-rule:nonzero;stroke:none" id="path312"/>
  <path d="M 1022.075 482.611 L 1022.075 476.586 C 1022.075 475.438 1021.143 474.506 1019.992 474.506 L 943.503 474.506 C 942.353 474.506 941.421 475.438 941.421 476.586 L 941.421 482.611 C 941.421 483.76 942.353 484.694 943.503 484.694 L 1019.992 484.694 C 1021.143 484.694 1022.075 483.76 1022.075 482.611" style="fill-opacity: 1; fill-rule: nonzero; stroke: none; fill: rgb(0, 76, 144);" id="path314"/>
  <path d="M 1014.844 497.631 L 1017.601 484.694 L 945.895 484.694 L 948.652 497.631 L 1014.844 497.631" style="fill-opacity: 1; fill-rule: nonzero; stroke: none; fill: rgb(0, 148, 248);" id="path316"/>
  <path d="M 1099.354 482.611 L 1099.354 476.586 C 1099.354 475.438 1098.421 474.506 1097.272 474.506 L 1041.673 474.506 C 1040.524 474.506 1039.59 475.438 1039.59 476.586 L 1039.59 482.611 C 1039.59 483.76 1040.524 484.694 1041.673 484.694 L 1097.272 484.694 C 1098.421 484.694 1099.354 483.76 1099.354 482.611" style="fill-opacity: 1; fill-rule: nonzero; stroke: none; fill: rgb(0, 76, 144);" id="path318"/>
  <path d="M 1093.996 497.631 L 1096.04 484.694 L 1042.905 484.694 L 1044.949 497.631 L 1093.996 497.631" style="fill-opacity: 1; fill-rule: nonzero; stroke: none; fill: rgb(0, 148, 248);" id="path320"/>
  <path d="M 864.143 482.611 L 864.143 476.586 C 864.143 475.438 865.075 474.506 866.224 474.506 L 921.824 474.506 C 922.973 474.506 923.905 475.438 923.905 476.586 L 923.905 482.611 C 923.905 483.76 922.973 484.694 921.824 484.694 L 866.224 484.694 C 865.075 484.694 864.143 483.76 864.143 482.611" style="fill-opacity: 1; fill-rule: nonzero; stroke: none; fill: rgb(0, 76, 144);" id="path322"/>
  <path d="M 869.5 497.631 L 867.456 484.694 L 920.591 484.694 L 918.548 497.631 L 869.5 497.631" style="fill-opacity: 1; fill-rule: nonzero; stroke: none; fill: rgb(0, 148, 248);" id="path324"/>
  <path d="M 983.848 463.854 C 983.641 463.854 983.431 463.818 983.229 463.735 C 982.361 463.392 981.937 462.415 982.28 461.547 C 984.064 457.03 981.916 455.603 977.285 453.056 C 972.417 450.38 965.753 446.716 968.984 435.844 C 971.393 427.746 975.993 424.246 979.687 421.435 C 984.512 417.764 987.171 415.742 983.025 405.458 C 982.677 404.594 983.095 403.613 983.959 403.263 C 984.823 402.918 985.804 403.333 986.155 404.199 C 991.263 416.867 986.845 420.228 981.729 424.12 C 978.252 426.766 974.313 429.76 972.22 436.806 C 969.761 445.07 974.001 447.402 978.911 450.1 C 983.127 452.42 988.373 455.304 985.416 462.786 C 985.155 463.448 984.52 463.854 983.848 463.854" style="fill:#ffffff;fill-opacity:1;fill-rule:nonzero;stroke:none" id="path326"/>
  <path d="M 974.86 430.99 C 990.632 419.364 999.355 434.063 1010.983 422.595 C 1006.137 450.538 989.295 427.756 974.86 430.99" style="fill:#ffffff;fill-opacity:1;fill-rule:nonzero;stroke:none" id="path328"/>
  <path d="M 969.796 433.498 C 973.672 406.927 942.983 431.479 940.237 411.289 C 926.185 443.916 969.472 423.564 969.796 433.498" style="fill:#ffffff;fill-opacity:1;fill-rule:nonzero;stroke:none" id="path330"/>
  <path d="M 1185.283 482.611 L 1185.283 476.586 C 1185.283 475.438 1184.351 474.506 1183.201 474.506 L 1127.602 474.506 C 1126.453 474.506 1125.521 475.438 1125.521 476.586 L 1125.521 482.611 C 1125.521 483.76 1126.453 484.694 1127.602 484.694 L 1183.201 484.694 C 1184.351 484.694 1185.283 483.76 1185.283 482.611" style="fill-opacity: 1; fill-rule: nonzero; stroke: none; fill: rgb(0, 76, 144);" id="path332"/>
  <path d="M 1179.925 497.631 L 1181.969 484.694 L 1128.834 484.694 L 1130.878 497.631 L 1179.925 497.631" style="fill-opacity: 1; fill-rule: nonzero; stroke: none; fill: rgb(0, 148, 248);" id="path334"/>
  <path d="M 778.214 482.611 L 778.214 476.586 C 778.214 475.438 779.146 474.506 780.295 474.506 L 835.894 474.506 C 837.044 474.506 837.976 475.438 837.976 476.586 L 837.976 482.611 C 837.976 483.76 837.044 484.694 835.894 484.694 L 780.295 484.694 C 779.146 484.694 778.214 483.76 778.214 482.611" style="fill-opacity: 1; fill-rule: nonzero; stroke: none; fill: rgb(0, 76, 144);" id="path336"/>
  <path d="M 783.571 497.631 L 781.527 484.694 L 834.663 484.694 L 832.618 497.631 L 783.571 497.631" style="fill-opacity: 1; fill-rule: nonzero; stroke: none; fill: rgb(0, 148, 248);" id="path338"/>
  <path d="M 1069.293 463.046 C 1068.633 463.046 1068.009 462.658 1067.737 462.012 C 1061.625 447.466 1067.52 439.27 1072.72 432.04 C 1077.734 425.076 1082.064 419.059 1075.892 407.906 C 1075.441 407.089 1075.736 406.065 1076.55 405.613 C 1077.362 405.169 1078.394 405.455 1078.845 406.271 C 1086.05 419.294 1080.666 426.776 1075.461 434.012 C 1070.321 441.155 1065.468 447.9 1070.848 460.707 C 1071.208 461.564 1070.804 462.552 1069.946 462.915 C 1069.732 463.004 1069.512 463.046 1069.293 463.046" style="fill:#ffffff;fill-opacity:1;fill-rule:nonzero;stroke:none" id="path340"/>
  <path d="M 894.204 463.046 C 894.863 463.046 895.488 462.658 895.759 462.012 C 901.871 447.466 895.976 439.27 890.775 432.04 C 885.763 425.076 881.434 419.059 887.604 407.906 C 888.056 407.089 887.762 406.065 886.946 405.613 C 886.134 405.169 885.102 405.455 884.652 406.271 C 877.446 419.294 882.83 426.776 888.036 434.012 C 893.175 441.155 898.03 447.9 892.65 460.707 C 892.288 461.564 892.692 462.552 893.551 462.915 C 893.764 463.004 893.986 463.046 894.204 463.046" style="fill:#ffffff;fill-opacity:1;fill-rule:nonzero;stroke:none" id="path342"/>
  <path d="M 1075.461 434.012 C 1090.29 420.656 1102.081 429.862 1105.15 433.498 C 1092.552 444.239 1078.2 435.982 1075.461 434.012" style="fill:#ffffff;fill-opacity:1;fill-rule:nonzero;stroke:none" id="path344"/>
  <path d="M 888.036 434.012 C 873.206 420.656 861.415 429.862 858.346 433.498 C 870.944 444.239 885.296 435.982 888.036 434.012" style="fill:#ffffff;fill-opacity:1;fill-rule:nonzero;stroke:none" id="path346"/>
  <path d="M 1066.593 442.448 C 1063.962 422.272 1042.905 424.048 1042.905 424.048 C 1042.905 424.048 1048.55 445.182 1066.593 442.448" style="fill:#ffffff;fill-opacity:1;fill-rule:nonzero;stroke:none" id="path348"/>
  <path d="M 896.903 442.448 C 899.534 422.272 920.591 424.048 920.591 424.048 C 920.591 424.048 914.945 445.182 896.903 442.448" style="fill:#ffffff;fill-opacity:1;fill-rule:nonzero;stroke:none" id="path350"/>
  <path d="M 1072.72 432.04 C 1077.045 419.527 1062.509 415.327 1062.509 415.327 C 1062.509 415.327 1062.981 426.627 1072.72 432.04" style="fill:#ffffff;fill-opacity:1;fill-rule:nonzero;stroke:none" id="path352"/>
  <path d="M 890.775 432.04 C 886.451 419.527 900.988 415.327 900.988 415.327 C 900.988 415.327 900.516 426.627 890.775 432.04" style="fill:#ffffff;fill-opacity:1;fill-rule:nonzero;stroke:none" id="path354"/>
  <path d="M 1155.402 465.139 C 1154.698 465.139 1154.042 464.696 1153.804 463.995 C 1150.301 453.686 1153.445 446.615 1156.217 440.376 C 1158.849 434.46 1160.927 429.784 1156.583 423.56 C 1146.16 408.618 1161.05 394.986 1161.203 394.853 C 1161.897 394.229 1162.961 394.285 1163.582 394.979 C 1164.206 395.671 1164.147 396.739 1163.458 397.362 C 1162.93 397.837 1150.645 409.151 1159.353 421.63 C 1164.785 429.415 1161.997 435.686 1159.301 441.748 C 1156.655 447.698 1153.918 453.851 1156.999 462.908 C 1157.301 463.791 1156.826 464.751 1155.945 465.05 C 1155.763 465.108 1155.581 465.139 1155.402 465.139" style="fill:#ffffff;fill-opacity:1;fill-rule:nonzero;stroke:none" id="path356"/>
  <path d="M 808.094 465.139 C 808.798 465.139 809.454 464.696 809.692 463.995 C 813.196 453.686 810.052 446.615 807.279 440.376 C 804.648 434.46 802.568 429.784 806.912 423.56 C 817.336 408.618 802.444 394.986 802.292 394.853 C 801.6 394.229 800.535 394.285 799.914 394.979 C 799.29 395.671 799.348 396.739 800.038 397.362 C 800.566 397.837 812.851 409.151 804.143 421.63 C 798.712 429.415 801.499 435.686 804.196 441.748 C 806.84 447.698 809.578 453.851 806.496 462.908 C 806.196 463.791 806.67 464.751 807.551 465.05 C 807.732 465.108 807.915 465.139 808.094 465.139" style="fill:#ffffff;fill-opacity:1;fill-rule:nonzero;stroke:none" id="path358"/>
  <path d="M 992.803 411.289 L 971.663 411.289 C 967.391 411.289 963.927 407.826 963.927 403.553 L 963.927 344.617 C 963.927 340.345 967.391 336.881 971.663 336.881 L 992.803 336.881 C 997.076 336.881 1000.539 340.345 1000.539 344.617 L 1000.539 403.553 C 1000.539 407.826 997.076 411.289 992.803 411.289" style="fill:#0f1241;fill-opacity:1;fill-rule:nonzero;stroke:none" id="path360"/>
  <path d="M 992.803 406.121 L 971.663 406.121 C 970.952 406.121 970.317 405.838 969.848 405.369 C 969.377 404.898 969.095 404.263 969.095 403.553 L 969.095 344.617 C 969.095 343.907 969.377 343.271 969.848 342.802 C 970.317 342.331 970.952 342.05 971.663 342.05 L 992.803 342.05 C 993.513 342.05 994.148 342.331 994.619 342.802 C 995.088 343.271 995.369 343.907 995.369 344.617 L 995.369 403.553 C 995.369 404.263 995.088 404.898 994.619 405.369 C 994.148 405.838 993.513 406.121 992.803 406.121" style="fill-opacity: 1; fill-rule: nonzero; stroke: none; fill: rgb(0, 148, 248);" id="path362"/>
  <path d="M 989.985 359.01 C 989.985 363.293 986.515 366.762 982.233 366.762 C 977.951 366.762 974.48 363.293 974.48 359.01 C 974.48 354.727 977.951 351.257 982.233 351.257 C 986.515 351.257 989.985 354.727 989.985 359.01" style="fill:#ffffff;fill-opacity:1;fill-rule:nonzero;stroke:none" id="path364"/>
  <path d="M 988.047 376.023 L 976.417 376.023 C 975.352 376.023 974.48 375.15 974.48 374.085 C 974.48 373.019 975.352 372.146 976.417 372.146 L 988.047 372.146 C 989.113 372.146 989.985 373.019 989.985 374.085 C 989.985 375.15 989.113 376.023 988.047 376.023" style="fill:#0f1241;fill-opacity:1;fill-rule:nonzero;stroke:none" id="path366"/>
  <path d="M 988.047 383.221 L 976.417 383.221 C 975.352 383.221 974.48 382.347 974.48 381.282 C 974.48 380.215 975.352 379.343 976.417 379.343 L 988.047 379.343 C 989.113 379.343 989.985 380.215 989.985 381.282 C 989.985 382.347 989.113 383.221 988.047 383.221" style="fill:#0f1241;fill-opacity:1;fill-rule:nonzero;stroke:none" id="path368"/>
  <path d="M 988.047 390.418 L 976.417 390.418 C 975.352 390.418 974.48 389.545 974.48 388.478 C 974.48 387.413 975.352 386.539 976.417 386.539 L 988.047 386.539 C 989.113 386.539 989.985 387.413 989.985 388.478 C 989.985 389.545 989.113 390.418 988.047 390.418" style="fill:#0f1241;fill-opacity:1;fill-rule:nonzero;stroke:none" id="path370"/>
  <path d="M 988.047 397.613 L 976.417 397.613 C 975.352 397.613 974.48 396.742 974.48 395.675 C 974.48 394.609 975.352 393.737 976.417 393.737 L 988.047 393.737 C 989.113 393.737 989.985 394.609 989.985 395.675 C 989.985 396.742 989.113 397.613 988.047 397.613" style="fill:#0f1241;fill-opacity:1;fill-rule:nonzero;stroke:none" id="path372"/>
  <path d="M 1080.753 411.289 L 1059.613 411.289 C 1055.341 411.289 1051.877 407.826 1051.877 403.553 L 1051.877 344.617 C 1051.877 340.345 1055.341 336.881 1059.613 336.881 L 1080.753 336.881 C 1085.025 336.881 1088.489 340.345 1088.489 344.617 L 1088.489 403.553 C 1088.489 407.826 1085.025 411.289 1080.753 411.289" style="fill:#0f1241;fill-opacity:1;fill-rule:nonzero;stroke:none" id="path374"/>
  <path d="M 1080.753 406.121 L 1059.613 406.121 C 1058.902 406.121 1058.268 405.838 1057.798 405.369 C 1057.328 404.898 1057.046 404.263 1057.046 403.553 L 1057.046 344.617 C 1057.046 343.907 1057.328 343.271 1057.798 342.802 C 1058.268 342.331 1058.902 342.05 1059.613 342.05 L 1080.753 342.05 C 1081.464 342.05 1082.098 342.331 1082.569 342.802 C 1083.038 343.271 1083.32 343.907 1083.32 344.617 L 1083.32 403.553 C 1083.32 404.263 1083.038 404.898 1082.569 405.369 C 1082.098 405.838 1081.464 406.121 1080.753 406.121" style="fill-opacity: 1; fill-rule: nonzero; stroke: none; fill: rgb(0, 148, 248);" id="path376"/>
  <path d="M 1077.936 359.01 C 1077.936 363.293 1074.465 366.762 1070.184 366.762 C 1065.901 366.762 1062.43 363.293 1062.43 359.01 C 1062.43 354.727 1065.901 351.257 1070.184 351.257 C 1074.465 351.257 1077.936 354.727 1077.936 359.01" style="fill:#ffffff;fill-opacity:1;fill-rule:nonzero;stroke:none" id="path378"/>
  <path d="M 1075.998 376.023 L 1064.368 376.023 C 1063.302 376.023 1062.43 375.15 1062.43 374.085 C 1062.43 373.019 1063.302 372.146 1064.368 372.146 L 1075.998 372.146 C 1077.064 372.146 1077.936 373.019 1077.936 374.085 C 1077.936 375.15 1077.064 376.023 1075.998 376.023" style="fill:#0f1241;fill-opacity:1;fill-rule:nonzero;stroke:none" id="path380"/>
  <path d="M 1075.998 383.221 L 1064.368 383.221 C 1063.302 383.221 1062.43 382.347 1062.43 381.282 C 1062.43 380.215 1063.302 379.343 1064.368 379.343 L 1075.998 379.343 C 1077.064 379.343 1077.936 380.215 1077.936 381.282 C 1077.936 382.347 1077.064 383.221 1075.998 383.221" style="fill:#0f1241;fill-opacity:1;fill-rule:nonzero;stroke:none" id="path382"/>
  <path d="M 1075.998 390.418 L 1064.368 390.418 C 1063.302 390.418 1062.43 389.545 1062.43 388.478 C 1062.43 387.413 1063.302 386.539 1064.368 386.539 L 1075.998 386.539 C 1077.064 386.539 1077.936 387.413 1077.936 388.478 C 1077.936 389.545 1077.064 390.418 1075.998 390.418" style="fill:#0f1241;fill-opacity:1;fill-rule:nonzero;stroke:none" id="path384"/>
  <path d="M 1075.998 397.613 L 1064.368 397.613 C 1063.302 397.613 1062.43 396.742 1062.43 395.675 C 1062.43 394.609 1063.302 393.737 1064.368 393.737 L 1075.998 393.737 C 1077.064 393.737 1077.936 394.609 1077.936 395.675 C 1077.936 396.742 1077.064 397.613 1075.998 397.613" style="fill:#0f1241;fill-opacity:1;fill-rule:nonzero;stroke:none" id="path386"/>
  <path d="M 882.743 411.289 L 903.884 411.289 C 908.156 411.289 911.619 407.826 911.619 403.553 L 911.619 344.617 C 911.619 340.345 908.156 336.881 903.884 336.881 L 882.743 336.881 C 878.47 336.881 875.007 340.345 875.007 344.617 L 875.007 403.553 C 875.007 407.826 878.47 411.289 882.743 411.289" style="fill:#0f1241;fill-opacity:1;fill-rule:nonzero;stroke:none" id="path388"/>
  <path d="M 882.743 406.121 L 903.884 406.121 C 904.594 406.121 905.228 405.838 905.698 405.369 C 906.168 404.898 906.45 404.263 906.45 403.553 L 906.45 344.617 C 906.45 343.907 906.168 343.271 905.698 342.802 C 905.228 342.331 904.594 342.05 903.884 342.05 L 882.743 342.05 C 882.032 342.05 881.398 342.331 880.928 342.802 C 880.458 343.271 880.176 343.907 880.176 344.617 L 880.176 403.553 C 880.176 404.263 880.458 404.898 880.928 405.369 C 881.398 405.838 882.032 406.121 882.743 406.121" style="fill-opacity: 1; fill-rule: nonzero; stroke: none; fill: rgb(0, 148, 248);" id="path390"/>
  <path d="M 885.56 359.01 C 885.56 363.293 889.031 366.762 893.314 366.762 C 897.595 366.762 901.066 363.293 901.066 359.01 C 901.066 354.727 897.595 351.257 893.314 351.257 C 889.031 351.257 885.56 354.727 885.56 359.01" style="fill:#ffffff;fill-opacity:1;fill-rule:nonzero;stroke:none" id="path392"/>
  <path d="M 887.498 376.023 L 899.128 376.023 C 900.194 376.023 901.066 375.15 901.066 374.085 C 901.066 373.019 900.194 372.146 899.128 372.146 L 887.498 372.146 C 886.432 372.146 885.56 373.019 885.56 374.085 C 885.56 375.15 886.432 376.023 887.498 376.023" style="fill:#0f1241;fill-opacity:1;fill-rule:nonzero;stroke:none" id="path394"/>
  <path d="M 887.498 383.221 L 899.128 383.221 C 900.194 383.221 901.066 382.347 901.066 381.282 C 901.066 380.215 900.194 379.343 899.128 379.343 L 887.498 379.343 C 886.432 379.343 885.56 380.215 885.56 381.282 C 885.56 382.347 886.432 383.221 887.498 383.221" style="fill:#0f1241;fill-opacity:1;fill-rule:nonzero;stroke:none" id="path396"/>
  <path d="M 887.498 390.418 L 899.128 390.418 C 900.194 390.418 901.066 389.545 901.066 388.478 C 901.066 387.413 900.194 386.539 899.128 386.539 L 887.498 386.539 C 886.432 386.539 885.56 387.413 885.56 388.478 C 885.56 389.545 886.432 390.418 887.498 390.418" style="fill:#0f1241;fill-opacity:1;fill-rule:nonzero;stroke:none" id="path398"/>
  <path d="M 887.498 397.613 L 899.128 397.613 C 900.194 397.613 901.066 396.742 901.066 395.675 C 901.066 394.609 900.194 393.737 899.128 393.737 L 887.498 393.737 C 886.432 393.737 885.56 394.609 885.56 395.675 C 885.56 396.742 886.432 397.613 887.498 397.613" style="fill:#0f1241;fill-opacity:1;fill-rule:nonzero;stroke:none" id="path400"/>
  <path d="M 1168.703 411.289 L 1147.564 411.289 C 1143.292 411.289 1139.828 407.826 1139.828 403.553 L 1139.828 344.617 C 1139.828 340.345 1143.292 336.881 1147.564 336.881 L 1168.703 336.881 C 1172.975 336.881 1176.439 340.345 1176.439 344.617 L 1176.439 403.553 C 1176.439 407.826 1172.975 411.289 1168.703 411.289" style="fill:#0f1241;fill-opacity:1;fill-rule:nonzero;stroke:none" id="path402"/>
  <path d="M 1168.703 406.121 L 1147.564 406.121 C 1146.853 406.121 1146.218 405.838 1145.748 405.369 C 1145.278 404.898 1144.997 404.263 1144.997 403.553 L 1144.997 344.617 C 1144.997 343.907 1145.278 343.271 1145.748 342.802 C 1146.218 342.331 1146.853 342.05 1147.564 342.05 L 1168.703 342.05 C 1169.414 342.05 1170.049 342.331 1170.519 342.802 C 1170.989 343.271 1171.27 343.907 1171.27 344.617 L 1171.27 403.553 C 1171.27 404.263 1170.989 404.898 1170.519 405.369 C 1170.049 405.838 1169.414 406.121 1168.703 406.121" style="fill-opacity: 1; fill-rule: nonzero; stroke: none; fill: rgb(0, 148, 248);" id="path404"/>
  <path d="M 1165.887 359.01 C 1165.887 363.293 1162.415 366.762 1158.134 366.762 C 1153.853 366.762 1150.381 363.293 1150.381 359.01 C 1150.381 354.727 1153.853 351.257 1158.134 351.257 C 1162.415 351.257 1165.887 354.727 1165.887 359.01" style="fill:#ffffff;fill-opacity:1;fill-rule:nonzero;stroke:none" id="path406"/>
  <path d="M 1163.949 376.023 L 1152.318 376.023 C 1151.253 376.023 1150.381 375.15 1150.381 374.085 C 1150.381 373.019 1151.253 372.146 1152.318 372.146 L 1163.949 372.146 C 1165.015 372.146 1165.887 373.019 1165.887 374.085 C 1165.887 375.15 1165.015 376.023 1163.949 376.023" style="fill:#0f1241;fill-opacity:1;fill-rule:nonzero;stroke:none" id="path408"/>
  <path d="M 1163.949 383.221 L 1152.318 383.221 C 1151.253 383.221 1150.381 382.347 1150.381 381.282 C 1150.381 380.215 1151.253 379.343 1152.318 379.343 L 1163.949 379.343 C 1165.015 379.343 1165.887 380.215 1165.887 381.282 C 1165.887 382.347 1165.015 383.221 1163.949 383.221" style="fill:#0f1241;fill-opacity:1;fill-rule:nonzero;stroke:none" id="path410"/>
  <path d="M 1163.949 390.418 L 1152.318 390.418 C 1151.253 390.418 1150.381 389.545 1150.381 388.478 C 1150.381 387.413 1151.253 386.539 1152.318 386.539 L 1163.949 386.539 C 1165.015 386.539 1165.887 387.413 1165.887 388.478 C 1165.887 389.545 1165.015 390.418 1163.949 390.418" style="fill:#0f1241;fill-opacity:1;fill-rule:nonzero;stroke:none" id="path412"/>
  <path d="M 1163.949 397.613 L 1152.318 397.613 C 1151.253 397.613 1150.381 396.742 1150.381 395.675 C 1150.381 394.609 1151.253 393.737 1152.318 393.737 L 1163.949 393.737 C 1165.015 393.737 1165.887 394.609 1165.887 395.675 C 1165.887 396.742 1165.015 397.613 1163.949 397.613" style="fill:#0f1241;fill-opacity:1;fill-rule:nonzero;stroke:none" id="path414"/>
  <path d="M 794.792 411.289 L 815.932 411.289 C 820.204 411.289 823.668 407.826 823.668 403.553 L 823.668 344.617 C 823.668 340.345 820.204 336.881 815.932 336.881 L 794.792 336.881 C 790.52 336.881 787.057 340.345 787.057 344.617 L 787.057 403.553 C 787.057 407.826 790.52 411.289 794.792 411.289" style="fill:#0f1241;fill-opacity:1;fill-rule:nonzero;stroke:none" id="path416"/>
  <path d="M 794.792 406.121 L 815.932 406.121 C 816.643 406.121 817.278 405.838 817.748 405.369 C 818.218 404.898 818.499 404.263 818.499 403.553 L 818.499 344.617 C 818.499 343.907 818.218 343.271 817.748 342.802 C 817.278 342.331 816.643 342.05 815.932 342.05 L 794.792 342.05 C 794.082 342.05 793.447 342.331 792.978 342.802 C 792.507 343.271 792.226 343.907 792.226 344.617 L 792.226 403.553 C 792.226 404.263 792.507 404.898 792.978 405.369 C 793.447 405.838 794.082 406.121 794.792 406.121" style="fill-opacity: 1; fill-rule: nonzero; stroke: none; fill: rgb(0, 148, 248);" id="path418"/>
  <path d="M 797.61 359.01 C 797.61 363.293 801.082 366.762 805.363 366.762 C 809.644 366.762 813.115 363.293 813.115 359.01 C 813.115 354.727 809.644 351.257 805.363 351.257 C 801.082 351.257 797.61 354.727 797.61 359.01" style="fill:#ffffff;fill-opacity:1;fill-rule:nonzero;stroke:none" id="path420"/>
  <path d="M 799.548 376.023 L 811.178 376.023 C 812.243 376.023 813.115 375.15 813.115 374.085 C 813.115 373.019 812.243 372.146 811.178 372.146 L 799.548 372.146 C 798.482 372.146 797.61 373.019 797.61 374.085 C 797.61 375.15 798.482 376.023 799.548 376.023" style="fill:#0f1241;fill-opacity:1;fill-rule:nonzero;stroke:none" id="path422"/>
  <path d="M 799.548 383.221 L 811.178 383.221 C 812.243 383.221 813.115 382.347 813.115 381.282 C 813.115 380.215 812.243 379.343 811.178 379.343 L 799.548 379.343 C 798.482 379.343 797.61 380.215 797.61 381.282 C 797.61 382.347 798.482 383.221 799.548 383.221" style="fill:#0f1241;fill-opacity:1;fill-rule:nonzero;stroke:none" id="path424"/>
  <path d="M 799.548 390.418 L 811.178 390.418 C 812.243 390.418 813.115 389.545 813.115 388.478 C 813.115 387.413 812.243 386.539 811.178 386.539 L 799.548 386.539 C 798.482 386.539 797.61 387.413 797.61 388.478 C 797.61 389.545 798.482 390.418 799.548 390.418" style="fill:#0f1241;fill-opacity:1;fill-rule:nonzero;stroke:none" id="path426"/>
  <path d="M 799.548 397.613 L 811.178 397.613 C 812.243 397.613 813.115 396.742 813.115 395.675 C 813.115 394.609 812.243 393.737 811.178 393.737 L 799.548 393.737 C 798.482 393.737 797.61 394.609 797.61 395.675 C 797.61 396.742 798.482 397.613 799.548 397.613" style="fill:#0f1241;fill-opacity:1;fill-rule:nonzero;stroke:none" id="path428"/>
  <path d="M 995.369 322.474 C 995.223 322.474 995.075 322.433 994.943 322.346 C 987.219 317.257 977.24 317.257 969.524 322.346 C 969.168 322.585 968.681 322.485 968.447 322.126 C 968.208 321.766 968.307 321.283 968.667 321.047 C 976.909 315.618 987.56 315.618 995.8 321.047 C 996.157 321.283 996.256 321.766 996.02 322.126 C 995.871 322.351 995.623 322.474 995.369 322.474" style="fill-opacity: 1; fill-rule: nonzero; stroke: none; fill: rgb(154, 154, 154);" id="path430"/>
  <path d="M 1001.42 313.291 C 1001.272 313.291 1001.124 313.251 1000.992 313.163 C 995.407 309.485 988.92 307.539 982.233 307.539 C 975.545 307.539 969.059 309.485 963.473 313.163 C 963.119 313.398 962.632 313.301 962.396 312.942 C 962.159 312.583 962.26 312.101 962.617 311.865 C 968.457 308.018 975.24 305.985 982.233 305.985 C 989.225 305.985 996.008 308.018 1001.849 311.865 C 1002.205 312.101 1002.305 312.583 1002.069 312.942 C 1001.92 313.169 1001.672 313.291 1001.42 313.291" style="fill-opacity: 1; fill-rule: nonzero; stroke: none; fill: rgb(154, 154, 154);" id="path432"/>
  <path d="M 1007.469 304.11 C 1007.321 304.11 1007.173 304.07 1007.04 303.981 C 999.657 299.115 991.08 296.543 982.233 296.543 C 973.387 296.543 964.808 299.115 957.424 303.981 C 957.069 304.219 956.585 304.123 956.347 303.761 C 956.109 303.402 956.208 302.919 956.568 302.685 C 964.207 297.649 973.081 294.989 982.233 294.989 C 991.385 294.989 1000.259 297.649 1007.899 302.685 C 1008.256 302.919 1008.356 303.402 1008.119 303.761 C 1007.969 303.987 1007.721 304.11 1007.469 304.11" style="fill-opacity: 1; fill-rule: nonzero; stroke: none; fill: rgb(154, 154, 154);" id="path434"/>
  <path d="M 1013.519 294.928 C 1013.371 294.928 1013.223 294.886 1013.091 294.8 C 1003.907 288.749 993.236 285.549 982.233 285.549 C 971.231 285.549 960.56 288.749 951.375 294.8 C 951.019 295.038 950.533 294.941 950.297 294.578 C 950.06 294.22 950.159 293.737 950.519 293.501 C 959.959 287.28 970.925 283.993 982.233 283.993 C 993.54 283.993 1004.508 287.28 1013.948 293.501 C 1014.305 293.737 1014.405 294.22 1014.168 294.578 C 1014.02 294.804 1013.771 294.928 1013.519 294.928" style="fill-opacity: 1; fill-rule: nonzero; stroke: none; fill: rgb(154, 154, 154);" id="path436"/>
  <path d="M 869.168 474.506 C 882.412 453.768 907.772 453.246 919.24 474.506 L 869.168 474.506" style="fill:#0f1241;fill-opacity:1;fill-rule:nonzero;stroke:none" id="path438"/>
  <path d="M 783.238 474.506 C 796.483 453.768 821.842 453.246 833.31 474.506 L 783.238 474.506" style="fill:#0f1241;fill-opacity:1;fill-rule:nonzero;stroke:none" id="path440"/>
  <path d="M 1013.029 474.506 C 1013.029 460.015 998.815 458.291 993.861 464.968 C 987.617 455.707 975.772 457.152 969.957 465.828 C 960.48 453.768 948.852 466.814 952.513 474.506 L 1013.029 474.506" style="fill:#0f1241;fill-opacity:1;fill-rule:nonzero;stroke:none" id="path442"/>
  <path d="M 1094.329 474.506 C 1081.084 453.768 1055.725 453.246 1044.256 474.506 L 1094.329 474.506" style="fill:#0f1241;fill-opacity:1;fill-rule:nonzero;stroke:none" id="path444"/>
  <path d="M 1180.257 474.506 C 1167.014 453.768 1141.654 453.246 1130.186 474.506 L 1180.257 474.506" style="fill:#0f1241;fill-opacity:1;fill-rule:nonzero;stroke:none" id="path446"/>
  <path d="M 811.164 505.617 C 811.164 507.312 809.79 508.687 808.095 508.687 C 806.4 508.687 805.026 507.312 805.026 505.617 C 805.026 503.922 806.4 502.548 808.095 502.548 C 809.79 502.548 811.164 503.922 811.164 505.617" style="fill-opacity: 1; fill-rule: nonzero; stroke: none; fill: rgb(0, 213, 129);" id="path448"/>
  <path d="M 897.092 505.617 C 897.092 507.312 895.719 508.687 894.024 508.687 C 892.33 508.687 890.955 507.312 890.955 505.617 C 890.955 503.922 892.33 502.548 894.024 502.548 C 895.719 502.548 897.092 503.922 897.092 505.617" style="fill-opacity: 1; fill-rule: nonzero; stroke: none; fill: rgb(0, 213, 129);" id="path450"/>
  <path d="M 984.817 505.617 C 984.817 507.312 983.443 508.687 981.748 508.687 C 980.053 508.687 978.68 507.312 978.68 505.617 C 978.68 503.922 980.053 502.548 981.748 502.548 C 983.443 502.548 984.817 503.922 984.817 505.617" style="fill-opacity: 1; fill-rule: nonzero; stroke: none; fill: rgb(0, 213, 129);" id="path452"/>
  <path d="M 1072.541 505.617 C 1072.541 507.312 1071.168 508.687 1069.472 508.687 C 1067.777 508.687 1066.404 507.312 1066.404 505.617 C 1066.404 503.922 1067.777 502.548 1069.472 502.548 C 1071.168 502.548 1072.541 503.922 1072.541 505.617" style="fill-opacity: 1; fill-rule: nonzero; stroke: none; fill: rgb(0, 213, 129);" id="path454"/>
  <path d="M 1158.47 505.617 C 1158.47 507.312 1157.095 508.687 1155.402 508.687 C 1153.706 508.687 1152.333 507.312 1152.333 505.617 C 1152.333 503.922 1153.706 502.548 1155.402 502.548 C 1157.095 502.548 1158.47 503.922 1158.47 505.617" style="fill-opacity: 1; fill-rule: nonzero; stroke: none; fill: rgb(0, 213, 129);" id="path456"/>
  <path d="M 949.599 566.257 L 787.545 566.257 C 834.68 540.615 899.495 538.862 949.599 566.257" style="fill-opacity: 1; fill-rule: nonzero; stroke: none; fill: rgb(58, 39, 39);" id="path458"/>
  <path d="M 1210.307 532.652 L 1210.307 566.257 L 1168.774 566.257 C 1192.931 559.038 1204.639 544.832 1210.307 532.652" style="fill:#0f1241;fill-opacity:1;fill-rule:nonzero;stroke:none" id="path460"/>
  <path d="M 784.025 514.838 C 785.013 517.579 781.081 521.51 775.238 523.619 C 769.397 525.728 763.859 525.216 762.869 522.475 C 761.879 519.735 765.813 515.803 771.655 513.693 C 777.497 511.584 783.034 512.096 784.025 514.838" style="fill:#ffffff;fill-opacity:1;fill-rule:nonzero;stroke:none" id="path462"/>
  <path d="M 791.852 512.347 C 791.852 513.775 790.695 514.931 789.269 514.931 C 787.842 514.931 786.685 513.775 786.685 512.347 C 786.685 510.919 787.842 509.763 789.269 509.763 C 790.695 509.763 791.852 510.919 791.852 512.347" style="fill-opacity: 1; fill-rule: nonzero; stroke: none; fill: rgb(75, 52, 52);" id="path464"/>
  <path d="M 1133.416 562.15 L 1101.489 562.15 C 1100.422 562.15 1099.552 561.277 1099.552 560.211 C 1099.552 559.145 1100.422 558.274 1101.489 558.274 L 1133.416 558.274 C 1134.482 558.274 1135.356 559.145 1135.356 560.211 C 1135.356 561.277 1134.482 562.15 1133.416 562.15" style="fill-opacity: 1; fill-rule: nonzero; stroke: none; fill: rgb(75, 52, 52);" id="path466"/>
  <path d="M 238.425 146.387 C 218.743 132.253 206.207 142.177 206.207 142.177 C 206.207 142.177 221.022 158.952 238.425 146.387" style="fill-opacity: 1; fill-rule: nonzero; stroke: none; fill: rgb(0, 213, 129);" id="path468"/>
  <path d="M 259.225 159.501 C 248.517 142.44 255.829 131.731 263.142 128.597 C 273.85 139.567 266.798 153.844 259.225 159.501" style="fill-opacity: 1; fill-rule: nonzero; stroke: none; fill: rgb(0, 213, 129);" id="path470"/>
  <path d="M 297.381 174.988 C 296.05 158.632 282.778 151.731 274.634 151.056 C 275.155 163.332 288.266 172.016 297.381 174.988" style="fill-opacity: 1; fill-rule: nonzero; stroke: none; fill: rgb(0, 213, 129);" id="path472"/>
  <path d="M 268.607 164.755 C 244.337 160.721 241.602 184.488 241.602 184.488 C 241.602 184.488 263.887 184.982 268.607 164.755" style="fill-opacity: 1; fill-rule: nonzero; stroke: none; fill: rgb(0, 213, 129);" id="path474"/>
  <path d="M 327.667 169.604 C 326.735 154.825 308.898 143.231 297.381 144.924 C 302.318 164.639 319.847 169.345 327.667 169.604" style="fill-opacity: 1; fill-rule: nonzero; stroke: none; fill: rgb(0, 213, 129);" id="path476"/>
  <path d="M 303.165 126.304 C 294.222 116.844 281.138 114.755 272.401 117.889 C 278.811 130.948 297.221 130.54 303.165 126.304" style="fill-opacity: 1; fill-rule: nonzero; stroke: none; fill: rgb(0, 213, 129);" id="path478"/>
  <path d="M 315.688 139.797 C 309.368 123.635 319.598 108.748 329.37 105.092 C 335.747 123.896 323.575 135.591 315.688 139.797" style="fill-opacity: 1; fill-rule: nonzero; stroke: none; fill: rgb(0, 213, 129);" id="path480"/>
  <path d="M 356.792 128.597 C 359.252 103.785 341.546 95.321 341.546 95.321 C 341.546 95.321 328.215 112.143 356.792 128.597" style="fill-opacity: 1; fill-rule: nonzero; stroke: none; fill: rgb(0, 213, 129);" id="path482"/>
  <path d="M 348.088 169.604 C 351.156 151.057 368.122 146.879 368.122 146.879 C 368.122 146.879 366.436 167.779 348.088 169.604" style="fill-opacity: 1; fill-rule: nonzero; stroke: none; fill: rgb(0, 213, 129);" id="path484"/>
  <path d="M 357.027 80.1 C 336.53 62.52 324.778 72.445 324.778 72.445 C 324.778 72.445 338.87 90.891 357.027 80.1" style="fill-opacity: 1; fill-rule: nonzero; stroke: none; fill: rgb(0, 213, 129);" id="path486"/>
  <path d="M 350.591 71.232 C 349.328 50.507 356.118 38.755 373.356 37.71 C 378.579 55.731 360.995 68.188 350.591 71.232" style="fill-opacity: 1; fill-rule: nonzero; stroke: none; fill: rgb(0, 213, 129);" id="path488"/>
  <path d="M 312.679 200.022 C 313.063 200.022 313.436 199.85 313.687 199.52 C 341.492 162.439 326.92 148.663 314.066 136.505 C 306.212 129.083 298.79 122.068 301.71 110.268 C 301.875 109.593 301.465 108.911 300.794 108.747 C 300.122 108.576 299.435 108.992 299.27 109.665 C 295.999 122.889 304.304 130.743 312.338 138.336 C 325.019 150.327 338.135 162.727 311.672 198.013 C 311.256 198.566 311.37 199.354 311.923 199.773 C 312.152 199.941 312.418 200.022 312.679 200.022" style="fill-opacity: 1; fill-rule: nonzero; stroke: none; fill: rgb(1, 185, 112);" id="path490"/>
  <path d="M 309.542 200.022 C 310.134 200.022 310.655 199.608 310.778 199.009 C 315.002 177.54 295.087 171.504 275.823 165.668 C 253.042 158.763 229.482 151.621 237.629 120.559 C 237.805 119.887 237.405 119.196 236.733 119.02 C 236.057 118.865 235.369 119.248 235.198 119.917 C 226.43 153.327 252.285 161.163 275.098 168.073 C 294.949 174.091 312.094 179.285 308.306 198.524 C 308.172 199.205 308.614 199.866 309.296 200 C 309.382 200.014 309.462 200.022 309.542 200.022" style="fill-opacity: 1; fill-rule: nonzero; stroke: none; fill: rgb(1, 185, 112);" id="path492"/>
  <path d="M 352.36 200.022 C 352.968 200.022 353.5 199.589 353.602 198.973 C 355.508 187.564 353.228 180.992 351.024 174.637 C 347.571 164.696 344.31 155.307 359.062 126.913 C 374.002 98.168 360.171 81.061 349.062 67.312 C 341.976 58.54 335.85 50.966 338.934 42.491 C 339.168 41.838 338.834 41.118 338.183 40.88 C 337.518 40.659 336.803 40.98 336.57 41.632 C 333.004 51.442 339.536 59.529 347.108 68.895 C 358.311 82.759 371.007 98.469 356.835 125.752 C 341.578 155.108 345.007 164.996 348.647 175.462 C 350.747 181.52 352.919 187.782 351.119 198.558 C 351.007 199.242 351.466 199.893 352.152 200.006 C 352.222 200.017 352.291 200.022 352.36 200.022" style="fill-opacity: 1; fill-rule: nonzero; stroke: none; fill: rgb(1, 185, 112);" id="path494"/>
  <path d="M 480.523 298.009 C 515.693 313.679 539.025 310.545 539.025 310.545 L 542.159 320.297 L 465.2 343.278 L 480.523 298.009" style="fill:#79d1d4;fill-opacity:1;fill-rule:nonzero;stroke:none" id="path496"/>
  <path d="M 425.152 495.781 C 432.844 519.403 447.247 566.212 454.557 615.967 C 444.356 656.501 456.576 693.49 466.723 742.045 C 467.869 747.39 468.96 752.901 469.997 758.521 C 470.597 761.74 471.196 765.013 471.743 768.341 C 473.107 776.47 474.307 784.979 475.288 793.871 L 492.692 793.871 C 492.964 786.562 493.237 779.416 493.509 772.432 C 493.673 767.741 493.892 763.104 494.056 758.521 C 495.256 730.478 496.511 704.565 497.765 680.616 C 504.693 548.644 510.749 476.687 496.184 441.66 C 492.473 432.714 487.4 426.167 480.689 421.639 L 408.948 412.419 L 407.04 412.201 C 407.04 412.201 404.258 431.732 425.152 495.781" style="fill-opacity: 1; fill-rule: nonzero; stroke: none; fill: rgb(15, 18, 65);" id="path498"/>
  <path d="M 293.509 750.72 L 307.475 763.266 L 312.166 758.084 L 328.971 739.262 L 372.943 690.216 L 409.931 649.028 C 418.168 639.807 423.734 628.624 426.135 616.512 C 433.553 578.813 449.539 492.181 452.539 433.97 C 452.92 426.984 453.084 420.384 453.029 414.329 L 396.074 421.639 C 384.016 435.387 376.107 448.644 371.196 461.575 C 371.142 461.628 371.087 461.628 371.142 461.684 C 351.666 513.129 379.762 559.72 384.78 614.221 C 339.335 641.826 333.771 667.249 314.622 709.584 C 312.876 713.458 311.022 717.44 309.003 721.585 C 305.456 728.952 301.474 736.752 296.674 745.154 C 295.691 746.954 294.601 748.809 293.509 750.72" style="fill:#0f1241;fill-opacity:1;fill-rule:nonzero;stroke:none" id="path500"/>
  <path d="M 408.948 412.419 L 452.539 433.97 C 467.76 423.167 484.017 431.078 496.184 441.66 C 492.473 432.714 487.4 426.167 480.689 421.639 L 408.948 412.419" style="fill:#0f1241;fill-opacity:1;fill-rule:nonzero;stroke:none" id="path502"/>
  <path d="M 371.196 461.575 C 394.492 433.259 433.499 424.422 452.539 433.97 C 452.92 426.984 453.084 420.384 453.029 414.329 L 396.074 421.639 C 384.016 435.387 376.107 448.644 371.196 461.575" style="fill-opacity: 1; fill-rule: nonzero; stroke: none; fill: rgb(15, 18, 65);" id="path504"/>
  <path d="M 544.075 327.783 C 564.734 327.431 582.901 319.947 594.044 311.938 C 599.553 307.978 600.117 298.983 598.222 292.786 C 592.477 273.981 556.109 304.691 556.109 304.691 C 556.109 304.691 568.385 282.928 564.968 277.638 C 560.641 270.941 539.373 312.113 539.373 312.113 L 544.075 327.783" style="fill:#ffbdc2;fill-opacity:1;fill-rule:nonzero;stroke:none" id="path506"/>
  <path d="M 484.273 63.059 C 504.916 64.375 541.651 113.728 493.913 141.793 C 465.945 151.776 454.076 91.607 484.273 63.059" style="fill-opacity: 1; fill-rule: nonzero; stroke: none; fill: rgb(48, 65, 60);" id="path508"/>
  <path d="M 497.025 93.727 C 500.216 140.716 493.684 189.041 466.347 179.649 C 466.347 179.649 456.792 193.986 454.989 211.461 C 454.989 211.461 448.009 213.405 433.672 203.85 C 419.336 194.294 406.306 128.263 429.331 107.272 C 452.355 86.283 486.928 76.441 486.928 76.441 L 497.025 93.727" style="fill:#ffbdc2;fill-opacity:1;fill-rule:nonzero;stroke:none" id="path510"/>
  <path d="M 429.26 207.97 C 442.351 210.733 448.981 199.949 451.12 186.173 C 453.932 168.235 449.085 145.303 440.836 141.315 C 426.317 134.279 443.064 102.951 449.971 115.728 C 456.861 128.557 486.575 118.832 497.047 93.723 C 512.089 70.247 473.123 58.187 473.123 58.187 C 456.748 53.267 445.155 53.936 436.38 58.392 C 410.095 71.657 409.695 119.016 384.872 152.036 C 351.775 196.062 399.027 201.462 429.26 207.97" style="fill-opacity: 1; fill-rule: nonzero; stroke: none; fill: rgb(59, 73, 83);" id="path512"/>
  <path d="M 485.808 128.788 C 485.372 133.385 483.851 137.001 482.409 136.864 C 480.971 136.727 480.156 132.889 480.592 128.292 C 481.029 123.695 482.552 120.08 483.991 120.216 C 485.432 120.353 486.247 124.191 485.808 128.788" style="fill:#000000;fill-opacity:1;fill-rule:nonzero;stroke:none" id="path514"/>
  <path d="M 421.543 215.45 C 434.633 218.213 448.981 199.949 451.12 186.173 C 424.348 190.576 389.196 165.397 413.77 127.887 C 437.169 92.04 414.224 83.616 436.38 58.392 C 410.095 71.657 409.695 119.016 384.872 152.036 C 351.775 196.062 391.31 208.944 421.543 215.45" style="fill-opacity: 1; fill-rule: nonzero; stroke: none; fill: rgb(65, 74, 80);" id="path516"/>
  <path d="M 394.164 409.091 C 395.31 417.002 396.074 421.639 396.074 421.639 L 480.689 421.639 C 480.689 421.639 480.144 416.893 479.652 409.091 C 477.907 382.742 476.435 321.639 497.437 294.197 C 524.552 258.682 481.235 216.346 453.029 195.998 C 364.54 158.791 386.8 356.554 394.164 409.091" style="fill:#0f1241;fill-opacity:1;fill-rule:nonzero;stroke:none" id="path518"/>
  <path d="M 394.164 409.091 C 395.31 417.002 396.074 421.639 396.074 421.639 L 480.689 421.639 C 480.689 421.639 480.144 416.893 479.652 409.091 L 394.164 409.091" style="fill-opacity: 1; fill-rule: nonzero; stroke: none; fill: url(#gradient-1);" id="path520"/>
  <path d="M 557.214 311.574 C 554.402 309.83 553.374 306.238 554.84 303.271 L 581.433 249.413 C 584.052 244.213 590.293 241.988 595.61 244.357 L 609.698 250.637 C 615.832 253.37 618.061 260.945 614.386 266.564 L 578.049 324.481 L 557.214 311.574" style="fill:#0f1241;fill-opacity:1;fill-rule:nonzero;stroke:none" id="path522"/>
  <path d="M 587.242 252.338 C 587.772 251.288 588.657 250.544 589.694 250.173 C 590.732 249.804 591.889 249.82 592.964 250.298 L 607.052 256.578 C 607.673 256.854 608.177 257.24 608.57 257.69 C 608.989 258.168 609.3 258.737 609.481 259.354 C 609.664 259.972 609.71 260.618 609.617 261.246 C 609.529 261.837 609.316 262.433 608.877 263.108 L 575.977 315.546 L 560.704 306.083 C 560.704 306.083 587.265 252.293 587.242 252.338" style="fill-opacity: 1; fill-rule: nonzero; stroke: none; fill: rgb(0, 148, 248);" id="path524"/>
  <path d="M 621.026 242.84 C 621.158 242.84 621.292 242.817 621.425 242.776 C 622.081 242.554 622.438 241.842 622.218 241.182 C 619.314 232.493 609.913 227.317 600.792 229.445 C 600.114 229.602 599.693 230.278 599.848 230.956 C 600.002 231.626 600.664 232.048 601.356 231.896 C 609.202 230.072 617.333 234.497 619.832 241.981 C 620.008 242.505 620.498 242.84 621.026 242.84" style="fill-opacity: 1; fill-rule: nonzero; stroke: none; fill: rgb(154, 154, 154);" id="path526"/>
  <path d="M 634.18 238.446 C 634.313 238.446 634.446 238.425 634.58 238.382 C 635.234 238.161 635.592 237.45 635.373 236.79 C 632.885 229.338 627.701 223.102 620.78 219.229 C 613.732 215.281 605.5 214.112 597.658 215.937 C 596.981 216.093 596.561 216.77 596.716 217.448 C 596.869 218.121 597.525 218.532 598.222 218.388 C 605.474 216.701 613.05 217.782 619.554 221.425 C 625.928 224.992 630.694 230.729 632.986 237.589 C 633.162 238.113 633.652 238.446 634.18 238.446" style="fill-opacity: 1; fill-rule: nonzero; stroke: none; fill: rgb(154, 154, 154);" id="path528"/>
  <path d="M 647.329 234.052 C 647.461 234.052 647.594 234.03 647.728 233.988 C 648.384 233.766 648.741 233.056 648.522 232.394 C 644.936 221.665 637.489 212.69 627.557 207.13 C 617.482 201.493 605.74 199.832 594.526 202.428 C 593.849 202.585 593.428 203.262 593.582 203.94 C 593.737 204.61 594.392 205.037 595.09 204.878 C 605.704 202.424 616.801 204.001 626.332 209.325 C 635.714 214.578 642.746 223.056 646.136 233.194 C 646.31 233.718 646.801 234.052 647.329 234.052" style="fill-opacity: 1; fill-rule: nonzero; stroke: none; fill: rgb(154, 154, 154);" id="path530"/>
  <path d="M 660.482 229.658 C 660.616 229.658 660.749 229.637 660.882 229.594 C 661.537 229.373 661.894 228.662 661.676 228.001 C 656.993 213.99 647.28 202.278 634.329 195.03 C 621.245 187.702 606.001 185.534 591.392 188.922 C 590.716 189.081 590.296 189.756 590.45 190.433 C 590.605 191.108 591.26 191.522 591.957 191.374 C 605.96 188.124 620.557 190.201 633.104 197.226 C 645.506 204.168 654.804 215.382 659.289 228.801 C 659.465 229.325 659.954 229.658 660.482 229.658" style="fill-opacity: 1; fill-rule: nonzero; stroke: none; fill: rgb(154, 154, 154);" id="path532"/>
  <path d="M 430.721 327.145 C 432.575 327.145 434.381 326.201 435.404 324.497 C 461.364 281.222 468.904 245.966 430.592 193.794 C 428.817 191.365 425.403 190.838 422.97 192.626 C 420.539 194.41 420.018 197.824 421.803 200.252 C 456.693 247.773 450.215 278.606 426.048 318.881 C 424.498 321.466 425.335 324.815 427.917 326.366 C 428.797 326.894 429.767 327.145 430.721 327.145" style="fill-opacity: 1; fill-rule: nonzero; stroke: none; fill: rgb(0, 148, 248);" id="path534"/>
  <path d="M 346.978 396.906 C 318.61 396.906 295.614 373.91 295.614 345.542 L 295.614 219.309 L 398.34 219.309 L 398.34 345.542 C 398.34 373.91 375.344 396.906 346.978 396.906" style="fill-opacity: 1; fill-rule: nonzero; stroke: none; fill: rgb(0, 76, 144);" id="path536"/>
  <path d="M 403.796 198.765 L 290.159 198.765 L 295.614 219.309 L 398.34 219.309 L 403.796 198.765" style="fill-opacity: 1; fill-rule: nonzero; stroke: none; fill: rgb(0, 148, 248);" id="path538"/>
  <path d="M 317.207 298.886 C 317.207 315.139 330.383 328.313 346.635 328.313 C 362.888 328.313 376.063 315.139 376.063 298.886 C 376.063 282.633 362.888 269.458 346.635 269.458 C 330.383 269.458 317.207 282.633 317.207 298.886" style="fill-opacity: 1; fill-rule: nonzero; stroke: none; fill: rgb(0, 148, 248);" id="path540"/>
  <path d="M 337.75 291.741 C 337.75 295.202 340.555 298.009 344.018 298.009 C 347.479 298.009 350.286 295.202 350.286 291.741 C 350.286 288.28 347.479 285.473 344.018 285.473 C 340.555 285.473 337.75 288.28 337.75 291.741" style="fill:#ffffff;fill-opacity:1;fill-rule:nonzero;stroke:none" id="path542"/>
  <path d="M 341.546 269.928 C 337.75 250.65 327.308 246.82 317.207 247.168 C 317.207 247.168 315.848 261.961 341.546 269.928" style="fill-opacity: 1; fill-rule: nonzero; stroke: none; fill: rgb(0, 148, 248);" id="path544"/>
  <path d="M 341.546 269.928 C 341.623 255.982 345.671 246.972 350.699 243.577 C 355.4 252.98 349.434 264.48 341.546 269.928" style="fill-opacity: 1; fill-rule: nonzero; stroke: none; fill: rgb(0, 148, 248);" id="path546"/>
  <path d="M 435.219 340.114 C 440.476 263.361 423.762 197.024 396.6 202.769 C 369.438 208.514 374.139 305.67 426.896 374.097 C 509.947 357.905 556.958 331.265 556.958 331.265 L 552.257 315.594 C 552.257 315.594 460.777 327.026 435.219 340.114" style="fill-opacity: 1; fill-rule: nonzero; stroke: none; fill: url(#gradient-0);" id="path548"/>
  <path d="M 556.958 331.265 C 577.618 330.915 595.785 323.429 606.929 315.419 C 612.437 311.461 613.001 302.466 611.108 296.269 C 605.361 277.464 567.928 307.759 567.928 307.759 C 567.928 307.759 583.566 286.682 577.852 281.12 C 573.498 276.884 553.737 308.981 552.257 315.594 L 556.958 331.265" style="fill:#ffbdc2;fill-opacity:1;fill-rule:nonzero;stroke:none" id="path550"/>
  <path d="M 299.479 114.267 C 293.87 86.043 312.502 81.595 312.502 81.595 C 312.502 81.595 320.159 97.429 299.479 114.267" style="fill-opacity: 1; fill-rule: nonzero; stroke: none; fill: rgb(0, 213, 129);" id="path552"/>
  <path d="M 235.371 123.721 C 228.026 102.044 249.965 95.515 249.965 95.515 C 249.965 95.515 255.514 113.797 235.371 123.721" style="fill-opacity: 1; fill-rule: nonzero; stroke: none; fill: rgb(0, 213, 129);" id="path554"/>
  <path d="M 337.227 45.023 C 324.778 26.218 347.566 18.383 347.566 18.383 C 347.566 18.383 357.511 30.398 337.227 45.023" style="fill-opacity: 1; fill-rule: nonzero; stroke: none; fill: rgb(0, 213, 129);" id="path556"/>
  <path d="M 417.843 356.149 C 417.939 356.149 418.035 356.13 418.126 356.086 C 418.471 355.93 418.622 355.526 418.462 355.182 C 386.623 285.629 387.247 225.145 399.931 208.228 C 400.16 207.924 400.098 207.498 399.799 207.272 C 399.495 207.053 399.068 207.104 398.844 207.408 C 385.951 224.6 385.164 285.717 417.224 355.751 C 417.338 356.002 417.587 356.149 417.843 356.149" style="fill:#0f1241;fill-opacity:1;fill-rule:nonzero;stroke:none" id="path558"/>
  <path d="M 1251.239 91.029 C 1251.094 91.029 1250.949 91.032 1250.802 91.035 C 1249.061 79.436 1239.027 70.512 1226.951 70.512 C 1224.755 70.512 1222.597 70.807 1220.519 71.381 C 1215.09 62.927 1205.673 57.612 1195.275 57.612 C 1188.094 57.612 1181.511 60.165 1176.339 64.384 C 1171.271 48.059 1156.037 36.166 1138.069 36.166 C 1116.869 36.166 1099.464 52.711 1098.082 73.567 C 1096.75 73.387 1095.402 73.295 1094.046 73.295 C 1077.322 73.295 1063.716 86.901 1063.716 103.624 C 1063.716 120.348 1077.322 133.953 1094.046 133.953 L 1251.239 133.953 C 1263.074 133.953 1272.701 124.327 1272.701 112.492 C 1272.701 100.659 1263.074 91.029 1251.239 91.029" style="fill:#ffffff;fill-opacity:1;fill-rule:nonzero;stroke:none" id="path560"/>
  <path d="M 1055.701 197.625 C 1055.701 215.761 1040.998 230.464 1022.861 230.464 C 1004.727 230.464 990.024 215.761 990.024 197.625 C 990.024 179.489 1004.727 164.787 1022.861 164.787 C 1040.998 164.787 1055.701 179.489 1055.701 197.625" style="fill-opacity: 1; fill-rule: nonzero; stroke: none; fill: rgb(0, 148, 248);" id="path562"/>
  <path d="M 1022.856 211.992 C 1013.985 211.992 1012.384 205.125 1014.416 197.732 C 1015.833 192.405 1019.099 186.83 1022.856 183.257 C 1026.613 186.83 1029.909 192.436 1031.325 197.764 C 1033.327 205.156 1031.727 211.992 1022.856 211.992" style="fill:#ffffff;fill-opacity:1;fill-rule:nonzero;stroke:none" id="path564"/>
  <path d="M 733.062 94.22 C 733.062 124.552 708.474 149.14 678.142 149.14 C 647.81 149.14 623.222 124.552 623.222 94.22 C 623.222 63.889 647.81 39.3 678.142 39.3 C 708.474 39.3 733.062 63.889 733.062 94.22" style="fill-opacity: 1; fill-rule: nonzero; stroke: none; fill: rgb(0, 148, 248);" id="path566"/>
  <path d="M 689.173 94.22 C 689.173 100.312 684.234 105.251 678.142 105.251 C 672.05 105.251 667.112 100.312 667.112 94.22 C 667.112 88.129 672.05 83.189 678.142 83.189 C 684.234 83.189 689.173 88.129 689.173 94.22" style="fill:#ffffff;fill-opacity:1;fill-rule:nonzero;stroke:none" id="path568"/>
  <path d="M 678.142 79.195 C 676.987 79.195 676.045 78.249 676.045 77.096 L 676.045 67.744 C 676.045 66.589 676.987 65.645 678.142 65.645 C 679.297 65.645 680.241 66.589 680.241 67.744 L 680.241 77.096 C 680.241 78.249 679.297 79.195 678.142 79.195" style="fill:#ffffff;fill-opacity:1;fill-rule:nonzero;stroke:none" id="path570"/>
  <path d="M 678.142 122.796 C 676.987 122.796 676.045 121.851 676.045 120.699 L 676.045 111.345 C 676.045 110.192 676.987 109.248 678.142 109.248 C 679.297 109.248 680.241 110.192 680.241 111.345 L 680.241 120.699 C 680.241 121.851 679.297 122.796 678.142 122.796" style="fill:#ffffff;fill-opacity:1;fill-rule:nonzero;stroke:none" id="path572"/>
  <path d="M 693.169 94.22 C 693.169 93.067 694.113 92.123 695.267 92.123 L 704.619 92.123 C 705.774 92.123 706.718 93.067 706.718 94.22 C 706.718 95.375 705.774 96.319 704.619 96.319 L 695.267 96.319 C 694.113 96.319 693.169 95.375 693.169 94.22" style="fill:#ffffff;fill-opacity:1;fill-rule:nonzero;stroke:none" id="path574"/>
  <path d="M 649.568 94.22 C 649.568 93.067 650.512 92.123 651.665 92.123 L 661.018 92.123 C 662.172 92.123 663.116 93.067 663.116 94.22 C 663.116 95.375 662.172 96.319 661.018 96.319 L 651.665 96.319 C 650.512 96.319 649.568 95.375 649.568 94.22" style="fill:#ffffff;fill-opacity:1;fill-rule:nonzero;stroke:none" id="path576"/>
  <path d="M 688.767 83.595 C 687.951 82.779 687.951 81.444 688.767 80.628 L 695.381 74.015 C 696.197 73.199 697.531 73.199 698.349 74.015 C 699.165 74.831 699.165 76.165 698.349 76.983 L 691.735 83.595 C 690.918 84.411 689.583 84.411 688.767 83.595" style="fill:#ffffff;fill-opacity:1;fill-rule:nonzero;stroke:none" id="path578"/>
  <path d="M 657.937 114.427 C 657.121 113.611 657.121 112.275 657.937 111.459 L 664.55 104.845 C 665.365 104.031 666.701 104.031 667.517 104.845 C 668.333 105.663 668.333 106.997 667.517 107.813 L 660.904 114.427 C 660.088 115.243 658.753 115.243 657.937 114.427" style="fill:#ffffff;fill-opacity:1;fill-rule:nonzero;stroke:none" id="path580"/>
  <path d="M 688.767 104.845 C 689.583 104.031 690.918 104.031 691.735 104.845 L 698.349 111.459 C 699.165 112.275 699.165 113.611 698.349 114.427 C 697.531 115.243 696.197 115.243 695.381 114.427 L 688.767 107.813 C 687.951 106.997 687.951 105.663 688.767 104.845" style="fill:#ffffff;fill-opacity:1;fill-rule:nonzero;stroke:none" id="path582"/>
  <path d="M 657.937 74.015 C 658.753 73.199 660.088 73.199 660.904 74.015 L 667.517 80.628 C 668.333 81.444 668.333 82.78 667.517 83.595 C 666.701 84.411 665.365 84.411 664.55 83.595 L 657.937 76.983 C 657.121 76.165 657.121 74.831 657.937 74.015" style="fill:#ffffff;fill-opacity:1;fill-rule:nonzero;stroke:none" id="path584"/>
  <path d="M 859.547 179.541 C 859.547 207.3 837.044 229.804 809.286 229.804 C 781.527 229.804 759.025 207.3 759.025 179.541 C 759.025 151.783 781.527 129.28 809.286 129.28 C 837.044 129.28 859.547 151.783 859.547 179.541" style="fill-opacity: 1; fill-rule: nonzero; stroke: none; fill: rgb(0, 148, 248);" id="path586"/>
  <path d="M 818.822 179.541 C 815.112 179.541 811.918 177.078 809.058 174.877 C 806.208 172.677 803.526 170.601 800.824 170.977 C 798.672 171.281 796.29 173.181 793.747 176.625 C 792.896 177.786 791.254 178.03 790.103 177.174 C 788.942 176.321 788.699 174.689 789.554 173.532 C 793.008 168.853 796.459 166.329 800.102 165.819 C 804.911 165.139 808.819 168.119 812.238 170.749 C 814.832 172.749 817.246 174.63 819.356 174.285 C 820.986 174.005 822.796 172.344 824.735 169.345 C 825.524 168.133 827.142 167.8 828.338 168.573 C 829.548 169.357 829.89 170.971 829.111 172.179 C 826.307 176.506 823.402 178.874 820.236 179.418 C 819.754 179.502 819.286 179.541 818.822 179.541" style="fill:#ffffff;fill-opacity:1;fill-rule:nonzero;stroke:none" id="path588"/>
  <path d="M 818.822 193.364 C 815.112 193.364 811.918 190.9 809.058 188.7 C 806.208 186.5 803.526 184.422 800.824 184.8 C 798.672 185.101 796.29 187.002 793.747 190.446 C 792.896 191.608 791.254 191.852 790.103 190.997 C 788.942 190.142 788.699 188.512 789.554 187.354 C 793.008 182.674 796.459 180.15 800.102 179.64 C 804.911 178.96 808.819 181.94 812.238 184.569 C 814.832 186.57 817.246 188.452 819.356 188.106 C 820.986 187.828 822.796 186.165 824.735 183.166 C 825.524 181.954 827.142 181.621 828.338 182.396 C 829.548 183.178 829.89 184.792 829.111 186 C 826.307 190.328 823.402 192.696 820.236 193.241 C 819.754 193.325 819.286 193.364 818.822 193.364" style="fill:#ffffff;fill-opacity:1;fill-rule:nonzero;stroke:none" id="path590"/>
  <path d="M 972.56 100.655 C 972.56 125.644 952.303 145.903 927.312 145.903 C 902.323 145.903 882.066 125.644 882.066 100.655 C 882.066 75.665 902.323 55.408 927.312 55.408 C 952.303 55.408 972.56 75.665 972.56 100.655" style="fill-opacity: 1; fill-rule: nonzero; stroke: none; fill: rgb(0, 148, 248);" id="path592"/>
  <path d="M 927.312 90.927 C 927.312 90.927 930.46 86.057 936.683 86.057 C 942.229 86.057 946.052 91.056 946.052 96.879 C 946.052 103.617 940.841 111.591 927.312 118.52 C 913.784 111.591 908.574 103.617 908.574 96.879 C 908.574 91.056 912.396 86.057 917.943 86.057 C 924.164 86.057 927.312 90.927 927.312 90.927" style="fill:#ffffff;fill-opacity:1;fill-rule:nonzero;stroke:none" id="path594"/>
  <path d="M 1066.732 238.736 C 1066.732 245.334 1061.381 250.685 1054.782 250.685 C 1048.184 250.685 1042.833 245.334 1042.833 238.736 C 1042.833 232.137 1048.184 226.786 1054.782 226.786 C 1061.381 226.786 1066.732 232.137 1066.732 238.736" style="fill-opacity: 1; fill-rule: nonzero; stroke: none; fill: rgb(0, 148, 248);" id="path596"/>
  <path d="M 1068.416 264.166 C 1068.416 266.45 1066.564 268.302 1064.28 268.302 C 1061.996 268.302 1060.142 266.45 1060.142 264.166 C 1060.142 261.881 1061.996 260.029 1064.28 260.029 C 1066.564 260.029 1068.416 261.881 1068.416 264.166" style="fill-opacity: 1; fill-rule: nonzero; stroke: none; fill: rgb(0, 148, 248);" id="path598"/>
  <path d="M 869.575 117.639 C 869.575 125.127 863.504 131.196 856.018 131.196 C 848.528 131.196 842.459 125.127 842.459 117.639 C 842.459 110.151 848.528 104.081 856.018 104.081 C 863.504 104.081 869.575 110.151 869.575 117.639" style="fill-opacity: 1; fill-rule: nonzero; stroke: none; fill: rgb(0, 148, 248);" id="path600"/>
  <path d="M 1012.041 132.575 C 1012.041 141.712 1004.635 149.12 995.497 149.12 C 986.359 149.12 978.953 141.712 978.953 132.575 C 978.953 123.437 986.359 116.029 995.497 116.029 C 1004.635 116.029 1012.041 123.437 1012.041 132.575" style="fill-opacity: 1; fill-rule: nonzero; stroke: none; fill: rgb(0, 148, 248);" id="path602"/>
  <path d="M 992.74 165.435 C 992.74 167.845 990.785 169.8 988.373 169.8 C 985.963 169.8 984.008 167.845 984.008 165.435 C 984.008 163.023 985.963 161.068 988.373 161.068 C 990.785 161.068 992.74 163.023 992.74 165.435" style="fill-opacity: 1; fill-rule: nonzero; stroke: none; fill: rgb(0, 148, 248);" id="path604"/>
  <path d="M 776.894 116.489 C 776.894 126.304 768.938 134.26 759.123 134.26 C 749.31 134.26 741.354 126.304 741.354 116.489 C 741.354 106.676 749.31 98.72 759.123 98.72 C 768.938 98.72 776.894 106.676 776.894 116.489" style="fill-opacity: 1; fill-rule: nonzero; stroke: none; fill: rgb(0, 148, 248);" id="path606"/>
  <path d="M 761.575 148.967 C 761.575 145.583 758.831 142.839 755.447 142.839 C 752.063 142.839 749.319 145.583 749.319 148.967 C 749.319 152.351 752.063 155.093 755.447 155.093 C 758.831 155.093 761.575 152.351 761.575 148.967" style="fill-opacity: 1; fill-rule: nonzero; stroke: none; fill: rgb(0, 148, 248);" id="path608"/>
  <path d="M 740.741 80.337 C 740.741 83.044 742.935 85.239 745.643 85.239 C 748.35 85.239 750.545 83.044 750.545 80.337 C 750.545 77.629 748.35 75.435 745.643 75.435 C 742.935 75.435 740.741 77.629 740.741 80.337" style="fill-opacity: 1; fill-rule: nonzero; stroke: none; fill: rgb(0, 148, 248);" id="path610"/>
</svg>